<?xml version="1.0" standalone="no"?>
<!DOCTYPE svg PUBLIC "-//W3C//DTD SVG 1.1//EN" "http://www.w3.org/Graphics/SVG/1.1/DTD/svg11.dtd" >
<svg xmlns="http://www.w3.org/2000/svg">
<metadata></metadata>
<defs>
<font id="circeregular" horiz-adv-x="1212" >
<font-face units-per-em="2048" ascent="1583" descent="-465" />
<missing-glyph horiz-adv-x="460" />
<glyph horiz-adv-x="2048" />
<glyph horiz-adv-x="2048" />
<glyph unicode="&#xd;" horiz-adv-x="2048" />
<glyph unicode=" "  horiz-adv-x="460" />
<glyph unicode="&#x09;" horiz-adv-x="460" />
<glyph unicode="&#xa0;" horiz-adv-x="460" />
<glyph unicode="!" horiz-adv-x="634" d="M203 111q0 42 33 75t86 33q46 0 77 -33t31 -75q0 -47 -31 -82t-77 -35q-53 0 -86 34.5t-33 82.5zM229 440v994h174v-994h-174z" />
<glyph unicode="&#x22;" horiz-adv-x="849" d="M174 977v457h164v-457h-164zM512 977v457h164v-457h-164z" />
<glyph unicode="#" horiz-adv-x="1441" d="M82 399v144h235l129 348h-364v143h418l155 420l129 -47l-139 -373h377l156 420l129 -45l-140 -375h193v-143h-246l-129 -348h375v-144h-428l-156 -419l-127 45l137 374h-376l-156 -419l-129 45l139 374h-182zM463 543h377l129 348h-377z" />
<glyph unicode="$" d="M156 195l100 118q60 -80 159 -125t195 -45q117 0 194 59.5t77 164.5q0 56 -24 100.5t-64.5 76t-93 58t-111 50.5t-116.5 49.5t-110.5 60t-93 76.5t-64.5 103.5t-24 137.5q0 140 96 242.5t261 126.5v170h163v-168q207 -25 318 -145l-94 -131q-116 116 -291 116 q-127 0 -197.5 -57t-70.5 -154q0 -56 24 -101t64.5 -75.5t93 -56t110.5 -48.5t116 -48t110.5 -58.5t93 -76t64.5 -105.5t24 -141q0 -152 -101 -254.5t-264 -126.5v-193h-163v189q-124 14 -230.5 70.5t-150.5 140.5z" />
<glyph unicode="%" horiz-adv-x="1796" d="M92 1100q0 154 106 250t269 96t269 -96t106 -250t-106 -251t-269 -97t-269 97t-106 251zM246 1100q0 -95 65 -155t156 -60q93 0 157 59.5t64 155.5q0 94 -64.5 153.5t-156.5 59.5q-93 0 -157 -59t-64 -154zM326 47l1052 1407l95 -70l-1051 -1404zM954 336q0 154 106 250 t269 96t269 -96t106 -250t-106 -251t-269 -97t-269 97t-106 251zM1108 336q0 -95 65 -155t156 -60q93 0 157 59.5t64 155.5q0 94 -64.5 153.5t-156.5 59.5q-93 0 -157 -59t-64 -154z" />
<glyph unicode="&#x26;" horiz-adv-x="1523" d="M143 389q0 69 20 133t50 112.5t77.5 97t91 82.5t101.5 73q-86 29 -138 99.5t-52 170.5q0 130 93 213.5t222 83.5q130 0 224 -83.5t94 -213.5q0 -99 -62 -177t-151 -95l348 -449q119 209 119 486h161q0 -171 -47 -332.5t-133 -284.5l240 -305h-205l-149 188 q-160 -208 -441 -208q-204 0 -333.5 115t-129.5 294zM328 422q0 -121 83 -200t199 -79q216 0 336 176l-358 472q-127 -96 -193.5 -182t-66.5 -187zM446 1157q0 -66 47.5 -114t114.5 -48q68 0 116 47.5t48 114.5t-48 115.5t-116 48.5t-115 -47.5t-47 -116.5z" />
<glyph unicode="'" horiz-adv-x="512" d="M174 977v457h164v-457h-164z" />
<glyph unicode="(" horiz-adv-x="600" d="M82 461q0 242 96.5 461t319.5 421l102 -90q-187 -178 -270.5 -369.5t-83.5 -422.5q0 -227 92 -434t262 -359l-104 -90q-414 357 -414 883z" />
<glyph unicode=")" horiz-adv-x="600" d="M0 -332q170 152 262 359t92 434q0 231 -83.5 422.5t-270.5 369.5l102 90q223 -202 319.5 -421t96.5 -461q0 -526 -414 -883z" />
<glyph unicode="*" horiz-adv-x="980" d="M145 924q0 44 31 75t74 31q44 0 75 -31t31 -75q0 -45 -31 -77t-75 -32q-43 0 -74 32.5t-31 76.5zM145 1196q0 44 31 76.5t74 32.5q44 0 75 -32t31 -77q0 -43 -31 -74.5t-75 -31.5q-43 0 -74 31.5t-31 74.5zM383 768q0 45 32 78t74 33q43 0 76 -33t33 -78q0 -41 -33 -73.5 t-76 -32.5q-41 0 -73.5 32.5t-32.5 73.5zM387 1346q0 42 31.5 74t73.5 32q45 0 76.5 -31.5t31.5 -74.5q0 -44 -31 -74.5t-77 -30.5q-42 0 -73.5 30.5t-31.5 74.5zM625 924q0 44 29.5 75t72.5 31q45 0 77 -31t32 -75t-32.5 -76.5t-76.5 -32.5q-42 0 -72 32t-30 77zM625 1196 q0 45 30 77t72 32q44 0 76.5 -32.5t32.5 -76.5q0 -43 -32.5 -74.5t-76.5 -31.5q-42 0 -72 31.5t-30 74.5z" />
<glyph unicode="+" d="M141 666v143h385v391h154v-391h391v-143h-391v-396h-154v396h-385z" />
<glyph unicode="," horiz-adv-x="456" d="M104 -221q46 15 82.5 49.5t49.5 87.5q16 69 -3 102q-11 -18 -45 -18q-31 0 -54 27.5t-23 66.5q0 49 30.5 79t85.5 30q65 0 106.5 -54.5t41.5 -144.5q0 -113 -61.5 -193t-163.5 -110z" />
<glyph unicode="-" horiz-adv-x="796" d="M154 481v154h489v-154h-489z" />
<glyph unicode="." horiz-adv-x="430" d="M102 111q0 42 32.5 75t84.5 33q46 0 77.5 -33.5t31.5 -74.5q0 -47 -31.5 -82t-77.5 -35q-52 0 -84.5 34.5t-32.5 82.5z" />
<glyph unicode="/" horiz-adv-x="686" d="M-61 -379l682 1833l127 -47l-680 -1833z" />
<glyph unicode="0" horiz-adv-x="1155" d="M113 717q0 164 27.5 296.5t83 231t145.5 152t209 53.5q158 0 263.5 -95t153 -256t47.5 -382q0 -165 -26.5 -297t-81.5 -231t-144 -152t-208 -53q-158 0 -265 94.5t-155.5 256t-48.5 382.5zM287 717q0 -580 295 -580q152 0 219 145.5t67 434.5q0 287 -69 433t-221 146 t-221.5 -147t-69.5 -432z" />
<glyph unicode="1" horiz-adv-x="776" d="M72 1176l344 266h114v-1442h-163v1206l-209 -164z" />
<glyph unicode="2" horiz-adv-x="1079" d="M92 0v133q9 9 28 27q70 69 109.5 108.5t113.5 117.5t119 132.5t102.5 132.5t90 140t55.5 132.5t23 131.5q0 100 -60.5 165.5t-172.5 65.5q-92 0 -163.5 -59.5t-92.5 -169.5l-140 57q26 156 140.5 246t269.5 90q97 0 174 -31.5t123.5 -83.5t71 -115.5t24.5 -132.5 q0 -82 -28 -173t-70 -169t-103.5 -162.5t-114.5 -145t-117.5 -125.5t-98 -95.5t-70.5 -62.5h662v-154h-875z" />
<glyph unicode="3" horiz-adv-x="1089" d="M72 225l94 117q52 -97 141.5 -148t192.5 -51q130 0 206 73t76 185q0 114 -81 182t-212 68h-112v164h102q99 0 173.5 70.5t74.5 177.5q0 106 -62 166.5t-171 60.5q-194 0 -295 -178l-93 113q49 109 154.5 169t245.5 60q181 0 288 -97t107 -265q0 -118 -57.5 -208.5 t-165.5 -135.5v-7q130 -21 204 -118t74 -228q0 -189 -127 -302t-323 -113q-151 0 -265 63t-169 182z" />
<glyph unicode="4" horiz-adv-x="1126" d="M41 358v117l594 959h188l-567 -912h446v400h164v-400h199v-164h-199v-358h-164v358h-661z" />
<glyph unicode="5" horiz-adv-x="1056" d="M72 197l94 120q51 -82 140 -128t181 -46q124 0 206.5 86t82.5 217q0 132 -95.5 218t-252.5 86q-128 0 -225 -37l90 721h647v-164h-504l-53 -387q54 14 115 14q198 0 325 -121.5t127 -322.5q0 -144 -64 -253t-169.5 -164.5t-233.5 -55.5q-124 0 -237 55t-174 162z" />
<glyph unicode="6" horiz-adv-x="1134" d="M102 508q0 128 29.5 247.5t81 215.5t119.5 179t146.5 143t159.5 101t161 60l67 -125q-205 -53 -365.5 -219.5t-205.5 -417.5q46 87 131 139t207 52q178 0 293.5 -123.5t115.5 -317.5q0 -103 -37.5 -191t-100 -146.5t-141.5 -91.5t-163 -33q-116 0 -211.5 42.5t-157.5 115 t-95.5 167.5t-33.5 203zM276 508q0 -155 84 -260t238 -105q116 0 193 84.5t77 202.5q0 131 -75.5 215t-214.5 84q-116 0 -194.5 -67t-107.5 -154z" />
<glyph unicode="7" horiz-adv-x="993" d="M61 1270v164h861v-107l-529 -1327h-180l510 1270h-662z" />
<glyph unicode="8" horiz-adv-x="1218" d="M133 371q0 132 74.5 230t195.5 132v6q-96 33 -160.5 127.5t-64.5 212.5q0 166 124 270.5t306 104.5t307 -104.5t125 -270.5q0 -107 -63.5 -201.5t-171.5 -136.5v-6q122 -21 201 -117t79 -235q0 -124 -65.5 -217t-172 -139.5t-237.5 -46.5q-130 0 -237.5 46t-173.5 136.5 t-66 208.5zM307 401q0 -112 85 -185t216 -73q137 0 220 71t83 187q-1 118 -80 186t-196 68h-45q-117 0 -200 -72t-83 -182zM352 1055q0 -97 69.5 -166.5t162.5 -69.5h53q92 0 160.5 69.5t68.5 166.5q0 108 -75.5 171.5t-184.5 63.5q-108 0 -181 -65t-73 -170z" />
<glyph unicode="9" horiz-adv-x="1128" d="M82 991q0 136 68.5 244t172 163.5t216.5 55.5q155 0 267 -72t166 -192t54 -275q0 -199 -55 -367t-152 -285.5t-227.5 -190.5t-282.5 -92l-55 129q242 46 394.5 207t185.5 413q-44 -82 -127.5 -130t-196.5 -48q-186 0 -307 126t-121 314zM256 1004q0 -124 78.5 -211.5 t216.5 -87.5q117 0 195 62t106 148q0 102 -32 184.5t-104 136.5t-175 54q-118 0 -201.5 -85t-83.5 -201z" />
<glyph unicode=":" horiz-adv-x="655" d="M215 111q0 42 32.5 75t84.5 33q46 0 77 -33t31 -75q0 -47 -31 -82t-77 -35q-52 0 -84.5 34.5t-32.5 82.5zM215 831q0 42 32.5 75.5t84.5 33.5q46 0 77 -33.5t31 -75.5q0 -47 -31 -81.5t-77 -34.5q-52 0 -84.5 34t-32.5 82z" />
<glyph unicode=";" horiz-adv-x="663" d="M209 -221q46 15 82 49.5t49 87.5q16 70 -2 102q-11 -18 -45 -18q-31 0 -54.5 27.5t-23.5 66.5q0 49 30.5 79t86.5 30q65 0 106 -54.5t41 -144.5q0 -113 -61.5 -193t-163.5 -110zM215 831q0 42 32.5 75.5t84.5 33.5q46 0 77 -33.5t31 -75.5q0 -47 -31 -81.5t-77 -34.5 q-52 0 -84.5 34t-32.5 82z" />
<glyph unicode="&#x3c;" d="M117 707v69l901 541v-178l-674 -398l674 -401v-178z" />
<glyph unicode="=" d="M141 481v144h930v-144h-930zM141 850v143h930v-143h-930z" />
<glyph unicode="&#x3e;" d="M195 162v178l673 401l-673 398v178l899 -541v-69z" />
<glyph unicode="?" horiz-adv-x="954" d="M82 1247q57 92 162.5 149.5t232.5 57.5q192 0 304 -101.5t112 -252.5q0 -59 -12.5 -109.5t-34 -87.5t-49.5 -71t-59 -58.5t-63 -51t-61.5 -48.5t-54 -50t-40.5 -56.5t-22 -68t3 -83.5l-148 -2q-14 68 -5.5 124.5t31.5 94.5t57 72.5t71.5 60t75.5 57t68 63t48.5 78 t18.5 101.5q0 95 -71 160t-179 65q-176 0 -287 -151zM311 111q0 42 33 75t86 33q46 0 77.5 -33.5t31.5 -74.5q0 -47 -31.5 -82t-77.5 -35q-53 0 -86 34.5t-33 82.5z" />
<glyph unicode="@" horiz-adv-x="2060" d="M133 461q0 185 69.5 350.5t190 286t292 190.5t366.5 70q248 0 447.5 -100.5t314 -284.5t114.5 -418q0 -85 -18.5 -165t-57.5 -151t-93.5 -124t-132.5 -84t-169 -31h-170v96q-52 -52 -127.5 -84t-157.5 -32q-209 0 -332.5 131t-123.5 350q0 99 39 188t107 153.5t164.5 102 t207.5 37.5q107 0 210 -29t177 -75v-684h43q127 0 204 113.5t77 285.5q0 136 -52.5 255.5t-145.5 207t-229.5 138t-295.5 50.5q-160 0 -300.5 -54.5t-243 -151t-161.5 -235.5t-59 -302q0 -209 101 -380t276 -267.5t387 -96.5q112 0 221 25l10 -152q-120 -26 -231 -26 q-196 0 -366.5 68.5t-291.5 187.5t-190.5 285.5t-69.5 355.5zM719 453q0 -149 85 -234.5t224 -85.5q74 0 145 36t113 85v475q-104 59 -225 59q-152 0 -247 -97t-95 -238z" />
<glyph unicode="A" horiz-adv-x="1443" d="M31 0l616 1442h150l616 -1442h-186l-185 434h-653l-182 -434h-176zM459 598h516l-258 612z" />
<glyph unicode="B" horiz-adv-x="1263" d="M215 2v1430q320 8 393 8q124 0 215.5 -27t144 -76.5t77 -111.5t24.5 -140q0 -128 -67.5 -211.5t-178.5 -119.5v-4q138 -22 217.5 -109t79.5 -231q0 -106 -39 -187t-110 -130.5t-164 -74t-207 -24.5q-217 0 -385 8zM389 166q94 -8 221 -8q161 0 248.5 66t87.5 196 q0 113 -84.5 173t-240.5 60h-232v-487zM389 807h229q119 0 198 63.5t79 176.5q0 112 -74 170.5t-217 58.5q-62 0 -215 -6v-463z" />
<glyph unicode="C" horiz-adv-x="1343" d="M102 717q0 207 84 373t248 265t383 99q275 0 436 -139l-79 -131q-142 106 -355 106q-234 0 -383 -159.5t-149 -413.5q0 -256 155 -415t404 -159q210 0 366 127l70 -131q-72 -73 -195.5 -116t-257.5 -43q-213 0 -378 90.5t-257 258.5t-92 388z" />
<glyph unicode="D" horiz-adv-x="1513" d="M215 0v1434h25q44 0 174.5 3t191.5 3q167 0 303 -37.5t228.5 -102.5t155 -155t90.5 -192.5t28 -217.5q0 -155 -52.5 -288t-152 -234t-258 -159t-358.5 -58q-45 0 -166.5 2t-185.5 2h-23zM389 164q188 -4 207 -4q151 0 271 43t198.5 119.5t120 181.5t41.5 231 q0 242 -161.5 391.5t-463.5 149.5q-38 0 -73.5 -1t-75.5 -2.5t-64 -2.5v-1106z" />
<glyph unicode="E" horiz-adv-x="1177" d="M215 0v1434h809v-164h-635v-463h574v-164h-574v-479h655v-164h-829z" />
<glyph unicode="F" horiz-adv-x="1105" d="M215 0v1434h809v-164h-635v-508h574v-164h-574v-598h-174z" />
<glyph unicode="G" horiz-adv-x="1488" d="M102 717q0 206 86 373t248 265.5t371 98.5q273 0 450 -139l-75 -139q-61 56 -155 85t-200 29q-241 0 -390.5 -157.5t-149.5 -415.5q0 -260 150.5 -417t396.5 -157q102 0 206.5 36t161.5 91v295h-387v164h551v-551q-91 -91 -243.5 -144.5t-293.5 -53.5q-333 0 -530 200.5 t-197 536.5z" />
<glyph unicode="H" horiz-adv-x="1566" d="M215 0v1434h174v-621h789v621h174v-1434h-174v649h-789v-649h-174z" />
<glyph unicode="I" horiz-adv-x="686" d="M256 0v1434h174v-1434h-174z" />
<glyph unicode="J" horiz-adv-x="765" d="M20 55l60 133q59 -45 135 -45q88 0 125 55.5t37 155.5v1080h174v-1108q0 -346 -313 -346q-68 0 -128 22.5t-90 52.5z" />
<glyph unicode="K" horiz-adv-x="1337" d="M215 0v1434h174v-1434h-174zM424 748l629 686h211l-639 -674l671 -760h-223z" />
<glyph unicode="L" horiz-adv-x="1126" d="M215 0v1434h174v-1270h707v-164h-881z" />
<glyph unicode="M" horiz-adv-x="1826" d="M215 0v1434h176l539 -736l516 736h166v-1434h-174v1159l-508 -713h-27l-514 707v-1153h-174z" />
<glyph unicode="N" horiz-adv-x="1628" d="M215 0v1434h139l895 -1131v1131h164v-1434h-139l-895 1126v-1126h-164z" />
<glyph unicode="O" horiz-adv-x="1667" d="M102 717q0 206 93.5 374.5t261.5 265.5t377 97q154 0 289 -54.5t232.5 -150t153.5 -233.5t56 -299q0 -157 -56 -294.5t-153 -234.5t-232.5 -152.5t-289.5 -55.5q-207 0 -373.5 92.5t-262.5 261.5t-96 383zM287 717q0 -160 72.5 -292t198 -207t276.5 -75q161 0 286 76 t192.5 206.5t67.5 291.5q0 248 -157 410.5t-389 162.5q-154 0 -279 -73t-196.5 -204.5t-71.5 -295.5z" />
<glyph unicode="P" horiz-adv-x="1222" d="M215 0v1434q39 0 184 2t191 2q119 0 212 -25t152 -67t97 -100.5t53.5 -120.5t15.5 -132q0 -89 -32 -169t-94 -143.5t-162.5 -100.5t-227.5 -37q-119 0 -215 8v-551h-174zM389 717q117 -10 209 -10q158 0 248 76.5t90 211.5q0 132 -82 205.5t-248 73.5q-81 0 -217 -4v-553 z" />
<glyph unicode="Q" horiz-adv-x="1667" d="M102 717q0 206 93.5 374.5t261.5 265.5t377 97q154 0 289 -54.5t232.5 -150t153.5 -233.5t56 -299q0 -158 -56.5 -295.5t-158.5 -237.5l157 -184h-204l-76 88q-174 -108 -393 -108q-207 0 -373.5 92.5t-262.5 261.5t-96 383zM287 717q0 -160 72.5 -292t198 -207 t276.5 -75q156 0 282 74l-125 150l115 104l131 -154q143 162 143 400q0 248 -157 410.5t-389 162.5q-154 0 -279 -73t-196.5 -204.5t-71.5 -295.5z" />
<glyph unicode="R" horiz-adv-x="1316" d="M215 0v1434q45 0 207 2t178 2q114 0 203 -22.5t146 -60.5t94 -93.5t52 -116.5t15 -133q0 -81 -26 -151.5t-70.5 -120.5t-99 -84t-115.5 -50l477 -606h-213l-440 573h-234v-573h-174zM389 737h211q131 0 228.5 75.5t97.5 197.5q0 121 -78.5 192.5t-257.5 71.5 q-65 0 -201 -4v-533z" />
<glyph unicode="S" horiz-adv-x="1124" d="M102 195l101 118q60 -80 159 -125t195 -45q118 0 199.5 60t81.5 164q0 56 -24 100.5t-64.5 76t-93 58t-111 50.5t-116.5 49.5t-110.5 60t-93 76.5t-64.5 103.5t-24 137.5q0 161 117 268t315 107q123 0 228.5 -40.5t167.5 -108.5l-95 -131q-116 116 -290 116 q-119 0 -188.5 -57.5t-69.5 -153.5q0 -56 24 -101t64.5 -75.5t93 -56t110.5 -48.5t116 -48t110.5 -58.5t93 -76t64.5 -105.5t24 -141q0 -115 -62.5 -204.5t-168.5 -137t-236 -47.5q-139 0 -270 59t-183 156z" />
<glyph unicode="T" horiz-adv-x="1218" d="M20 1270v164h1178v-164h-502v-1270h-174v1270h-502z" />
<glyph unicode="U" horiz-adv-x="1538" d="M195 612v822h174v-789q0 -235 109.5 -367.5t309.5 -132.5q180 0 280.5 124t100.5 364v801h174v-836q0 -159 -45 -280t-123.5 -193t-176 -107.5t-210.5 -35.5q-130 0 -238 40t-187.5 117t-123.5 198t-44 275z" />
<glyph unicode="V" horiz-adv-x="1343" d="M10 1434h187l487 -1180l473 1180h176l-590 -1442h-129z" />
<glyph unicode="W" horiz-adv-x="1986" d="M20 1434h197l334 -1141l371 1141h168l380 -1141l326 1141h170l-414 -1434h-159l-394 1153l-385 -1153h-159z" />
<glyph unicode="X" horiz-adv-x="1359" d="M41 0l526 729l-504 705h205l416 -574l410 574h206l-507 -705l526 -729h-207l-434 596l-432 -596h-205z" />
<glyph unicode="Y" horiz-adv-x="1236" d="M20 1434h201l402 -656l403 656h191l-515 -820v-614h-174v614z" />
<glyph unicode="Z" horiz-adv-x="1300" d="M82 0v117l876 1153h-835v164h1075v-117l-881 -1153h902v-164h-1137z" />
<glyph unicode="[" horiz-adv-x="655" d="M123 -410v1741h512v-153h-348v-1434h348v-154h-512z" />
<glyph unicode="\" horiz-adv-x="686" d="M-61 1407l127 47l682 -1833l-130 -47z" />
<glyph unicode="]" horiz-adv-x="655" d="M20 -256h349v1434h-349v153h512v-1741h-512v154z" />
<glyph unicode="^" horiz-adv-x="1007" d="M82 922l369 528h110l365 -528h-178l-244 360l-244 -360h-178z" />
<glyph unicode="_" horiz-adv-x="638" d="M0 -246h639v-164h-639v164z" />
<glyph unicode="`" horiz-adv-x="604" d="M123 1444l102 125l256 -291l-80 -90z" />
<glyph unicode="a" horiz-adv-x="1208" d="M25 0l503 1081h152l504 -1081h-187l-131 287h-534l-131 -287h-176zM406 451h387l-193 421z" />
<glyph unicode="b" horiz-adv-x="1073" d="M172 2v1071q264 8 363 8q200 0 292.5 -73t92.5 -193q0 -94 -54.5 -160.5t-144.5 -91.5v-2q115 -15 176 -77.5t61 -170.5q0 -159 -119 -239t-315 -80q-212 0 -352 8zM346 166q66 -8 191 -8q247 0 247 161q0 72 -61.5 110t-175.5 38h-201v-301zM346 621h197 q87 0 144.5 39.5t57.5 109.5q0 148 -213 148q-49 0 -186 -7v-290z" />
<glyph unicode="c" horiz-adv-x="1110" d="M82 537q0 113 38.5 212.5t111 176t185.5 120.5t253 44q221 0 360 -107l-80 -131q-125 74 -280 74q-180 0 -292 -106t-112 -283q0 -176 117 -284t311 -108q167 0 291 88l68 -131q-57 -55 -159.5 -87.5t-215.5 -32.5q-269 0 -432.5 151.5t-163.5 403.5z" />
<glyph unicode="d" horiz-adv-x="1251" d="M172 0v1075h21q36 0 150.5 2t162.5 2q172 0 302 -40.5t207.5 -113.5t115.5 -167t38 -209q0 -119 -42.5 -219.5t-125 -175t-212.5 -116.5t-295 -42q-34 0 -139.5 2t-161.5 2h-21zM346 164q136 -4 154 -4q231 0 358 104t127 285q0 171 -121.5 268.5t-359.5 97.5 q-52 0 -158 -4v-747z" />
<glyph unicode="e" horiz-adv-x="999" d="M172 0v1075h696v-164h-522v-286h471v-164h-471v-297h539v-164h-713z" />
<glyph unicode="f" horiz-adv-x="929" d="M172 0v1075h690v-164h-516v-321h467v-164h-467v-426h-174z" />
<glyph unicode="g" horiz-adv-x="1230" d="M82 537q0 154 71.5 279t206 199.5t308.5 74.5q222 0 376 -107l-75 -137q-114 80 -281 80q-188 0 -305 -104.5t-117 -284.5q0 -179 117.5 -285.5t310.5 -106.5q77 0 153 21.5t122 58.5v191h-303v153h467v-438q-75 -68 -201.5 -108.5t-241.5 -40.5q-281 0 -444.5 151 t-163.5 404z" />
<glyph unicode="h" horiz-adv-x="1310" d="M172 0v1075h174v-444h619v444h174v-1075h-174v467h-619v-467h-174z" />
<glyph unicode="i" horiz-adv-x="575" d="M201 0v1075h174v-1075h-174z" />
<glyph unicode="j" horiz-adv-x="645" d="M12 47l60 133q50 -33 106 -33q121 0 121 134v794h174v-823q0 -268 -270 -268q-60 0 -113 19t-78 44z" />
<glyph unicode="k" horiz-adv-x="1134" d="M172 0v1075h174v-1075h-174zM360 561l490 514h227l-504 -502l531 -573h-238z" />
<glyph unicode="l" horiz-adv-x="940" d="M172 0v1075h174v-901h557v-174h-731z" />
<glyph unicode="m" horiz-adv-x="1515" d="M172 0v1075h176l424 -514l406 514h165v-1075h-174v811l-397 -492h-24l-402 486v-805h-174z" />
<glyph unicode="n" horiz-adv-x="1343" d="M172 0v1075h139l697 -792v792h163v-1075h-141l-694 791v-791h-164z" />
<glyph unicode="o" horiz-adv-x="1341" d="M82 537q0 115 43.5 217t120.5 176t187.5 117t238.5 43q167 0 300.5 -68.5t210.5 -195t77 -289.5q0 -159 -76.5 -286.5t-211 -198t-300.5 -70.5q-168 0 -302 68.5t-211 195.5t-77 291zM266 537q0 -167 117.5 -279.5t288.5 -112.5q184 0 293.5 111t109.5 281t-115.5 279.5 t-287.5 109.5q-175 0 -290.5 -109.5t-115.5 -279.5z" />
<glyph unicode="p" horiz-adv-x="1021" d="M172 0v1075q32 0 157 2t165 2q100 0 177.5 -19.5t127.5 -52t82.5 -79.5t45.5 -97.5t13 -109.5q0 -157 -111.5 -260t-316.5 -103q-70 0 -166 7v-365h-174zM346 530q106 -8 160 -8q119 0 184.5 53t65.5 146q0 92 -60 143t-186 51q-74 0 -164 -4v-381z" />
<glyph unicode="q" horiz-adv-x="1341" d="M82 537q0 115 43.5 217t120.5 176t187.5 117t238.5 43q167 0 300.5 -68.5t210.5 -195t77 -289.5q0 -225 -152 -383l139 -154h-203l-57 61q-139 -79 -315 -79q-168 0 -302 68.5t-211 195.5t-77 291zM266 537q0 -167 117.5 -279.5t288.5 -112.5q110 0 198 43l-94 105 l115 104l100 -112q84 108 84 252q0 170 -115.5 279.5t-287.5 109.5q-175 0 -290.5 -109.5t-115.5 -279.5z" />
<glyph unicode="r" horiz-adv-x="1093" d="M172 0v1075q30 0 151.5 2t168.5 2q442 0 442 -340q0 -126 -66 -204.5t-163 -104.5l348 -430h-222l-305 389h-180v-389h-174zM346 553h166q99 0 168.5 50.5t69.5 133.5q0 78 -59 128t-191 50q-80 0 -154 -4v-358z" />
<glyph unicode="s" horiz-adv-x="993" d="M70 152l100 118q56 -55 152.5 -90t195.5 -35q87 0 148 39t61 109q0 40 -26.5 71t-70 50.5t-99 39.5t-113.5 37t-113.5 44t-99 59.5t-70 84.5t-26.5 118q0 129 101.5 211t305.5 82q98 0 209.5 -40t165.5 -98l-80 -129q-57 46 -144 74.5t-159 28.5q-100 0 -157.5 -37 t-57.5 -101q0 -38 26.5 -67t70 -47.5t99 -37.5t113.5 -36t113.5 -44.5t99 -61t70 -88t26.5 -123.5q0 -135 -114.5 -218t-288.5 -83q-134 0 -256.5 46.5t-181.5 123.5z" />
<glyph unicode="t" horiz-adv-x="1007" d="M16 911v164h975v-164h-401v-911h-174v911h-400z" />
<glyph unicode="u" horiz-adv-x="1269" d="M154 457v618h174v-583q0 -159 83 -252t238 -93q141 0 216 85.5t75 248.5v594h174v-629q0 -96 -25 -174t-68 -131t-102.5 -88.5t-126.5 -52t-143 -16.5q-223 0 -359 122.5t-136 350.5z" />
<glyph unicode="v" horiz-adv-x="1110" d="M2 1075h197l368 -839l353 839h186l-479 -1079h-131z" />
<glyph unicode="w" horiz-adv-x="1650" d="M12 1075h197l258 -809l285 809h172l293 -809l247 809h174l-340 -1075h-161l-303 799l-297 -799h-168z" />
<glyph unicode="x" horiz-adv-x="1126" d="M25 0l424 547l-406 528h217l305 -397l303 397h215l-407 -528l424 -547h-215l-324 414l-319 -414h-217z" />
<glyph unicode="y" horiz-adv-x="1040" d="M12 1075h211l303 -459l303 459h199l-422 -622v-453h-174v453z" />
<glyph unicode="z" horiz-adv-x="1077" d="M68 0v119l669 792h-637v164h893v-119l-671 -792h688v-164h-942z" />
<glyph unicode="{" horiz-adv-x="686" d="M41 389v143q31 0 60.5 10.5t58.5 34t47 70t18 111.5v284q0 146 64.5 217.5t218.5 71.5h137v-153h-98q-87 0 -122.5 -43t-35.5 -148v-291q0 -99 -41.5 -161.5t-111.5 -71.5q70 -8 111.5 -65t41.5 -169v-297q0 -100 40.5 -144t129.5 -44h86v-154h-145q-136 0 -205.5 66 t-69.5 211v321q0 58 -16.5 99.5t-45 63t-58.5 30.5t-64 8z" />
<glyph unicode="|" horiz-adv-x="675" d="M256 0v1434h164v-1434h-164z" />
<glyph unicode="}" horiz-adv-x="686" d="M41 -256h86q89 0 129.5 44t40.5 144v297q0 112 42 169t112 65q-70 9 -112 71.5t-42 161.5v291q0 104 -36 147.5t-122 43.5h-98v153h137q153 0 218 -72t65 -217v-284q0 -65 18 -111.5t47 -70t58.5 -34t60.5 -10.5v-143q-34 1 -64 -8t-58.5 -30.5t-45 -63t-16.5 -99.5v-321 q0 -145 -69.5 -211t-207.5 -66h-143v154z" />
<glyph unicode="~" d="M102 733q65 70 138 109t141 39q56 0 122.5 -23t118 -50t116.5 -50t118 -23q94 0 186 92l66 -112q-130 -123 -254 -123q-55 0 -121 22.5t-117 50t-114 50t-113 22.5q-101 0 -213 -108z" />
<glyph unicode="&#xa1;" horiz-adv-x="634" d="M205 825q0 47 31 82t77 35q53 0 86 -34.5t33 -82.5q0 -42 -33 -75t-86 -33q-46 0 -77 33t-31 75zM231 496h175v-994h-175v994z" />
<glyph unicode="&#xa2;" d="M182 461q0 182 109 314.5t282 160.5v223h164v-221q174 -19 275 -117l-76 -129q-104 96 -264 96q-128 0 -222 -92.5t-94 -234.5q0 -148 95.5 -238t236.5 -90q160 0 264 119l78 -119q-103 -130 -293 -149v-230h-164v234q-180 29 -285.5 155.5t-105.5 317.5z" />
<glyph unicode="&#xa3;" d="M78 115q77 83 172 123q106 137 106 276q0 33 -2 49h-200v133h161q-9 20 -35 74.5t-38 85t-24.5 85.5t-12.5 112q0 166 122.5 281.5t319.5 115.5q124 0 224 -41.5t167 -114.5l-92 -127q-125 119 -295 119q-116 0 -189 -72t-73 -172q0 -68 19 -124.5t51.5 -118.5t46.5 -103 h332v-133h-308v-18q0 -145 -110 -285q68 -6 209.5 -55t216.5 -49q62 0 114 20t109 74l74 -127q-128 -131 -301 -131q-79 0 -233.5 53t-233.5 53q-113 0 -228 -112z" />
<glyph unicode="&#xa4;" d="M47 248l178 182q-84 119 -84 277q0 154 84 276l-170 174l103 103l170 -175q120 86 278 86q155 0 277 -84l180 179l102 -103l-180 -178q86 -125 86 -278q0 -155 -86 -277l174 -174l-100 -100l-174 172q-120 -86 -279 -86q-158 0 -278 86l-181 -181zM295 707 q0 -136 84.5 -229t226.5 -93q145 0 228.5 92.5t83.5 229.5q0 139 -84.5 230t-227.5 91q-141 0 -226 -92t-85 -229z" />
<glyph unicode="&#xa5;" d="M39 1434h201l370 -656l373 656h191l-406 -689h301v-133h-379v-215h379v-133h-379v-264h-174v264h-377v133h377v215h-377v133h299z" />
<glyph unicode="&#xa6;" horiz-adv-x="675" d="M256 0v532h164v-532h-164zM256 901v533h164v-533h-164z" />
<glyph unicode="&#xa7;" horiz-adv-x="1073" d="M133 510q0 130 72 226.5t198 131.5q-74 41 -120.5 112.5t-46.5 164.5q0 124 88.5 206.5t240.5 82.5q173 0 277 -134l-99 -110q-27 30 -43 44.5t-51.5 30t-79.5 15.5q-71 0 -120.5 -48.5t-49.5 -117.5q0 -140 179 -229q166 -12 264 -116.5t98 -258.5q0 -130 -73 -227.5 t-201 -130.5q74 -42 121 -112t47 -161q0 -124 -89 -206.5t-241 -82.5q-178 0 -279 134l99 110q26 -29 43 -44t53 -30.5t80 -15.5q71 0 120.5 48.5t49.5 117.5q0 77 -49 131t-134 96q-163 15 -258.5 118.5t-95.5 254.5zM297 510q0 -96 68 -163.5t172 -67.5q106 0 172.5 67.5 t66.5 163.5t-67.5 164.5t-171.5 68.5t-172 -68t-68 -165z" />
<glyph unicode="&#xa8;" horiz-adv-x="794" d="M123 1339q0 39 28.5 63.5t69.5 24.5q34 0 61 -25t27 -63q0 -42 -27 -68t-61 -26q-41 0 -69.5 25.5t-28.5 68.5zM487 1339q0 38 28.5 63t66.5 25q37 0 63.5 -24.5t26.5 -63.5q0 -43 -26.5 -68.5t-63.5 -25.5q-39 0 -67 26t-28 68z" />
<glyph unicode="&#xa9;" horiz-adv-x="2084" d="M154 453q0 183 68 347.5t185.5 283t283 188t351.5 69.5t351.5 -69.5t283 -188t186 -283t68.5 -347.5t-68.5 -347.5t-186 -283.5t-283 -188.5t-351.5 -69.5t-351.5 69.5t-283 188.5t-185.5 283.5t-68 347.5zM297 451q0 -152 56.5 -289t154 -237t237 -159t297.5 -59 q210 0 381.5 100t268 270.5t96.5 373.5q0 204 -96.5 375t-268 271.5t-381.5 100.5q-158 0 -297.5 -59t-237 -159.5t-154 -238t-56.5 -290.5zM565 461q0 133 60 243t167.5 174t239.5 64q242 0 363 -121l-76 -129q-104 96 -264 96q-128 0 -222 -92.5t-94 -234.5 q0 -148 95.5 -238t236.5 -90q160 0 264 119l78 -119q-57 -74 -151.5 -113.5t-202.5 -39.5q-221 0 -357.5 132t-136.5 349z" />
<glyph unicode="&#xaa;" horiz-adv-x="870" d="M102 868q0 106 68.5 164t189.5 58q136 0 224 -52v11q0 176 -172 176q-106 0 -179 -51l-61 96q107 78 266 78q126 0 207.5 -68.5t81.5 -196.5v-417h-143v96q-87 -105 -254 -105q-102 0 -165 61t-63 150zM256 883q0 -46 39 -75.5t104 -29.5q95 0 185 74v94q-84 41 -176 41 q-68 0 -110 -28t-42 -76z" />
<glyph unicode="&#xab;" horiz-adv-x="1085" d="M92 508v8l385 442l107 -94l-303 -352l301 -354l-111 -97zM481 508v8l385 442l107 -94l-303 -352l301 -354l-111 -97z" />
<glyph unicode="&#xac;" d="M121 666v143h971v-412h-144v269h-827z" />
<glyph unicode="&#xad;" horiz-adv-x="796" d="M154 481v154h489v-154h-489z" />
<glyph unicode="&#xae;" horiz-adv-x="1265" d="M102 1018q0 143 70.5 264.5t193.5 192.5t269 71q143 0 264.5 -71t192.5 -192.5t71 -264.5q0 -146 -71 -269.5t-192.5 -194.5t-264.5 -71q-146 0 -268.5 71.5t-193.5 194.5t-71 269zM236 1016q0 -164 116.5 -281t280.5 -117t280.5 117t116.5 281t-116.5 280.5 t-280.5 116.5t-280.5 -116.5t-116.5 -280.5zM432 737v574h201q115 0 168 -48.5t53 -129.5q0 -59 -35 -105t-88 -61l152 -230h-133l-129 207h-76v-207h-113zM545 1026h80q50 0 83 29.5t33 74.5t-32 72t-91 27h-73v-203z" />
<glyph unicode="&#xaf;" horiz-adv-x="786" d="M123 1280v133h541v-133h-541z" />
<glyph unicode="&#xb0;" horiz-adv-x="839" d="M102 1165q0 134 92.5 227t223.5 93q134 0 226.5 -89.5t92.5 -224.5q0 -133 -93.5 -227t-225.5 -94q-131 0 -223.5 91t-92.5 224zM246 1167q0 -72 51 -123t123 -51q71 0 122.5 51t51.5 123q0 71 -52 122.5t-122 51.5q-72 0 -123 -51.5t-51 -122.5z" />
<glyph unicode="&#xb1;" d="M141 338v143h930v-143h-930zM141 840v143h385v391h154v-391h391v-143h-391v-252h-154v252h-385z" />
<glyph unicode="&#xb2;" horiz-adv-x="714" d="M72 717v104q7 5 51 34t59 39.5t56 39t59.5 44t51 43t48.5 47.5t34.5 45t26 48t7.5 45q0 49 -33 81t-92 32q-51 0 -92.5 -34t-48.5 -85l-121 43q15 92 91 145.5t185 53.5q127 0 194.5 -61t67.5 -158q0 -54 -29 -108.5t-69 -95t-93.5 -80t-91 -61t-73.5 -38.5h393v-123 h-581z" />
<glyph unicode="&#xb3;" horiz-adv-x="716" d="M51 848l84 78q24 -46 77.5 -74.5t111.5 -28.5q74 0 115.5 30.5t41.5 78.5q0 43 -38 69.5t-107 26.5h-70v102h62q54 0 90.5 30.5t36.5 74.5q0 43 -35 67.5t-94 24.5q-118 0 -183 -92l-69 78q33 59 104 95t176 36q115 0 184.5 -48t69.5 -132q0 -63 -40 -108t-111 -64v-2 q84 -6 131 -54.5t47 -115.5q0 -97 -83.5 -156t-205.5 -59q-98 0 -177.5 36t-117.5 107z" />
<glyph unicode="&#xb4;" horiz-adv-x="604" d="M123 1278l258 291l100 -125l-276 -256z" />
<glyph unicode="&#xb6;" horiz-adv-x="944" d="M92 985q0 207 120.5 328t317.5 121h353v-154h-193v-1307q0 -399 -338 -399q-68 0 -132 24.5t-101 59.5l67 119q65 -49 154 -49q45 0 78.5 13t53.5 35t32.5 55.5t17 68.5t4.5 80v559q-118 1 -215.5 52.5t-158 154.5t-60.5 239z" />
<glyph unicode="&#xb7;" horiz-adv-x="460" d="M117 612q0 42 32.5 75.5t83.5 33.5q46 0 77.5 -33.5t31.5 -75.5q0 -47 -31.5 -81.5t-77.5 -34.5q-52 0 -84 34t-32 82z" />
<glyph unicode="&#xb8;" horiz-adv-x="718" d="M123 -350l49 80q71 -47 145 -47q51 0 83 19.5t32 53.5q0 80 -119 80h-12v164h88v-88q103 -6 155 -48.5t52 -115.5q0 -75 -68 -121.5t-190 -46.5q-48 0 -91.5 11.5t-68 24.5t-55.5 34z" />
<glyph unicode="&#xb9;" horiz-adv-x="516" d="M45 1290l215 146h102v-719h-143v551l-119 -76z" />
<glyph unicode="&#xba;" horiz-adv-x="974" d="M113 1001q0 154 105.5 250.5t268.5 96.5t269 -96.5t106 -250.5t-106 -251t-269 -97t-268.5 97t-105.5 251zM266 1001q0 -95 65 -155t156 -60q93 0 157.5 59.5t64.5 155.5q0 94 -65 153.5t-157 59.5q-93 0 -157 -59t-64 -154z" />
<glyph unicode="&#xbb;" horiz-adv-x="1085" d="M113 864l106 94l385 -442v-8l-379 -447l-110 97l301 354zM502 864l106 94l385 -442v-8l-379 -447l-110 97l301 354z" />
<glyph unicode="&#xbc;" horiz-adv-x="1378" d="M66 1290l215 146h102v-719h-143v551l-119 -76zM102 47l1053 1407l94 -70l-1050 -1404zM686 162v94l344 461h137l-333 -443h249v187h134v-187h120v-112h-120v-162h-134v162h-397z" />
<glyph unicode="&#xbd;" horiz-adv-x="1411" d="M61 47l1053 1407l94 -70l-1050 -1404zM66 1290l215 146h102v-719h-143v551l-119 -76zM748 0v104q7 5 51 34t59 39.5t56 39t59.5 44t51 43t48.5 47.5t34.5 45t26 48t7.5 45q0 49 -33 81t-92 32q-51 0 -93 -34t-49 -85l-120 43q15 92 91 145.5t185 53.5q127 0 194.5 -61 t67.5 -158q0 -54 -29 -108.5t-69 -95t-93.5 -80t-91 -61t-73.5 -38.5h393v-123h-581z" />
<glyph unicode="&#xbe;" horiz-adv-x="1480" d="M61 848l84 78q24 -46 77.5 -74.5t111.5 -28.5q74 0 116 31t42 78q0 43 -38.5 69.5t-107.5 26.5h-70v102h62q54 0 90.5 30.5t36.5 74.5q0 43 -35 67.5t-94 24.5q-117 0 -182 -92l-70 78q33 59 104.5 95t176.5 36q115 0 184 -48t69 -132q0 -63 -40 -108t-111 -64v-2 q84 -6 131 -54.5t47 -115.5q0 -97 -83.5 -156t-205.5 -59q-98 0 -177.5 36t-117.5 107zM225 47l1053 1407l94 -70l-1050 -1404zM788 162v94l345 461h137l-334 -443h250v187h133v-187h121v-112h-121v-162h-133v162h-398z" />
<glyph unicode="&#xbf;" horiz-adv-x="954" d="M61 -164q0 82 25 149t63.5 110.5t84.5 81.5t90 71.5t78 70t49.5 87.5t3.5 114l147 2q12 -65 7 -112.5t-23.5 -87.5t-45 -69t-59.5 -57t-66.5 -51t-65.5 -52t-56.5 -58.5t-39.5 -72t-15 -91.5q0 -95 70.5 -160t178.5 -65q176 0 287 151l98 -108q-57 -92 -162.5 -149.5 t-232.5 -57.5q-192 0 -304 101.5t-112 252.5zM416 825q0 47 31 82t77 35q53 0 86 -34.5t33 -82.5q0 -42 -33 -75t-86 -33q-46 0 -77 33t-31 75z" />
<glyph unicode="&#xc0;" horiz-adv-x="1443" d="M31 0l616 1442h150l616 -1442h-186l-185 434h-653l-182 -434h-176zM395 1677l62 140l399 -213l-47 -99zM459 598h516l-258 612z" />
<glyph unicode="&#xc1;" horiz-adv-x="1443" d="M31 0l616 1442h150l616 -1442h-186l-185 434h-653l-182 -434h-176zM459 598h516l-258 612zM590 1604l399 213l62 -140l-414 -172z" />
<glyph unicode="&#xc2;" horiz-adv-x="1443" d="M31 0l616 1442h150l616 -1442h-186l-185 434h-653l-182 -434h-176zM362 1593l351 213h8l356 -211l-67 -94l-293 156l-295 -156zM459 598h516l-258 612z" />
<glyph unicode="&#xc3;" horiz-adv-x="1443" d="M31 0l616 1442h150l616 -1442h-186l-185 434h-653l-182 -434h-176zM365 1661q42 45 96.5 70.5t107.5 25.5q63 0 158.5 -41t149.5 -41q92 0 153 66l45 -103q-79 -106 -209 -106q-55 0 -154.5 41t-158.5 41q-69 0 -135 -55zM459 598h516l-258 612z" />
<glyph unicode="&#xc4;" horiz-adv-x="1443" d="M31 0l616 1442h150l616 -1442h-186l-185 434h-653l-182 -434h-176zM373 1665q0 42 32.5 67t79.5 25q42 0 74.5 -25.5t32.5 -66.5q0 -45 -32 -71.5t-75 -26.5q-48 0 -80 26t-32 72zM459 598h516l-258 612zM848 1665q0 41 33.5 66.5t81.5 25.5q42 0 73 -25t31 -67 q0 -45 -31 -71.5t-73 -26.5q-48 0 -81.5 26.5t-33.5 71.5z" />
<glyph unicode="&#xc5;" horiz-adv-x="1443" d="M31 0l608 1425q-78 16 -126 67t-48 130q0 98 71.5 147.5t182.5 49.5q114 0 186 -49.5t72 -147.5q0 -77 -47.5 -128t-126.5 -69l610 -1425h-186l-185 434h-653l-182 -434h-176zM459 598h516l-258 612zM588 1622q0 -55 36.5 -84t96.5 -29q58 0 95.5 29t37.5 84 q0 53 -36.5 78.5t-96.5 25.5q-61 0 -97 -25.5t-36 -78.5z" />
<glyph unicode="&#xc6;" horiz-adv-x="1957" d="M-31 0l1030 1434h805v-164h-635v-463h574v-164h-574v-479h656v-164h-830v442h-512l-311 -442h-203zM598 606h397v563z" />
<glyph unicode="&#xc7;" horiz-adv-x="1343" d="M102 717q0 207 84 373t248 265t383 99q275 0 436 -139l-79 -131q-142 106 -355 106q-234 0 -383 -159.5t-149 -413.5q0 -256 155 -415t404 -159q210 0 366 127l70 -131q-70 -71 -189 -113.5t-251 -45.5v-68q217 -11 217 -164q0 -75 -67.5 -121.5t-184.5 -46.5 q-132 0 -242 74l53 86q81 -57 152 -57q51 0 83 19.5t32 53.5q0 80 -119 80h-12v148q-294 23 -473 221.5t-179 511.5z" />
<glyph unicode="&#xc8;" horiz-adv-x="1177" d="M215 0v1434h809v-164h-635v-463h574v-164h-574v-479h655v-164h-829zM324 1677l61 140l399 -213l-47 -99z" />
<glyph unicode="&#xc9;" horiz-adv-x="1177" d="M215 0v1434h809v-164h-635v-463h574v-164h-574v-479h655v-164h-829zM467 1604l399 213l62 -140l-414 -172z" />
<glyph unicode="&#xca;" horiz-adv-x="1177" d="M215 0v1434h809v-164h-635v-463h574v-164h-574v-479h655v-164h-829zM264 1593l350 213h9l356 -211l-68 -94l-293 156l-294 -156z" />
<glyph unicode="&#xcb;" horiz-adv-x="1177" d="M215 0v1434h809v-164h-635v-463h574v-164h-574v-479h655v-164h-829zM279 1665q0 42 32.5 67t79.5 25q42 0 74.5 -25.5t32.5 -66.5q0 -45 -32 -71.5t-75 -26.5q-48 0 -80 26t-32 72zM754 1665q0 41 33.5 66.5t80.5 25.5q42 0 73.5 -25t31.5 -67q0 -45 -31.5 -71.5 t-73.5 -26.5q-48 0 -81 26.5t-33 71.5z" />
<glyph unicode="&#xcc;" horiz-adv-x="686" d="M-4 1677l61 140l400 -213l-47 -99zM256 0v1434h174v-1434h-174z" />
<glyph unicode="&#xcd;" horiz-adv-x="686" d="M231 1604l400 213l61 -140l-413 -172zM256 0v1434h174v-1434h-174z" />
<glyph unicode="&#xce;" horiz-adv-x="686" d="M-14 1593l350 213h8l356 -211l-67 -94l-293 156l-295 -156zM256 0v1434h174v-1434h-174z" />
<glyph unicode="&#xcf;" horiz-adv-x="686" d="M-4 1665q0 41 33 66.5t80 25.5q42 0 74 -25.5t32 -66.5q0 -45 -31.5 -71.5t-74.5 -26.5q-48 0 -80.5 26t-32.5 72zM256 0v1434h174v-1434h-174zM471 1665q0 41 33.5 66.5t81.5 25.5q42 0 73 -25t31 -67q0 -45 -31 -71.5t-73 -26.5q-48 0 -81.5 26.5t-33.5 71.5z" />
<glyph unicode="&#xd0;" horiz-adv-x="1544" d="M20 647v154h226v633h24q44 0 175 3t192 3q167 0 303 -37.5t228.5 -102.5t155 -155t90.5 -192.5t28 -217.5q0 -155 -52.5 -288t-152 -234t-258 -159t-358.5 -58q-45 0 -167 2t-186 2h-22v647h-226zM420 164q188 -4 207 -4q151 0 271 43t198 119.5t119.5 181.5t41.5 231 q0 118 -39.5 216t-116 171t-196 113.5t-272.5 40.5q-38 0 -73.5 -1t-75.5 -2.5t-64 -2.5v-469h385v-154h-385v-483z" />
<glyph unicode="&#xd1;" horiz-adv-x="1628" d="M215 0v1434h139l895 -1131v1131h164v-1434h-139l-895 1126v-1126h-164zM471 1661q42 45 97 70.5t108 25.5q63 0 158 -41t149 -41q93 0 154 66l45 -103q-80 -106 -209 -106q-55 0 -155 41t-159 41q-69 0 -135 -55z" />
<glyph unicode="&#xd2;" horiz-adv-x="1667" d="M102 717q0 206 93.5 374.5t261.5 265.5t377 97q154 0 289 -54.5t232.5 -150t153.5 -233.5t56 -299q0 -157 -56 -294.5t-153 -234.5t-232.5 -152.5t-289.5 -55.5q-207 0 -373.5 92.5t-262.5 261.5t-96 383zM287 717q0 -160 72.5 -292t198 -207t276.5 -75q161 0 286 76 t192.5 206.5t67.5 291.5q0 248 -157 410.5t-389 162.5q-154 0 -279 -73t-196.5 -204.5t-71.5 -295.5zM569 1677l62 140l399 -213l-47 -99z" />
<glyph unicode="&#xd3;" horiz-adv-x="1667" d="M102 717q0 206 93.5 374.5t261.5 265.5t377 97q154 0 289 -54.5t232.5 -150t153.5 -233.5t56 -299q0 -157 -56 -294.5t-153 -234.5t-232.5 -152.5t-289.5 -55.5q-207 0 -373.5 92.5t-262.5 261.5t-96 383zM287 717q0 -160 72.5 -292t198 -207t276.5 -75q161 0 286 76 t192.5 206.5t67.5 291.5q0 248 -157 410.5t-389 162.5q-154 0 -279 -73t-196.5 -204.5t-71.5 -295.5zM692 1604l400 213l61 -140l-414 -172z" />
<glyph unicode="&#xd4;" horiz-adv-x="1667" d="M102 717q0 206 93.5 374.5t261.5 265.5t377 97q154 0 289 -54.5t232.5 -150t153.5 -233.5t56 -299q0 -157 -56 -294.5t-153 -234.5t-232.5 -152.5t-289.5 -55.5q-207 0 -373.5 92.5t-262.5 261.5t-96 383zM287 717q0 -160 72.5 -292t198 -207t276.5 -75q161 0 286 76 t192.5 206.5t67.5 291.5q0 248 -157 410.5t-389 162.5q-154 0 -279 -73t-196.5 -204.5t-71.5 -295.5zM483 1593l351 213h8l356 -211l-68 -94l-292 156l-295 -156z" />
<glyph unicode="&#xd5;" horiz-adv-x="1667" d="M102 717q0 206 93.5 374.5t261.5 265.5t377 97q154 0 289 -54.5t232.5 -150t153.5 -233.5t56 -299q0 -157 -56 -294.5t-153 -234.5t-232.5 -152.5t-289.5 -55.5q-207 0 -373.5 92.5t-262.5 261.5t-96 383zM287 717q0 -160 72.5 -292t198 -207t276.5 -75q161 0 286 76 t192.5 206.5t67.5 291.5q0 248 -157 410.5t-389 162.5q-154 0 -279 -73t-196.5 -204.5t-71.5 -295.5zM475 1661q42 45 97 70.5t108 25.5q63 0 158 -41t149 -41q93 0 154 66l45 -103q-80 -106 -209 -106q-55 0 -154.5 41t-158.5 41q-70 0 -136 -55z" />
<glyph unicode="&#xd6;" horiz-adv-x="1667" d="M102 717q0 206 93.5 374.5t261.5 265.5t377 97q154 0 289 -54.5t232.5 -150t153.5 -233.5t56 -299q0 -157 -56 -294.5t-153 -234.5t-232.5 -152.5t-289.5 -55.5q-207 0 -373.5 92.5t-262.5 261.5t-96 383zM287 717q0 -160 72.5 -292t198 -207t276.5 -75q161 0 286 76 t192.5 206.5t67.5 291.5q0 248 -157 410.5t-389 162.5q-154 0 -279 -73t-196.5 -204.5t-71.5 -295.5zM483 1665q0 41 33 66.5t80 25.5q42 0 74 -25.5t32 -66.5q0 -45 -31.5 -71.5t-74.5 -26.5q-48 0 -80.5 26t-32.5 72zM958 1665q0 41 33.5 66.5t81.5 25.5q42 0 73.5 -25 t31.5 -67q0 -45 -31.5 -71.5t-73.5 -26.5q-48 0 -81.5 26.5t-33.5 71.5z" />
<glyph unicode="&#xd7;" d="M225 459l279 278l-277 277l103 102l276 -278l277 278l100 -102l-276 -277l280 -278l-102 -103l-279 279l-280 -279z" />
<glyph unicode="&#xd8;" horiz-adv-x="1667" d="M102 717q0 206 93.5 374.5t261.5 265.5t377 97q276 0 473 -164l90 88l94 -96l-88 -86q162 -199 162 -479q0 -157 -56 -294.5t-153 -234.5t-232.5 -152.5t-289.5 -55.5q-292 0 -492 178l-92 -90l-96 98l94 92q-146 192 -146 459zM287 717q0 -183 94 -330l799 780 q-145 123 -346 123q-154 0 -279 -73t-196.5 -204.5t-71.5 -295.5zM469 283q153 -140 365 -140q161 0 286 76t192.5 206.5t67.5 291.5q0 201 -108 350z" />
<glyph unicode="&#xd9;" horiz-adv-x="1538" d="M195 612v822h174v-789q0 -235 109.5 -367.5t309.5 -132.5q180 0 280.5 124t100.5 364v801h174v-836q0 -159 -45 -280t-123.5 -193t-176 -107.5t-210.5 -35.5q-130 0 -238 40t-187.5 117t-123.5 198t-44 275zM477 1677l62 140l399 -213l-47 -99z" />
<glyph unicode="&#xda;" horiz-adv-x="1538" d="M195 612v822h174v-789q0 -235 109.5 -367.5t309.5 -132.5q180 0 280.5 124t100.5 364v801h174v-836q0 -159 -45 -280t-123.5 -193t-176 -107.5t-210.5 -35.5q-130 0 -238 40t-187.5 117t-123.5 198t-44 275zM621 1604l399 213l61 -140l-413 -172z" />
<glyph unicode="&#xdb;" horiz-adv-x="1538" d="M195 612v822h174v-789q0 -235 109.5 -367.5t309.5 -132.5q180 0 280.5 124t100.5 364v801h174v-836q0 -159 -45 -280t-123.5 -193t-176 -107.5t-210.5 -35.5q-130 0 -238 40t-187.5 117t-123.5 198t-44 275zM410 1593l350 213h8l356 -211l-67 -94l-293 156l-295 -156z " />
<glyph unicode="&#xdc;" horiz-adv-x="1538" d="M195 612v822h174v-789q0 -235 109.5 -367.5t309.5 -132.5q180 0 280.5 124t100.5 364v801h174v-836q0 -159 -45 -280t-123.5 -193t-176 -107.5t-210.5 -35.5q-130 0 -238 40t-187.5 117t-123.5 198t-44 275zM412 1665q0 42 32.5 67t79.5 25q42 0 74.5 -25.5t32.5 -66.5 q0 -45 -32 -71.5t-75 -26.5q-48 0 -80 26t-32 72zM887 1665q0 41 33.5 66.5t80.5 25.5q42 0 73.5 -25t31.5 -67q0 -45 -31.5 -71.5t-73.5 -26.5q-48 0 -81 26.5t-33 71.5z" />
<glyph unicode="&#xdd;" horiz-adv-x="1236" d="M20 1434h201l402 -656l403 656h191l-515 -820v-614h-174v614zM477 1604l400 213l61 -140l-414 -172z" />
<glyph unicode="&#xde;" horiz-adv-x="1222" d="M215 0v1434h174v-215q27 0 104 2t97 2q119 0 212 -25t152 -67t97 -100.5t53.5 -120.5t15.5 -132q0 -89 -32 -169t-94 -143.5t-162.5 -100.5t-227.5 -37q-119 0 -215 8v-336h-174zM389 502q117 -10 209 -10q158 0 248 76.5t90 211.5q0 132 -86 205.5t-258 73.5 q-62 0 -203 -6v-551z" />
<glyph unicode="&#xdf;" horiz-adv-x="1118" d="M154 -4v1044q0 414 385 414q135 0 225 -74.5t90 -185.5q0 -56 -20 -100.5t-48 -74.5t-56 -57.5t-48 -62t-20 -74.5q0 -43 20.5 -78.5t53.5 -61.5t73 -51t80 -54.5t73 -64t53.5 -87t20.5 -117.5q0 -140 -89.5 -235.5t-225.5 -95.5q-99 0 -174.5 38t-118.5 95l55 125 q89 -105 199 -105q74 0 127 49t53 133q0 45 -20.5 83t-54 66.5t-73.5 55.5t-79.5 54.5t-73 57.5t-54 72t-20.5 91q0 55 20 100t48.5 75.5t56.5 58.5t48 62.5t20 73.5q0 59 -48 97t-116 38q-103 0 -151 -67t-48 -213v-1024h-163z" />
<glyph unicode="&#xe0;" horiz-adv-x="1208" d="M25 0l503 1081h152l504 -1081h-187l-131 287h-534l-131 -287h-176zM377 1444l102 125l256 -291l-80 -90zM406 451h387l-193 421z" />
<glyph unicode="&#xe1;" horiz-adv-x="1208" d="M25 0l503 1081h152l504 -1081h-187l-131 287h-534l-131 -287h-176zM406 451h387l-193 421zM479 1278l258 291l101 -125l-277 -256z" />
<glyph unicode="&#xe2;" horiz-adv-x="1208" d="M25 0l503 1081h152l504 -1081h-187l-131 287h-534l-131 -287h-176zM293 1278l309 242h8l305 -242l-77 -98l-232 182l-235 -180zM406 451h387l-193 421z" />
<glyph unicode="&#xe3;" horiz-adv-x="1208" d="M25 0l503 1081h152l504 -1081h-187l-131 287h-534l-131 -287h-176zM274 1309q109 123 226 123q50 0 120 -45.5t111 -45.5q37 0 67.5 16t78.5 56l57 -84q-115 -121 -217 -121q-45 0 -116.5 45t-117.5 45q-56 0 -141 -65zM406 451h387l-193 421z" />
<glyph unicode="&#xe4;" horiz-adv-x="1208" d="M25 0l503 1081h152l504 -1081h-187l-131 287h-534l-131 -287h-176zM330 1339q0 39 28.5 63.5t69.5 24.5q34 0 61 -25t27 -63q0 -42 -27 -68t-61 -26q-41 0 -69.5 25.5t-28.5 68.5zM406 451h387l-193 421zM694 1339q0 39 28 63.5t66 24.5q37 0 64 -25t27 -63 q0 -42 -27 -68t-64 -26q-39 0 -66.5 25.5t-27.5 68.5z" />
<glyph unicode="&#xe5;" horiz-adv-x="1208" d="M25 0l503 1081h152l504 -1081h-187l-131 287h-534l-131 -287h-176zM369 1350q0 95 67 161t166 66q101 0 169.5 -66.5t68.5 -160.5q0 -93 -68.5 -158.5t-169.5 -65.5q-99 0 -166 65.5t-67 158.5zM406 451h387l-193 421zM475 1352q0 -56 37 -94.5t92 -38.5t92 38.5t37 94.5 t-37 94.5t-92 38.5t-92 -38.5t-37 -94.5z" />
<glyph unicode="&#xe6;" horiz-adv-x="1617" d="M-37 0l348 440l502 635h672v-164h-500v-286h451v-164h-451v-297h518v-164h-692v291h-422l-223 -291h-203zM520 455h291v372z" />
<glyph unicode="&#xe7;" horiz-adv-x="1107" d="M80 537q0 113 38.5 212.5t111 176t185.5 120.5t253 44q221 0 360 -107l-80 -131q-125 74 -280 74q-180 0 -292 -106t-112 -283q0 -176 117 -284t311 -108q167 0 291 88l68 -131q-57 -55 -159.5 -87.5t-215.5 -32.5h-6v-70q103 -6 155 -48.5t52 -115.5q0 -75 -68.5 -121.5 t-190.5 -46.5q-48 0 -91.5 11.5t-68 24.5t-55.5 34l50 80q71 -47 145 -47q51 0 83 19.5t32 53.5q0 80 -119 80h-12v152q-230 26 -366 173.5t-136 375.5z" />
<glyph unicode="&#xe8;" horiz-adv-x="999" d="M172 0v1075h696v-164h-522v-286h471v-164h-471v-297h539v-164h-713zM301 1444l102 125l256 -291l-79 -90z" />
<glyph unicode="&#xe9;" horiz-adv-x="999" d="M172 0v1075h696v-164h-522v-286h471v-164h-471v-297h539v-164h-713zM393 1278l258 291l101 -125l-277 -256z" />
<glyph unicode="&#xea;" horiz-adv-x="999" d="M172 0v1075h696v-164h-522v-286h471v-164h-471v-297h539v-164h-713zM209 1278l309 242h8l305 -242l-77 -98l-232 182l-235 -180z" />
<glyph unicode="&#xeb;" horiz-adv-x="999" d="M172 0v1075h696v-164h-522v-286h471v-164h-471v-297h539v-164h-713zM246 1339q0 39 28.5 63.5t69.5 24.5q34 0 61 -25t27 -63q0 -42 -27 -68t-61 -26q-41 0 -69.5 25.5t-28.5 68.5zM610 1339q0 38 28.5 63t66.5 25q37 0 63.5 -24.5t26.5 -63.5q0 -43 -26.5 -68.5 t-63.5 -25.5q-39 0 -67 26t-28 68z" />
<glyph unicode="&#xec;" horiz-adv-x="575" d="M55 1444l103 125l256 -291l-80 -90zM201 0v1075h174v-1075h-174z" />
<glyph unicode="&#xed;" horiz-adv-x="575" d="M188 1278l258 291l101 -125l-277 -256zM201 0v1075h174v-1075h-174z" />
<glyph unicode="&#xee;" horiz-adv-x="575" d="M-25 1278l310 242h8l305 -242l-78 -98l-231 182l-236 -180zM201 0v1075h174v-1075h-174z" />
<glyph unicode="&#xef;" horiz-adv-x="575" d="M12 1339q0 39 29 63.5t70 24.5q34 0 61 -25t27 -63q0 -42 -27 -68t-61 -26q-41 0 -70 25.5t-29 68.5zM201 0v1075h174v-1075h-174zM377 1339q0 39 28 63.5t66 24.5q37 0 63.5 -24.5t26.5 -63.5q0 -43 -26.5 -68.5t-63.5 -25.5q-39 0 -66.5 25.5t-27.5 68.5z" />
<glyph unicode="&#xf0;" horiz-adv-x="1271" d="M16 469v154h174v452h21q33 0 154 2t182 2q132 0 240 -28t182 -76.5t124.5 -116t73.5 -145t23 -164.5q0 -114 -42.5 -214t-122.5 -176t-203.5 -119.5t-276.5 -43.5q-55 0 -169 2t-165 2h-21v469h-174zM365 164q136 -4 167 -4q225 0 349.5 106t124.5 283 q0 169 -117.5 267.5t-337.5 98.5q-27 0 -186 -6v-286h309v-154h-309v-305z" />
<glyph unicode="&#xf1;" horiz-adv-x="1343" d="M172 0v1075h139l697 -792v792h163v-1075h-141l-694 791v-791h-164zM330 1309q109 123 225 123q40 0 80.5 -23t78 -45.5t72.5 -22.5q37 0 67.5 16t78.5 56l57 -84q-115 -121 -217 -121q-45 0 -116 45t-117 45q-57 0 -142 -65z" />
<glyph unicode="&#xf2;" horiz-adv-x="1341" d="M82 537q0 115 43.5 217t120.5 176t187.5 117t238.5 43q167 0 300.5 -68.5t210.5 -195t77 -289.5q0 -159 -76.5 -286.5t-211 -198t-300.5 -70.5q-168 0 -302 68.5t-211 195.5t-77 291zM266 537q0 -167 117.5 -279.5t288.5 -112.5q184 0 293.5 111t109.5 281t-115.5 279.5 t-287.5 109.5q-175 0 -290.5 -109.5t-115.5 -279.5zM426 1444l102 125l256 -291l-79 -90z" />
<glyph unicode="&#xf3;" horiz-adv-x="1341" d="M82 537q0 115 43.5 217t120.5 176t187.5 117t238.5 43q167 0 300.5 -68.5t210.5 -195t77 -289.5q0 -159 -76.5 -286.5t-211 -198t-300.5 -70.5q-168 0 -302 68.5t-211 195.5t-77 291zM266 537q0 -167 117.5 -279.5t288.5 -112.5q184 0 293.5 111t109.5 281t-115.5 279.5 t-287.5 109.5q-175 0 -290.5 -109.5t-115.5 -279.5zM559 1278l258 291l101 -125l-277 -256z" />
<glyph unicode="&#xf4;" horiz-adv-x="1341" d="M82 537q0 115 43.5 217t120.5 176t187.5 117t238.5 43q167 0 300.5 -68.5t210.5 -195t77 -289.5q0 -159 -76.5 -286.5t-211 -198t-300.5 -70.5q-168 0 -302 68.5t-211 195.5t-77 291zM266 537q0 -167 117.5 -279.5t288.5 -112.5q184 0 293.5 111t109.5 281t-115.5 279.5 t-287.5 109.5q-175 0 -290.5 -109.5t-115.5 -279.5zM360 1278l310 242h8l305 -242l-78 -98l-231 182l-236 -180z" />
<glyph unicode="&#xf5;" horiz-adv-x="1341" d="M82 537q0 115 43.5 217t120.5 176t187.5 117t238.5 43q167 0 300.5 -68.5t210.5 -195t77 -289.5q0 -159 -76.5 -286.5t-211 -198t-300.5 -70.5q-168 0 -302 68.5t-211 195.5t-77 291zM266 537q0 -167 117.5 -279.5t288.5 -112.5q184 0 293.5 111t109.5 281t-115.5 279.5 t-287.5 109.5q-175 0 -290.5 -109.5t-115.5 -279.5zM342 1309q109 123 225 123q49 0 120 -45.5t112 -45.5q37 0 66.5 15.5t78.5 56.5l57 -84q-115 -121 -217 -121q-45 0 -116 45t-117 45q-56 0 -141 -65z" />
<glyph unicode="&#xf6;" horiz-adv-x="1341" d="M82 537q0 115 43.5 217t120.5 176t187.5 117t238.5 43q167 0 300.5 -68.5t210.5 -195t77 -289.5q0 -159 -76.5 -286.5t-211 -198t-300.5 -70.5q-168 0 -302 68.5t-211 195.5t-77 291zM266 537q0 -167 117.5 -279.5t288.5 -112.5q184 0 293.5 111t109.5 281t-115.5 279.5 t-287.5 109.5q-175 0 -290.5 -109.5t-115.5 -279.5zM397 1339q0 39 29 63.5t70 24.5q34 0 61 -25t27 -63q0 -42 -27 -68t-61 -26q-41 0 -70 25.5t-29 68.5zM762 1339q0 39 28 63.5t66 24.5q37 0 63.5 -24.5t26.5 -63.5q0 -43 -26.5 -68.5t-63.5 -25.5q-39 0 -66.5 25.5 t-27.5 68.5z" />
<glyph unicode="&#xf7;" d="M141 666v143h930v-143h-930zM504 322q0 37 27.5 66.5t74.5 29.5q42 0 71.5 -30t29.5 -66q0 -43 -28.5 -74t-72.5 -31q-47 0 -74.5 30.5t-27.5 74.5zM504 1155q0 38 27.5 68t74.5 30q44 0 72.5 -30.5t28.5 -67.5q0 -42 -28.5 -73t-72.5 -31q-47 0 -74.5 31t-27.5 73z" />
<glyph unicode="&#xf8;" horiz-adv-x="1339" d="M80 537q0 115 43.5 217t120.5 176t187.5 117t238.5 43q217 0 372 -115l113 108l94 -96l-108 -106q116 -141 116 -344q0 -159 -76.5 -286.5t-210.5 -198t-300 -70.5q-200 0 -351 96l-108 -105l-94 97l98 96q-135 151 -135 371zM264 537q0 -136 82 -242l569 555 q-105 76 -245 76q-175 0 -290.5 -109.5t-115.5 -279.5zM449 205q102 -60 221 -60q184 0 293.5 111t109.5 281q0 123 -63 217z" />
<glyph unicode="&#xf9;" horiz-adv-x="1269" d="M154 457v618h174v-583q0 -159 83 -252t238 -93q141 0 216 85.5t75 248.5v594h174v-629q0 -96 -25 -174t-68 -131t-102.5 -88.5t-126.5 -52t-143 -16.5q-223 0 -359 122.5t-136 350.5zM383 1444l102 125l256 -291l-79 -90z" />
<glyph unicode="&#xfa;" horiz-adv-x="1269" d="M154 457v618h174v-583q0 -159 83 -252t238 -93q141 0 216 85.5t75 248.5v594h174v-629q0 -96 -25 -174t-68 -131t-102.5 -88.5t-126.5 -52t-143 -16.5q-223 0 -359 122.5t-136 350.5zM516 1278l258 291l100 -125l-276 -256z" />
<glyph unicode="&#xfb;" horiz-adv-x="1269" d="M154 457v618h174v-583q0 -159 83 -252t238 -93q141 0 216 85.5t75 248.5v594h174v-629q0 -96 -25 -174t-68 -131t-102.5 -88.5t-126.5 -52t-143 -16.5q-223 0 -359 122.5t-136 350.5zM324 1278l309 242h8l305 -242l-78 -98l-231 182l-236 -180z" />
<glyph unicode="&#xfc;" horiz-adv-x="1269" d="M154 457v618h174v-583q0 -159 83 -252t238 -93q141 0 216 85.5t75 248.5v594h174v-629q0 -96 -25 -174t-68 -131t-102.5 -88.5t-126.5 -52t-143 -16.5q-223 0 -359 122.5t-136 350.5zM360 1339q0 39 29 63.5t70 24.5q34 0 61 -25t27 -63q0 -42 -27 -68t-61 -26 q-41 0 -70 25.5t-29 68.5zM725 1339q0 39 28 63.5t66 24.5q37 0 63.5 -24.5t26.5 -63.5q0 -43 -26.5 -68.5t-63.5 -25.5q-39 0 -66.5 25.5t-27.5 68.5z" />
<glyph unicode="&#xfd;" horiz-adv-x="1040" d="M12 1075h211l303 -459l303 459h199l-422 -622v-453h-174v453zM403 1278l259 291l100 -125l-277 -256z" />
<glyph unicode="&#xfe;" horiz-adv-x="1021" d="M172 0v1075h174v-137q16 0 78 1t90 1q93 0 167.5 -21t122 -56t79 -82.5t44.5 -97.5t13 -105q0 -70 -25.5 -134.5t-75.5 -117t-133.5 -84t-189.5 -31.5q-97 0 -170 8v-219h-174zM346 383q71 -8 152 -8q125 0 191.5 57.5t66.5 147.5q0 85 -60 140.5t-186 55.5 q-94 0 -164 -4v-389z" />
<glyph unicode="&#xff;" horiz-adv-x="1040" d="M12 1075h211l303 -459l303 459h199l-422 -622v-453h-174v453zM246 1339q0 39 28.5 63.5t69.5 24.5q34 0 61 -25t27 -63q0 -42 -27 -68t-61 -26q-41 0 -69.5 25.5t-28.5 68.5zM610 1339q0 38 28.5 63t66.5 25q37 0 63.5 -24.5t26.5 -63.5q0 -43 -26.5 -68.5t-63.5 -25.5 q-39 0 -67 26t-28 68z" />
<glyph unicode="&#x2c6;" horiz-adv-x="868" d="M123 1278l309 242h8l305 -242l-77 -98l-232 182l-235 -180z" />
<glyph unicode="&#x2da;" horiz-adv-x="716" d="M123 1337q0 95 67 161.5t166 66.5q100 0 169 -66.5t69 -161.5q0 -93 -68.5 -158t-169.5 -65q-99 0 -166 65t-67 158zM229 1339q0 -56 37 -94.5t92 -38.5t92 38.5t37 94.5t-37 95t-92 39t-92 -39t-37 -95z" />
<glyph unicode="&#x2dc;" horiz-adv-x="905" d="M123 1309q109 123 225 123q32 0 65 -14t55.5 -31.5t53 -31.5t58.5 -14q37 0 66.5 15.5t78.5 56.5l57 -84q-115 -121 -217 -121q-45 0 -116 45t-117 45q-57 0 -142 -65z" />
<glyph unicode="&#x401;" horiz-adv-x="1177" d="M215 0v1434h809v-164h-635v-463h574v-164h-574v-479h655v-164h-829zM285 1665q0 42 32.5 67t79.5 25q42 0 74.5 -25.5t32.5 -66.5q0 -45 -32 -71.5t-75 -26.5q-48 0 -80 26t-32 72zM760 1665q0 41 33.5 66.5t80.5 25.5q42 0 73.5 -25t31.5 -67q0 -45 -31.5 -71.5 t-73.5 -26.5q-48 0 -81 26.5t-33 71.5z" />
<glyph unicode="&#x402;" horiz-adv-x="1560" d="M20 1270v164h1178v-164h-502v-506q154 102 334 102q428 0 428 -448q0 -222 -95 -330t-261 -108q-67 0 -129.5 24.5t-85.5 50.5l59 133q59 -45 135 -45q95 0 149 66t54 205q0 150 -72.5 219t-214.5 69q-51 0 -95.5 -8t-85.5 -26t-61.5 -29t-58.5 -35v-604h-174v1270h-502z " />
<glyph unicode="&#x403;" horiz-adv-x="1034" d="M215 0v1434h799v-164h-625v-1270h-174zM528 1604l400 213l61 -140l-414 -172z" />
<glyph unicode="&#x404;" horiz-adv-x="1386" d="M102 717q0 214 90 381.5t254 261.5t375 94q144 0 267.5 -40t203.5 -109l-80 -131q-147 116 -362 116q-236 0 -387.5 -128.5t-179.5 -348.5h706v-164h-710q23 -238 184 -372t397 -134q213 0 387 131l68 -145q-186 -149 -469 -149q-166 0 -304 52t-235 147t-151 233 t-54 305z" />
<glyph unicode="&#x405;" horiz-adv-x="1124" d="M102 195l101 118q60 -80 159 -125t195 -45q118 0 199.5 60t81.5 164q0 56 -24 100.5t-64.5 76t-93 58t-111 50.5t-116.5 49.5t-110.5 60t-93 76.5t-64.5 103.5t-24 137.5q0 161 117 268t315 107q123 0 228.5 -40.5t167.5 -108.5l-95 -131q-116 116 -290 116 q-119 0 -188.5 -57.5t-69.5 -153.5q0 -56 24 -101t64.5 -75.5t93 -56t110.5 -48.5t116 -48t110.5 -58.5t93 -76t64.5 -105.5t24 -141q0 -115 -62.5 -204.5t-168.5 -137t-236 -47.5q-139 0 -270 59t-183 156z" />
<glyph unicode="&#x406;" horiz-adv-x="686" d="M256 0v1434h174v-1434h-174z" />
<glyph unicode="&#x407;" horiz-adv-x="686" d="M88 1665q0 42 28.5 67t69.5 25q39 0 67 -25.5t28 -66.5q0 -45 -28 -71.5t-67 -26.5q-42 0 -70 26t-28 72zM256 0v1434h174v-1434h-174zM408 1665q0 42 28.5 67t69.5 25q38 0 66 -25.5t28 -66.5q0 -45 -27.5 -71.5t-66.5 -26.5q-42 0 -70 26t-28 72z" />
<glyph unicode="&#x408;" horiz-adv-x="765" d="M20 55l60 133q59 -45 135 -45q88 0 125 55.5t37 155.5v1080h174v-1108q0 -346 -313 -346q-68 0 -128 22.5t-90 52.5z" />
<glyph unicode="&#x409;" horiz-adv-x="2095" d="M51 0l2 174q26 -3 48 1t52.5 25t55.5 59t54 111t52 174t43.5 255.5t34.5 347.5l21 287h858v-533q130 10 190 10q264 0 397.5 -117t133.5 -325q0 -226 -150.5 -349.5t-419.5 -123.5q-66 0 -177 2t-148 2v1270h-520l-25 -271q-15 -168 -36 -305.5t-46 -239t-54.5 -180 t-61.5 -127.5t-68 -83.5t-74 -47.5t-79 -18.5t-83 2.5zM1272 166q165 -6 172 -6q178 0 271 77t93 228q0 137 -92.5 210t-265.5 73q-61 0 -178 -13v-569z" />
<glyph unicode="&#x40a;" horiz-adv-x="2154" d="M215 0v1434h174v-572h768v572h174v-564q143 11 191 11q263 0 396.5 -113.5t133.5 -314.5q0 -216 -150.5 -336.5t-418.5 -120.5q-51 0 -144 2t-129 2h-53v698h-768v-698h-174zM1331 166q165 -6 172 -6q178 0 271.5 73.5t93.5 217.5q0 128 -93 197t-266 69q-70 0 -178 -12 v-539z" />
<glyph unicode="&#x40b;" horiz-adv-x="1560" d="M20 1270v164h1178v-164h-502v-506q144 102 344 102q88 0 161 -25.5t132 -78t92 -143t33 -211.5v-408h-174v362q0 340 -291 340q-147 0 -297 -98v-604h-174v1270h-502z" />
<glyph unicode="&#x40c;" horiz-adv-x="1337" d="M215 0v1434h174v-1434h-174zM424 748l629 686h211l-639 -674l671 -760h-223zM590 1604l399 213l62 -140l-414 -172z" />
<glyph unicode="&#x40e;" horiz-adv-x="1363" d="M31 1434h196l537 -899l393 899h176l-495 -1106q-76 -170 -159 -249t-198 -79q-48 0 -96.5 14t-77.5 37l62 148q53 -37 110 -37q107 0 176 145l25 53zM326 1761h163q49 -133 220 -133q83 0 139.5 34t71.5 99h163q-13 -114 -118.5 -185t-255.5 -71q-158 0 -261 70.5 t-122 185.5z" />
<glyph unicode="&#x40f;" horiz-adv-x="1536" d="M215 0v1434h174v-1270h758v1270h174v-1434h-473v-317h-164v317h-469z" />
<glyph unicode="&#x410;" horiz-adv-x="1443" d="M31 0l616 1442h150l616 -1442h-186l-185 434h-653l-182 -434h-176zM459 598h516l-258 612z" />
<glyph unicode="&#x411;" horiz-adv-x="1253" d="M215 0v1434h811v-164h-637v-412q108 12 219 12q239 0 370.5 -112.5t131.5 -308.5q0 -221 -145 -339t-406 -118q-80 0 -195 4t-149 4zM389 164q126 -8 197 -8q174 0 262 73.5t88 206.5q0 124 -85.5 197.5t-252.5 73.5q-86 0 -209 -13v-530z" />
<glyph unicode="&#x412;" horiz-adv-x="1263" d="M215 2v1430q320 8 393 8q124 0 215.5 -27t144 -76.5t77 -111.5t24.5 -140q0 -128 -67.5 -211.5t-178.5 -119.5v-4q138 -22 217.5 -109t79.5 -231q0 -106 -39 -187t-110 -130.5t-164 -74t-207 -24.5q-217 0 -385 8zM389 166q94 -8 221 -8q161 0 248.5 66t87.5 196 q0 113 -84.5 173t-240.5 60h-232v-487zM389 807h229q119 0 198 63.5t79 176.5q0 112 -74 170.5t-217 58.5q-62 0 -215 -6v-463z" />
<glyph unicode="&#x413;" horiz-adv-x="1034" d="M215 0v1434h799v-164h-625v-1270h-174z" />
<glyph unicode="&#x414;" horiz-adv-x="1533" d="M31 164h153q26 33 58 103.5t69.5 187t67.5 299t41 393.5l14 287h844v-1270h195v-430h-164v266h-1114v-266h-164v430zM377 164h727v1106h-502l-18 -256q-16 -227 -57.5 -421.5t-80 -292t-69.5 -136.5z" />
<glyph unicode="&#x415;" horiz-adv-x="1177" d="M215 0v1434h809v-164h-635v-463h574v-164h-574v-479h655v-164h-829z" />
<glyph unicode="&#x416;" horiz-adv-x="1912" d="M41 0l602 748l-580 686h203l568 -686l-590 -748h-203zM868 0v1434h174v-1434h-174zM1079 748l568 686h202l-579 -684l602 -750h-203z" />
<glyph unicode="&#x417;" horiz-adv-x="1183" d="M82 205l96 117q68 -80 170.5 -129.5t192.5 -49.5q144 0 234.5 72.5t90.5 202.5q0 107 -74 170t-206 63h-166v164h153q94 0 166 69t72 173q0 113 -72.5 173t-187.5 60q-102 0 -180.5 -40t-145.5 -120l-102 115q74 96 191.5 152.5t254.5 56.5q189 0 302.5 -100.5 t113.5 -280.5q0 -96 -53.5 -186t-153.5 -142v-6q126 -24 194 -117t68 -221q0 -96 -39.5 -176.5t-107 -133.5t-155.5 -82t-187 -29q-155 0 -281 65.5t-188 159.5z" />
<glyph unicode="&#x418;" horiz-adv-x="1628" d="M215 0v1434h174v-1147l871 1147h153v-1434h-174v1147l-870 -1147h-154z" />
<glyph unicode="&#x419;" horiz-adv-x="1628" d="M215 0v1434h174v-1147l871 1147h153v-1434h-174v1147l-870 -1147h-154zM444 1761h164q49 -133 219 -133q83 0 139.5 34t71.5 99h164q-13 -114 -119 -185t-256 -71q-158 0 -261 70.5t-122 185.5z" />
<glyph unicode="&#x41a;" horiz-adv-x="1337" d="M215 0v1434h174v-1434h-174zM424 748l629 686h211l-639 -674l671 -760h-223z" />
<glyph unicode="&#x41b;" horiz-adv-x="1486" d="M51 0l2 174q26 -3 48 1t52.5 25t55.5 59t54 111t52 174t43.5 255.5t34.5 347.5l21 287h858v-1434h-174v1270h-520l-25 -271q-15 -168 -36 -305.5t-46 -239t-54.5 -180t-61.5 -127.5t-68 -83.5t-74 -47.5t-79 -18.5t-83 2.5z" />
<glyph unicode="&#x41c;" horiz-adv-x="1826" d="M215 0v1434h176l539 -736l516 736h166v-1434h-174v1159l-508 -713h-27l-514 707v-1153h-174z" />
<glyph unicode="&#x41d;" horiz-adv-x="1566" d="M215 0v1434h174v-621h789v621h174v-1434h-174v649h-789v-649h-174z" />
<glyph unicode="&#x41e;" horiz-adv-x="1667" d="M102 717q0 206 93.5 374.5t261.5 265.5t377 97q154 0 289 -54.5t232.5 -150t153.5 -233.5t56 -299q0 -157 -56 -294.5t-153 -234.5t-232.5 -152.5t-289.5 -55.5q-207 0 -373.5 92.5t-262.5 261.5t-96 383zM287 717q0 -160 72.5 -292t198 -207t276.5 -75q161 0 286 76 t192.5 206.5t67.5 291.5q0 248 -157 410.5t-389 162.5q-154 0 -279 -73t-196.5 -204.5t-71.5 -295.5z" />
<glyph unicode="&#x41f;" horiz-adv-x="1556" d="M215 0v1434h1126v-1434h-174v1270h-778v-1270h-174z" />
<glyph unicode="&#x420;" horiz-adv-x="1222" d="M215 0v1434q39 0 184 2t191 2q119 0 212 -25t152 -67t97 -100.5t53.5 -120.5t15.5 -132q0 -89 -32 -169t-94 -143.5t-162.5 -100.5t-227.5 -37q-119 0 -215 8v-551h-174zM389 717q117 -10 209 -10q158 0 248 76.5t90 211.5q0 132 -82 205.5t-248 73.5q-81 0 -217 -4v-553 z" />
<glyph unicode="&#x421;" horiz-adv-x="1343" d="M102 717q0 207 84 373t248 265t383 99q275 0 436 -139l-79 -131q-142 106 -355 106q-234 0 -383 -159.5t-149 -413.5q0 -256 155 -415t404 -159q210 0 366 127l70 -131q-72 -73 -195.5 -116t-257.5 -43q-213 0 -378 90.5t-257 258.5t-92 388z" />
<glyph unicode="&#x422;" horiz-adv-x="1218" d="M20 1270v164h1178v-164h-502v-1270h-174v1270h-502z" />
<glyph unicode="&#x423;" horiz-adv-x="1363" d="M31 1434h196l537 -899l393 899h176l-495 -1106q-76 -170 -159 -249t-198 -79q-48 0 -96.5 14t-77.5 37l62 148q53 -37 110 -37q107 0 176 145l25 53z" />
<glyph unicode="&#x424;" horiz-adv-x="1708" d="M82 737q0 266 185 415t497 151v147h174v-147q314 -2 501 -152t187 -414q0 -177 -87 -305.5t-240.5 -194t-354.5 -65.5h-6v-188h-174v188h-2q-202 0 -354.5 65t-239 193.5t-86.5 306.5zM266 737q0 -196 133 -300.5t363 -104.5h2v809q-233 0 -365.5 -107.5t-132.5 -296.5z M938 332h4q235 0 367.5 103.5t132.5 301.5q0 190 -132 297t-370 107h-2v-809z" />
<glyph unicode="&#x425;" horiz-adv-x="1359" d="M41 0l526 729l-504 705h205l416 -574l410 574h206l-507 -705l526 -729h-207l-434 596l-432 -596h-205z" />
<glyph unicode="&#x426;" horiz-adv-x="1587" d="M215 0v1434h174v-1270h768v1270h174v-1270h195v-430h-164v266h-1147z" />
<glyph unicode="&#x427;" horiz-adv-x="1331" d="M133 973v461h174v-414q0 -177 81 -258.5t220 -81.5q173 0 334 108v646h174v-1434h-174v627q-64 -46 -164 -78.5t-215 -32.5q-89 0 -163.5 25t-136 77.5t-96 143t-34.5 211.5z" />
<glyph unicode="&#x428;" horiz-adv-x="2037" d="M215 0v1434h174v-1270h543v1270h174v-1270h543v1270h174v-1434h-1608z" />
<glyph unicode="&#x429;" horiz-adv-x="2078" d="M215 0v1434h174v-1270h543v1270h174v-1270h543v1270h174v-1270h194v-430h-164v266h-1638z" />
<glyph unicode="&#x42a;" horiz-adv-x="1370" d="M10 1270v164h516v-533q130 10 201 10q271 0 406 -116.5t135 -325.5q0 -225 -152 -349t-428 -124q-66 0 -182.5 2t-153.5 2v1270h-342zM526 166q165 -6 183 -6q180 0 277 76t97 229q0 138 -96.5 210.5t-271.5 72.5q-72 0 -189 -13v-569z" />
<glyph unicode="&#x42b;" horiz-adv-x="1730" d="M215 0v1434h174v-533q130 10 191 10q263 0 396.5 -117t133.5 -325q0 -225 -150.5 -349t-418.5 -124q-66 0 -177.5 2t-148.5 2zM389 166q165 -6 172 -6q178 0 271.5 77t93.5 228q0 137 -93 210t-266 73q-61 0 -178 -13v-569zM1341 0v1434h175v-1434h-175z" />
<glyph unicode="&#x42c;" horiz-adv-x="1232" d="M215 0v1434h174v-533q130 10 201 10q271 0 405.5 -116.5t134.5 -325.5q0 -226 -151.5 -349.5t-427.5 -123.5q-66 0 -182.5 2t-153.5 2zM389 166q165 -6 182 -6q181 0 278 76t97 229q0 138 -96.5 210.5t-271.5 72.5q-72 0 -189 -13v-569z" />
<glyph unicode="&#x42d;" horiz-adv-x="1386" d="M72 129l75 145q174 -131 398 -131q230 0 384 136t177 370h-711v164h709q-28 223 -183.5 350t-396.5 127q-212 0 -362 -116l-68 131q78 69 202.5 109t268.5 40q322 0 520.5 -200.5t198.5 -532.5q0 -217 -89.5 -385t-257 -262t-388.5 -94q-141 0 -265.5 39.5t-211.5 109.5z " />
<glyph unicode="&#x42e;" horiz-adv-x="2207" d="M215 0v1434h174v-621h309q15 138 72.5 256t147 203t213 133.5t264.5 48.5q206 0 367.5 -92.5t252 -261t90.5 -383.5q0 -211 -90 -379t-252.5 -263t-367.5 -95q-284 0 -480.5 186t-218.5 483h-307v-649h-174zM879 717q0 -245 149 -409.5t371 -164.5q161 0 281 76.5 t180.5 205.5t60.5 292q0 251 -145.5 412t-376.5 161q-226 0 -373 -161.5t-147 -411.5z" />
<glyph unicode="&#x42f;" horiz-adv-x="1275" d="M51 0l398 563q-121 48 -202 153t-81 249q0 99 33.5 183.5t100 150.5t175.5 103.5t250 37.5q49 0 172 -3t164 -3v-1434h-174v532h-269l-370 -532h-197zM350 975q0 -109 74 -186t174 -93h289v574q-141 6 -195 6q-162 0 -252 -84.5t-90 -216.5z" />
<glyph unicode="&#x430;" horiz-adv-x="1208" d="M25 0l503 1081h152l504 -1081h-187l-131 287h-534l-131 -287h-176zM406 451h387l-193 421z" />
<glyph unicode="&#x431;" horiz-adv-x="1067" d="M172 0v1075h711v-164h-537v-256q77 9 189 9q201 0 309 -83.5t108 -238.5q0 -175 -117.5 -262.5t-336.5 -87.5q-72 0 -185 4t-141 4zM346 162q153 -6 170 -6q262 0 262 178q0 168 -262 168q-94 0 -170 -8v-332z" />
<glyph unicode="&#x432;" horiz-adv-x="1073" d="M172 2v1071q264 8 363 8q200 0 292.5 -73t92.5 -193q0 -94 -54.5 -160.5t-144.5 -91.5v-2q115 -15 176 -77.5t61 -170.5q0 -159 -119 -239t-315 -80q-212 0 -352 8zM346 166q66 -8 191 -8q247 0 247 161q0 72 -61.5 110t-175.5 38h-201v-301zM346 621h197 q87 0 144.5 39.5t57.5 109.5q0 148 -213 148q-49 0 -186 -7v-290z" />
<glyph unicode="&#x433;" horiz-adv-x="874" d="M172 0v1075h682v-164h-508v-911h-174z" />
<glyph unicode="&#x434;" horiz-adv-x="1271" d="M23 164h129q21 24 47 76t55 135.5t52.5 211.5t31.5 273l12 215h715v-911h160v-359h-164v195h-875v-195h-163v359zM342 164h549v747h-373l-16 -170q-19 -226 -68.5 -378.5t-91.5 -198.5z" />
<glyph unicode="&#x435;" horiz-adv-x="999" d="M172 0v1075h696v-164h-522v-286h471v-164h-471v-297h539v-164h-713z" />
<glyph unicode="&#x436;" horiz-adv-x="1605" d="M31 0l475 561l-457 514h213l440 -514l-458 -561h-213zM717 0v1075h174v-1075h-174zM905 561l438 514h213l-456 -510l473 -565h-211z" />
<glyph unicode="&#x437;" horiz-adv-x="1013" d="M63 160l97 116q57 -60 141.5 -95.5t177.5 -35.5q117 0 181.5 45t64.5 125q0 70 -55 110t-166 40h-160v164h152q73 0 127.5 42.5t54.5 106.5q0 72 -52 110t-141 38q-181 0 -286 -117l-101 117q61 75 163 119.5t228 44.5q161 0 262 -77.5t101 -215.5q0 -77 -40 -142.5 t-114 -95.5v-6q96 -17 148.5 -87.5t52.5 -166.5q0 -147 -116 -232t-304 -85q-140 0 -252.5 53.5t-163.5 124.5z" />
<glyph unicode="&#x438;" horiz-adv-x="1343" d="M172 0v1075h174v-799l672 799h153v-1075h-174v799l-671 -799h-154z" />
<glyph unicode="&#x439;" horiz-adv-x="1343" d="M172 0v1075h174v-799l672 799h153v-1075h-174v799l-671 -799h-154zM358 1393h154q0 -66 41.5 -99.5t116.5 -33.5q70 0 109.5 33.5t39.5 99.5h154q0 -120 -82 -188t-221 -68q-151 0 -231.5 67t-80.5 189z" />
<glyph unicode="&#x43a;" horiz-adv-x="1134" d="M172 0v1075h174v-1075h-174zM360 561l490 514h227l-504 -502l531 -573h-238z" />
<glyph unicode="&#x43b;" horiz-adv-x="1230" d="M39 0l4 168q22 -2 40.5 0.5t42.5 17.5t44.5 42.5t43 79.5t40 124.5t34 181.5t27.5 246l17 215h727v-1075h-174v911h-393l-21 -202q-18 -187 -49.5 -321.5t-69 -213t-89.5 -121t-104 -52.5t-120 -1z" />
<glyph unicode="&#x43c;" horiz-adv-x="1515" d="M172 0v1075h176l424 -514l406 514h165v-1075h-174v811l-397 -492h-24l-402 486v-805h-174z" />
<glyph unicode="&#x43d;" horiz-adv-x="1310" d="M172 0v1075h174v-444h619v444h174v-1075h-174v467h-619v-467h-174z" />
<glyph unicode="&#x43e;" horiz-adv-x="1341" d="M82 537q0 115 43.5 217t120.5 176t187.5 117t238.5 43q167 0 300.5 -68.5t210.5 -195t77 -289.5q0 -159 -76.5 -286.5t-211 -198t-300.5 -70.5q-168 0 -302 68.5t-211 195.5t-77 291zM266 537q0 -167 117.5 -279.5t288.5 -112.5q184 0 293.5 111t109.5 281t-115.5 279.5 t-287.5 109.5q-175 0 -290.5 -109.5t-115.5 -279.5z" />
<glyph unicode="&#x43f;" horiz-adv-x="1308" d="M172 0v1075h965v-1075h-174v911h-617v-911h-174z" />
<glyph unicode="&#x440;" horiz-adv-x="1021" d="M172 0v1075q32 0 157 2t165 2q100 0 177.5 -19.5t127.5 -52t82.5 -79.5t45.5 -97.5t13 -109.5q0 -157 -111.5 -260t-316.5 -103q-70 0 -166 7v-365h-174zM346 530q106 -8 160 -8q119 0 184.5 53t65.5 146q0 92 -60 143t-186 51q-74 0 -164 -4v-381z" />
<glyph unicode="&#x441;" horiz-adv-x="1110" d="M82 537q0 113 38.5 212.5t111 176t185.5 120.5t253 44q221 0 360 -107l-80 -131q-125 74 -280 74q-180 0 -292 -106t-112 -283q0 -176 117 -284t311 -108q167 0 291 88l68 -131q-57 -55 -159.5 -87.5t-215.5 -32.5q-269 0 -432.5 151.5t-163.5 403.5z" />
<glyph unicode="&#x442;" horiz-adv-x="1007" d="M16 911v164h975v-164h-401v-911h-174v911h-400z" />
<glyph unicode="&#x443;" horiz-adv-x="1118" d="M23 1075h217l387 -606l293 606h178l-404 -821q-64 -129 -137 -191.5t-174 -62.5q-86 0 -141 41l61 147q45 -26 88 -26t71.5 26.5t53.5 71.5l21 37z" />
<glyph unicode="&#x444;" horiz-adv-x="1413" d="M63 553q0 206 150.5 322.5t402.5 119.5v92h175v-92q256 -2 407.5 -116.5t151.5 -325.5q0 -207 -152.5 -324.5t-404.5 -117.5h-2v-123h-175v123q-252 0 -402.5 116.5t-150.5 325.5zM248 553q0 -130 98.5 -207.5t269.5 -77.5v568q-173 -1 -270.5 -81t-97.5 -202zM791 268 q177 0 275.5 76.5t98.5 208.5q0 123 -98.5 202.5t-275.5 80.5v-568z" />
<glyph unicode="&#x445;" horiz-adv-x="1126" d="M25 0l424 547l-406 528h217l305 -397l303 397h215l-407 -528l424 -547h-215l-324 414l-319 -414h-217z" />
<glyph unicode="&#x446;" horiz-adv-x="1327" d="M172 0v1075h174v-911h598v911h174v-911h162v-359h-164v195h-944z" />
<glyph unicode="&#x447;" horiz-adv-x="1122" d="M111 715v360h174v-299q0 -123 61 -181t168 -58q151 0 262 71v467h174v-1075h-174v449q-49 -32 -127.5 -54t-171.5 -22q-72 0 -134.5 18.5t-116 57t-84.5 107t-31 159.5z" />
<glyph unicode="&#x448;" horiz-adv-x="1683" d="M172 0v1075h174v-911h408v911h174v-911h409v911h174v-1075h-1339z" />
<glyph unicode="&#x449;" horiz-adv-x="1720" d="M172 0v1075h174v-911h408v911h174v-911h409v911h174v-911h162v-359h-164v195h-1337z" />
<glyph unicode="&#x44a;" horiz-adv-x="1132" d="M10 911v164h445v-375q103 7 151 7q224 0 335.5 -91t111.5 -254q0 -171 -127.5 -268.5t-356.5 -97.5q-59 0 -158.5 2t-129.5 2v911h-271zM455 164q86 -4 145 -4q127 0 197.5 49t70.5 149q0 91 -70.5 138t-203.5 47q-60 0 -139 -6v-373z" />
<glyph unicode="&#x44b;" horiz-adv-x="1445" d="M172 0v1075h174v-375q100 7 146 7q216 0 325 -91t109 -254q0 -171 -125.5 -268.5t-347.5 -97.5q-57 0 -154 2t-127 2zM346 164q82 -4 127 -4q268 0 268 198q0 90 -68 137.5t-196 47.5q-52 0 -131 -6v-373zM1100 0v1075h174v-1075h-174z" />
<glyph unicode="&#x44c;" horiz-adv-x="1024" d="M172 0v1075h174v-375q100 7 152 7q223 0 334.5 -91t111.5 -254q0 -171 -128 -268.5t-357 -97.5q-57 0 -156.5 2t-130.5 2zM346 164q82 -4 133 -4q134 0 207.5 49t73.5 149q0 91 -71 138t-206 47q-58 0 -137 -6v-373z" />
<glyph unicode="&#x44d;" horiz-adv-x="1140" d="M53 96l76 146q138 -95 340 -95q170 0 280.5 83t131.5 237h-559v164h557q-28 143 -136.5 220t-283.5 77q-202 0 -322 -84l-69 131q68 52 172.5 84.5t226.5 32.5q263 0 428.5 -151.5t165.5 -401.5q0 -251 -166.5 -403t-445.5 -152q-120 0 -224.5 30t-171.5 82z" />
<glyph unicode="&#x44e;" horiz-adv-x="1783" d="M172 0v1075h174v-444h229q28 203 177.5 332t377.5 129q260 0 416 -151.5t156 -401.5q0 -245 -156.5 -400t-415.5 -155q-227 0 -380.5 132t-176.5 351h-227v-467h-174zM754 539q0 -169 106.5 -280.5t274.5 -111.5q177 0 280 110.5t103 281.5q0 173 -105.5 281t-277.5 108 q-167 0 -274 -108.5t-107 -280.5z" />
<glyph unicode="&#x44f;" horiz-adv-x="1093" d="M37 0l305 403q-92 42 -151.5 120t-59.5 184q0 77 27.5 143t82 118.5t145 82.5t208.5 30q66 0 182.5 -3t145.5 -3v-1075h-174v369h-230l-274 -369h-207zM315 717q0 -71 55.5 -122.5t131.5 -62.5h246v379q-123 7 -170 7q-127 0 -195 -56t-68 -145z" />
<glyph unicode="&#x451;" horiz-adv-x="999" d="M172 0v1075h696v-164h-522v-286h471v-164h-471v-297h539v-164h-713zM244 1339q0 39 28.5 63.5t69.5 24.5q34 0 61 -25t27 -63q0 -42 -27 -68t-61 -26q-41 0 -69.5 25.5t-28.5 68.5zM608 1339q0 39 28 63.5t66 24.5q37 0 64 -25t27 -63q0 -42 -27 -68t-64 -26 q-39 0 -66.5 25.5t-27.5 68.5z" />
<glyph unicode="&#x452;" horiz-adv-x="1290" d="M16 911v164h975v-164h-401v-317q44 20 72.5 31.5t82 22.5t111.5 11q160 0 256 -80.5t96 -254.5q0 -172 -79 -256t-218 -84q-60 0 -113.5 20t-74.5 43l57 133q50 -33 109 -33q145 0 145 168q0 181 -211 181q-18 0 -35 -1t-33.5 -4.5t-28.5 -6t-28 -8.5t-24.5 -8.5 t-24 -10.5t-20 -10.5t-21 -11t-18.5 -9.5v-426h-174v911h-400z" />
<glyph unicode="&#x453;" horiz-adv-x="874" d="M172 0v1075h682v-164h-508v-911h-174zM383 1278l258 291l100 -125l-276 -256z" />
<glyph unicode="&#x454;" horiz-adv-x="1142" d="M82 539q0 246 165.5 399.5t428.5 153.5q123 0 226.5 -32.5t170.5 -84.5l-78 -131q-59 42 -145 63t-168 21q-186 0 -291 -78t-129 -223h559v-164h-561q24 -154 142.5 -235t295.5 -81q184 0 326 95l66 -146q-67 -52 -169 -82t-221 -30q-281 0 -449.5 150t-168.5 405z" />
<glyph unicode="&#x455;" horiz-adv-x="993" d="M70 152l100 118q56 -55 152.5 -90t195.5 -35q87 0 148 39t61 109q0 40 -26.5 71t-70 50.5t-99 39.5t-113.5 37t-113.5 44t-99 59.5t-70 84.5t-26.5 118q0 129 101.5 211t305.5 82q98 0 209.5 -40t165.5 -98l-80 -129q-57 46 -144 74.5t-159 28.5q-100 0 -157.5 -37 t-57.5 -101q0 -38 26.5 -67t70 -47.5t99 -37.5t113.5 -36t113.5 -44.5t99 -61t70 -88t26.5 -123.5q0 -135 -114.5 -218t-288.5 -83q-134 0 -256.5 46.5t-181.5 123.5z" />
<glyph unicode="&#x456;" horiz-adv-x="575" d="M201 0v1075h174v-1075h-174z" />
<glyph unicode="&#x457;" horiz-adv-x="608" d="M78 1337q0 38 25.5 62t62.5 24q32 0 57 -24.5t25 -61.5q0 -40 -25 -65t-57 -25q-38 0 -63 25t-25 65zM217 0v1075h174v-1075h-174zM362 1337q0 37 26.5 61.5t64.5 24.5q32 0 57 -24.5t25 -61.5q0 -40 -25 -65t-57 -25q-38 0 -64.5 25t-26.5 65z" />
<glyph unicode="&#x458;" horiz-adv-x="645" d="M12 47l60 133q50 -33 106 -33q121 0 121 134v794h174v-823q0 -268 -270 -268q-60 0 -113 19t-78 44z" />
<glyph unicode="&#x459;" horiz-adv-x="1718" d="M39 0l4 174q22 -3 40 -0.5t42.5 17t45 41.5t43 78.5t40 123t34 180.5t27.5 246l17 215h727v-375q100 7 143 7q216 0 325 -91t109 -254q0 -172 -124.5 -269t-348.5 -97q-58 0 -153.5 2t-124.5 2v911h-389l-23 -202q-21 -188 -52.5 -321.5t-69.5 -212.5t-89.5 -121.5 t-103 -52.5t-119.5 -1zM1059 164q78 -4 125 -4q268 0 268 198q0 90 -68 137.5t-196 47.5q-52 0 -129 -6v-373z" />
<glyph unicode="&#x45a;" horiz-adv-x="1781" d="M172 0v1075h174v-409h602v409h174v-401q85 6 144 6q216 0 326 -88t110 -242q0 -164 -126 -259t-347 -95q-58 0 -155 2t-126 2v502h-602v-502h-174zM1122 164q82 -4 127 -4q131 0 200 47.5t69 138.5q0 82 -69.5 127t-195.5 45q-60 0 -131 -8v-346z" />
<glyph unicode="&#x45b;" horiz-adv-x="1290" d="M16 911v164h975v-164h-401v-329q107 67 270 67q57 0 106.5 -11t94.5 -36.5t77 -64.5t51 -98t19 -134v-305h-174v258q0 227 -213 227q-132 0 -231 -63v-422h-174v911h-400z" />
<glyph unicode="&#x45c;" horiz-adv-x="1134" d="M172 0v1075h174v-1075h-174zM360 561l490 514h227l-504 -502l531 -573h-238zM444 1278l258 291l101 -125l-277 -256z" />
<glyph unicode="&#x45e;" horiz-adv-x="1118" d="M23 1075h217l387 -606l293 606h178l-404 -821q-64 -129 -137 -191.5t-174 -62.5q-86 0 -141 41l61 147q45 -26 88 -26t71.5 26.5t53.5 71.5l21 37zM262 1393h154q0 -66 41 -99.5t116 -33.5q70 0 110 33.5t40 99.5h154q0 -120 -82 -188t-222 -68q-151 0 -231 67t-80 189z " />
<glyph unicode="&#x45f;" horiz-adv-x="1292" d="M172 0v1075h174v-911h600v911h174v-1075h-393v-236h-164v236h-391z" />
<glyph unicode="&#x462;" horiz-adv-x="1308" d="M20 1065v164h271v205h174v-205h321v-164h-321v-205q130 10 201 10q540 0 540 -421q0 -223 -150 -338t-429 -115q-66 0 -182.5 2t-153.5 2v1065h-271zM465 166q165 -6 182 -6q184 0 279.5 67t95.5 217q0 263 -369 263q-71 0 -188 -13v-528z" />
<glyph unicode="&#x463;" horiz-adv-x="1054" d="M10 793v143h193v139h174v-139h266v-143h-266v-134q100 7 151 7q447 0 447 -324q0 -169 -127 -257.5t-359 -88.5q-57 0 -156 2t-130 2v793h-193zM377 154q82 -4 133 -4q281 0 281 188q0 174 -277 174q-58 0 -137 -6v-352z" />
<glyph unicode="&#x472;" horiz-adv-x="1667" d="M102 717q0 206 93.5 374.5t261.5 265.5t377 97q154 0 289 -54.5t232.5 -150t153.5 -233.5t56 -299q0 -157 -56 -294.5t-153 -234.5t-232.5 -152.5t-289.5 -55.5q-207 0 -373.5 92.5t-262.5 261.5t-96 383zM289 776q70 49 149.5 79t151.5 30q60 0 116.5 -17t102 -41.5 t90 -49t99 -41.5t110.5 -17q65 0 139.5 32.5t122.5 75.5q-35 205 -184 334t-352 129q-220 0 -372.5 -143.5t-172.5 -370.5zM297 604q35 -202 185 -331.5t352 -129.5q228 0 376 146t166 373q-64 -42 -139 -69.5t-141 -27.5q-72 0 -142 26t-118 57t-115 57t-133 26 q-76 0 -156 -38.5t-135 -88.5z" />
<glyph unicode="&#x473;" horiz-adv-x="1341" d="M82 537q0 115 43.5 217t120.5 176t187.5 117t238.5 43q167 0 300.5 -68.5t210.5 -195t77 -289.5q0 -159 -76.5 -286.5t-211 -198t-300.5 -70.5q-168 0 -302 68.5t-211 195.5t-77 291zM270 469q25 -142 137 -233t265 -91q152 0 255.5 78.5t135.5 206.5q-80 -57 -170 -57 q-48 0 -97.5 18t-90.5 44t-80.5 52t-83 44t-82.5 18q-100 0 -189 -80zM279 641q88 61 182 61q62 0 126 -27.5t109 -60.5t103 -60.5t108 -27.5q87 0 164 68q-22 149 -132.5 240.5t-266.5 91.5q-146 0 -252.5 -78t-140.5 -207z" />
<glyph unicode="&#x474;" horiz-adv-x="1349" d="M10 1434h187l487 -1178l303 874q30 88 59 146.5t62.5 98.5t75 56.5t91.5 16t116 -17.5l-27 -154q-32 12 -57 13t-46.5 -10.5t-38 -29t-34.5 -53t-32.5 -71t-35.5 -93.5l-377 -1040h-129z" />
<glyph unicode="&#x475;" horiz-adv-x="1107" d="M2 1075h197l368 -839l221 593q64 172 142.5 226t218.5 18v-141q-72 21 -122.5 -21.5t-94.5 -154.5l-305 -760h-131z" />
<glyph unicode="&#x490;" horiz-adv-x="1034" d="M215 0v1434h635v256h164v-420h-625v-1270h-174z" />
<glyph unicode="&#x491;" horiz-adv-x="884" d="M172 0v1075h528v185h164v-349h-518v-911h-174z" />
<glyph unicode="&#x2000;" horiz-adv-x="909" />
<glyph unicode="&#x2001;" horiz-adv-x="1819" />
<glyph unicode="&#x2002;" horiz-adv-x="909" />
<glyph unicode="&#x2003;" horiz-adv-x="1819" />
<glyph unicode="&#x2004;" horiz-adv-x="606" />
<glyph unicode="&#x2005;" horiz-adv-x="454" />
<glyph unicode="&#x2006;" horiz-adv-x="303" />
<glyph unicode="&#x2007;" horiz-adv-x="303" />
<glyph unicode="&#x2008;" horiz-adv-x="227" />
<glyph unicode="&#x2009;" horiz-adv-x="363" />
<glyph unicode="&#x200a;" horiz-adv-x="101" />
<glyph unicode="&#x2010;" horiz-adv-x="796" d="M154 481v154h489v-154h-489z" />
<glyph unicode="&#x2011;" horiz-adv-x="796" d="M154 481v154h489v-154h-489z" />
<glyph unicode="&#x2012;" horiz-adv-x="1216" d="M184 653v144h848v-144h-848z" />
<glyph unicode="&#x2013;" horiz-adv-x="1216" d="M184 481v144h848v-144h-848z" />
<glyph unicode="&#x2014;" horiz-adv-x="1646" d="M184 481v144h1278v-144h-1278z" />
<glyph unicode="&#x2015;" horiz-adv-x="1646" d="M184 481v144h1278v-144h-1278z" />
<glyph unicode="&#x2018;" horiz-adv-x="489" d="M133 1214q0 113 50 190t124 118l76 -74q-46 -32 -71 -84t-25 -113q0 -78 43 -121l-137 -83q-60 67 -60 167z" />
<glyph unicode="&#x2019;" horiz-adv-x="489" d="M106 1114q47 33 72 85.5t25 113.5q0 78 -43 121l137 82q27 -28 43 -73.5t16 -94.5q0 -111 -50.5 -188t-123.5 -118z" />
<glyph unicode="&#x201a;" horiz-adv-x="489" d="M106 -248q47 33 72 85.5t25 113.5q0 78 -43 121l137 82q27 -28 43 -73.5t16 -94.5q0 -111 -50 -187.5t-124 -117.5z" />
<glyph unicode="&#x201c;" horiz-adv-x="786" d="M133 1214q0 113 50 190t124 118l76 -74q-46 -32 -71 -84t-25 -113q0 -78 43 -121l-137 -83q-60 67 -60 167zM430 1214q0 113 50 190t124 118l76 -74q-46 -32 -71 -84t-25 -113q0 -78 43 -121l-138 -83q-59 66 -59 167z" />
<glyph unicode="&#x201d;" horiz-adv-x="786" d="M106 1114q47 33 72 85.5t25 113.5q0 78 -43 121l137 82q27 -28 43 -73.5t16 -94.5q0 -111 -50.5 -188t-123.5 -118zM403 1114q47 33 72 85.5t25 113.5q0 78 -43 121l137 82q27 -28 43 -73.5t16 -94.5q0 -111 -50.5 -188t-123.5 -118z" />
<glyph unicode="&#x201e;" horiz-adv-x="786" d="M106 -248q47 33 72 85.5t25 113.5q0 78 -43 121l137 82q27 -28 43 -73.5t16 -94.5q0 -111 -50 -187.5t-124 -117.5zM403 -248q47 33 72 85.5t25 113.5q0 78 -43 121l137 82q27 -28 43 -73.5t16 -94.5q0 -111 -50 -187.5t-124 -117.5z" />
<glyph unicode="&#x2020;" horiz-adv-x="940" d="M82 840v143h311v451h154v-451h311v-143h-311v-1045h-154v1045h-311z" />
<glyph unicode="&#x2021;" horiz-adv-x="940" d="M82 307v144h311v389h-311v143h311v451h154v-451h311v-143h-311v-389h311v-144h-311v-512h-154v512h-311z" />
<glyph unicode="&#x2022;" horiz-adv-x="471" d="M61 539q0 71 51 122.5t121 51.5q72 0 124.5 -51.5t52.5 -122.5t-52.5 -122.5t-124.5 -51.5q-70 0 -121 51.5t-51 122.5z" />
<glyph unicode="&#x2026;" horiz-adv-x="1740" d="M143 111q0 42 32.5 75t84.5 33q46 0 77.5 -33.5t31.5 -74.5q0 -47 -31.5 -82t-77.5 -35q-52 0 -84.5 34.5t-32.5 82.5zM758 111q0 42 32 75t84 33q46 0 77.5 -33.5t31.5 -74.5q0 -47 -31.5 -82t-77.5 -35q-52 0 -84 34.5t-32 82.5zM1372 111q0 42 32.5 75t84.5 33 q46 0 77 -33t31 -75q0 -47 -31 -82t-77 -35q-52 0 -84.5 34.5t-32.5 82.5z" />
<glyph unicode="&#x202f;" horiz-adv-x="363" />
<glyph unicode="&#x2030;" horiz-adv-x="2662" d="M92 1100q0 154 106 250t269 96t269 -96t106 -250t-106 -251t-269 -97t-269 97t-106 251zM246 1100q0 -95 65 -155t156 -60q93 0 157 59.5t64 155.5q0 94 -64.5 153.5t-156.5 59.5q-93 0 -157 -59t-64 -154zM326 47l1052 1407l95 -70l-1051 -1404zM954 336q0 154 106 250 t269 96t269 -96t106 -250t-106 -251t-269 -97t-269 97t-106 251zM1108 336q0 -95 65 -155t156 -60q93 0 157 59.5t64 155.5q0 94 -64.5 153.5t-156.5 59.5q-93 0 -157 -59t-64 -154zM1821 336q0 154 105.5 250t268.5 96t269 -96t106 -250t-106 -251t-269 -97t-268.5 97 t-105.5 251zM1974 336q0 -95 65 -155t156 -60q93 0 157.5 59.5t64.5 155.5q0 94 -65 153.5t-157 59.5q-93 0 -157 -59t-64 -154z" />
<glyph unicode="&#x2039;" horiz-adv-x="696" d="M92 508v8l385 442l107 -94l-303 -352l301 -354l-111 -97z" />
<glyph unicode="&#x203a;" horiz-adv-x="696" d="M113 864l106 94l385 -442v-8l-379 -447l-110 97l301 354z" />
<glyph unicode="&#x2044;" horiz-adv-x="409" d="M-369 47l1053 1407l94 -70l-1050 -1404z" />
<glyph unicode="&#x205f;" horiz-adv-x="454" />
<glyph unicode="&#x20ac;" d="M37 840l53 133h152q66 218 240 349.5t423 131.5q75 0 152.5 -17t124.5 -42l-64 -150q-92 45 -213 45q-161 0 -286 -84t-185 -233h613l-50 -133h-598q-10 -65 -10 -123q0 -49 6 -92h545l-43 -133h-471q59 -162 194 -255.5t314 -93.5q127 0 196 37l29 -157 q-35 -19 -102.5 -31t-136.5 -12q-257 0 -441.5 137t-247.5 375h-192l51 133h119q-4 58 -4 92q0 68 8 123h-176z" />
<glyph unicode="&#x2122;" horiz-adv-x="1734" d="M31 1284v150h651v-150h-250v-496h-153v496h-248zM778 788v646h142l272 -287l258 287h135v-646h-153v449l-244 -270h-4l-250 270v-449h-156z" />
<glyph unicode="&#xe000;" horiz-adv-x="1075" d="M0 0v1075h1075v-1075h-1075z" />
</font>
</defs>
</svg>
