<?xml version="1.0" standalone="no"?>
<!DOCTYPE svg PUBLIC "-//W3C//DTD SVG 1.1//EN" "http://www.w3.org/Graphics/SVG/1.1/DTD/svg11.dtd" >
<svg xmlns="http://www.w3.org/2000/svg">
<metadata></metadata>
<defs>
<font id="circe_boldregular" horiz-adv-x="1220" >
<font-face units-per-em="2048" ascent="1583" descent="-465" />
<missing-glyph horiz-adv-x="434" />
<glyph horiz-adv-x="2048" />
<glyph horiz-adv-x="2048" />
<glyph unicode="&#xd;" horiz-adv-x="2048" />
<glyph unicode=" "  horiz-adv-x="434" />
<glyph unicode="&#x09;" horiz-adv-x="434" />
<glyph unicode="&#xa0;" horiz-adv-x="434" />
<glyph unicode="!" horiz-adv-x="634" d="M160 154q0 58 45.5 104.5t118.5 46.5q63 0 106 -47t43 -104q0 -65 -42.5 -114.5t-106.5 -49.5q-73 0 -118.5 49t-45.5 115zM193 496v938h249v-938h-249z" />
<glyph unicode="&#x22;" horiz-adv-x="884" d="M137 940v494h236v-494h-236zM510 940v494h235v-494h-235z" />
<glyph unicode="#" horiz-adv-x="1482" d="M82 369v204h235l107 287h-342v205h420l145 391l182 -65l-120 -326h309l145 391l183 -63l-121 -328h176v-205h-252l-107 -287h359v-204h-434l-144 -392l-182 66l121 326h-313l-146 -392l-182 64l121 328h-160zM524 573h314l104 287h-311z" />
<glyph unicode="$" d="M150 203l143 172q60 -78 151 -120t179 -42q90 0 141 43.5t51 124.5q0 50 -28 91t-73.5 68.5t-104 57t-119 54.5t-119 63t-104 82t-73.5 112t-28 152q0 137 92 243.5t246 139.5v174h235v-170q194 -31 299 -145l-135 -189q-56 55 -114 81t-140 26q-106 0 -161.5 -42.5 t-55.5 -115.5q0 -60 36 -105.5t93 -76.5t126 -59.5t138.5 -64.5t126.5 -82t93 -120.5t36 -171.5q0 -151 -93.5 -256.5t-248.5 -136.5v-195h-235v193q-121 20 -218 75.5t-136 139.5z" />
<glyph unicode="%" horiz-adv-x="1865" d="M76 1087q0 164 113 264.5t290 100.5t290.5 -100.5t113.5 -264.5q0 -163 -114 -264.5t-290 -101.5t-289.5 101.5t-113.5 264.5zM297 1087q0 -80 52.5 -128t129.5 -48q81 0 133 48t52 128q0 78 -53 126.5t-132 48.5q-78 0 -130 -48.5t-52 -126.5zM348 72l1034 1384 l134 -100l-1033 -1379zM981 346q0 164 113 264.5t290 100.5t290.5 -100.5t113.5 -264.5q0 -163 -114 -264.5t-290 -101.5t-289.5 101.5t-113.5 264.5zM1202 346q0 -80 52.5 -128t129.5 -48q81 0 133 48t52 128q0 78 -52.5 126t-132.5 48q-78 0 -130 -48t-52 -126z" />
<glyph unicode="&#x26;" horiz-adv-x="1542" d="M123 389q0 70 17.5 131.5t44 107t71.5 91.5t84.5 77.5t99.5 73.5q-76 37 -120 107t-44 168q0 141 100 226t240 85t240 -85t100 -226q0 -94 -54 -173t-130 -104l279 -362q96 188 96 416h233q0 -169 -50 -328t-138 -277l248 -317h-293l-121 150q-157 -173 -422 -173 q-216 0 -348.5 115.5t-132.5 296.5zM389 436q0 -94 64.5 -158.5t158.5 -64.5q182 0 273 125l-291 397q-109 -89 -157 -155t-48 -144zM496 1145q0 -48 34.5 -83.5t85.5 -35.5t86 35.5t35 83.5q0 51 -35.5 86t-85.5 35q-51 0 -85.5 -34.5t-34.5 -86.5z" />
<glyph unicode="'" horiz-adv-x="512" d="M137 940v494h236v-494h-236z" />
<glyph unicode="(" horiz-adv-x="645" d="M82 461q0 242 96.5 461t319.5 421l145 -129q-168 -167 -247 -348t-79 -405q0 -219 89 -417.5t239 -336.5l-149 -129q-414 357 -414 883z" />
<glyph unicode=")" horiz-adv-x="645" d="M0 -293q150 138 239 336.5t89 417.5q0 224 -79 405t-247 348l145 129q223 -202 319.5 -421t96.5 -461q0 -527 -413 -883z" />
<glyph unicode="*" horiz-adv-x="1105" d="M113 829q0 62 43.5 107t103.5 45q63 0 107.5 -45t44.5 -107q0 -60 -44.5 -102.5t-107.5 -42.5q-60 0 -103.5 42.5t-43.5 102.5zM113 1163q0 60 43.5 105t103.5 45q62 0 107 -44.5t45 -105.5t-44.5 -104t-107.5 -43q-60 0 -103.5 43t-43.5 104zM403 680q0 62 43.5 106.5 t104.5 44.5q60 0 103.5 -44.5t43.5 -106.5q0 -60 -43.5 -102.5t-103.5 -42.5q-61 0 -104.5 42.5t-43.5 102.5zM408 1307q0 61 43 104t106 43q60 0 104 -43.5t44 -103.5q0 -63 -43.5 -106.5t-104.5 -43.5q-63 0 -106 43.5t-43 106.5zM694 829q0 61 45 106.5t105 45.5 q61 0 105 -45t44 -107q0 -60 -43.5 -102.5t-105.5 -42.5q-60 0 -105 42.5t-45 102.5zM694 1163q0 60 45 105t105 45q61 0 105 -45t44 -105q0 -61 -43.5 -104t-105.5 -43q-61 0 -105.5 43t-44.5 104z" />
<glyph unicode="+" d="M135 635v205h363v370h221v-370h366v-205h-366v-375h-221v375h-363z" />
<glyph unicode="," horiz-adv-x="516" d="M96 131q0 67 42 108.5t116 41.5q82 0 131 -64.5t49 -165.5q0 -130 -69 -221.5t-191 -126.5l-63 111q90 32 125 108q30 65 18 94q-12 -16 -53 -16t-73 38t-32 93z" />
<glyph unicode="-" horiz-adv-x="770" d="M127 451v219h516v-219h-516z" />
<glyph unicode="." horiz-adv-x="497" d="M92 154q0 58 45.5 104.5t118.5 46.5q63 0 106.5 -47t43.5 -104q0 -65 -43 -114.5t-107 -49.5q-73 0 -118.5 49t-45.5 115z" />
<glyph unicode="/" horiz-adv-x="735" d="M-61 -358l675 1814l183 -67l-676 -1815z" />
<glyph unicode="0" horiz-adv-x="1134" d="M86 717q0 223 50.5 385t160 255t270.5 93q160 0 269.5 -93t160 -255t50.5 -385q0 -224 -49.5 -385.5t-158 -254.5t-268.5 -93q-161 0 -271.5 93t-162 255t-51.5 385zM338 717q0 -514 233 -514q121 0 173.5 122.5t52.5 391.5q0 268 -54 390t-176 122q-120 0 -174.5 -124.5 t-54.5 -387.5z" />
<glyph unicode="1" horiz-adv-x="796" d="M45 1163l367 275h170v-1438h-236v1102l-176 -133z" />
<glyph unicode="2" horiz-adv-x="1073" d="M76 0v188q17 17 53 52q68 66 104.5 102.5t103 106t105 116.5t88 114t76.5 120.5t46.5 114t19.5 114.5q0 87 -47.5 136.5t-135.5 49.5q-76 0 -129.5 -50.5t-76.5 -141.5l-197 88q29 157 144.5 248.5t285.5 91.5q98 0 177.5 -31.5t128 -85t74.5 -119.5t26 -139 q0 -82 -25 -169t-62 -159.5t-91 -148t-102 -130t-105 -110t-89.5 -83.5t-66.5 -56h596v-219h-901z" />
<glyph unicode="3" horiz-adv-x="1085" d="M45 219l133 172q56 -82 136 -130t171 -48q111 0 171.5 56.5t60.5 142.5q0 97 -70 149.5t-196 52.5h-103v236h92q92 0 157 54t65 143q0 79 -47 126.5t-136 47.5q-85 0 -150 -37.5t-120 -116.5l-131 166q58 109 167 166t257 57q186 0 298.5 -98.5t112.5 -265.5 q0 -245 -219 -340v-7q130 -23 202.5 -117t72.5 -225q0 -194 -133 -310t-336 -116q-160 0 -278 65t-177 177z" />
<glyph unicode="4" horiz-adv-x="1157" d="M31 332v174l553 928h270l-518 -867h350v355h236v-355h184v-235h-184v-332h-236v332h-655z" />
<glyph unicode="5" horiz-adv-x="1052" d="M45 182l135 178q45 -66 126.5 -106.5t164.5 -40.5q103 0 169.5 68t66.5 174q0 110 -82.5 182t-223.5 72q-66 0 -133 -11.5t-102 -25.5l94 762h678v-236h-471l-41 -285q52 9 82 9q195 0 322.5 -124.5t127.5 -332.5q0 -150 -67 -262.5t-178 -169t-248 -56.5 q-122 0 -239.5 54t-180.5 151z" />
<glyph unicode="6" horiz-adv-x="1144" d="M92 508q0 152 43.5 292.5t114.5 247t163.5 192t190 139t193.5 77.5l96 -178q-185 -56 -327 -191t-195 -333q96 133 295 133q168 0 284.5 -122.5t116.5 -315.5q0 -109 -40 -200t-106 -149.5t-148 -90.5t-169 -32q-155 0 -273 73t-178.5 192.5t-60.5 265.5zM342 506 q0 -128 69.5 -210.5t194.5 -82.5q95 0 153 64.5t58 154.5q0 103 -60.5 169.5t-170.5 66.5q-89 0 -150.5 -47t-93.5 -115z" />
<glyph unicode="7" horiz-adv-x="1017" d="M51 1198v236h901v-158l-508 -1276h-258l484 1198h-619z" />
<glyph unicode="8" horiz-adv-x="1228" d="M117 371q0 134 68.5 229.5t176.5 132.5v6q-88 37 -146 128t-58 212q0 166 131 271.5t323 105.5q194 0 326.5 -105.5t132.5 -271.5q0 -107 -59.5 -201t-161.5 -137v-6q110 -23 185 -116t75 -228q0 -129 -66 -224t-177.5 -142.5t-252.5 -47.5q-214 0 -355.5 107.5 t-141.5 286.5zM369 416q0 -88 65.5 -145.5t177.5 -57.5q123 0 186.5 56.5t61.5 146.5q-1 96 -64 149t-161 53h-35q-95 0 -163 -55t-68 -147zM408 1038q0 -75 53 -129.5t135 -54.5h39q80 0 132 55t52 129q0 86 -57.5 134.5t-151.5 48.5q-91 0 -146.5 -51.5t-55.5 -131.5z" />
<glyph unicode="9" horiz-adv-x="1136" d="M61 979q0 109 42 201t110.5 151t152.5 92t171 33q235 0 371 -151.5t136 -395.5q0 -202 -57 -370.5t-157 -284.5t-233 -187t-288 -90l-78 187q220 44 356 172t179 328q-93 -129 -272 -129q-182 0 -307.5 127.5t-125.5 316.5zM311 995q0 -99 65 -169t175 -70 q90 0 151.5 44.5t92.5 110.5q0 131 -67.5 220.5t-190.5 89.5q-97 0 -161.5 -68.5t-64.5 -157.5z" />
<glyph unicode=":" horiz-adv-x="651" d="M168 154q0 58 45.5 104.5t118.5 46.5q63 0 106 -47t43 -104q0 -65 -42.5 -114.5t-106.5 -49.5q-73 0 -118.5 49t-45.5 115zM168 793q0 58 45.5 104.5t118.5 46.5q63 0 106 -47t43 -104q0 -65 -42.5 -114.5t-106.5 -49.5q-73 0 -118.5 49t-45.5 115z" />
<glyph unicode=";" horiz-adv-x="663" d="M168 793q0 58 45.5 104.5t118.5 46.5q63 0 106 -47t43 -104q0 -65 -42.5 -114.5t-106.5 -49.5q-73 0 -118.5 49t-45.5 115zM170 131q0 67 42 108.5t116 41.5q82 0 131 -64.5t49 -165.5q0 -130 -69 -221.5t-191 -126.5l-64 111q90 32 125 108q30 66 19 94q-12 -16 -54 -16 q-41 0 -72.5 38t-31.5 93z" />
<glyph unicode="&#x3c;" d="M100 690v101l951 550v-254l-627 -346l627 -350v-256z" />
<glyph unicode="=" d="M135 440v205h950v-205h-950zM135 829v205h950v-205h-950z" />
<glyph unicode="&#x3e;" d="M168 135v256l629 350l-629 346v254l952 -550v-101z" />
<glyph unicode="?" horiz-adv-x="968" d="M82 1247q58 93 165 151t240 58q198 0 314.5 -103.5t116.5 -256.5q0 -81 -22.5 -148t-58.5 -111.5t-78.5 -83t-83.5 -70.5t-73 -65t-48 -76.5t-7 -95.5l-215 -2q-11 65 -2.5 118t30 89.5t52.5 69.5t65 57t68 52.5t60.5 56.5t43.5 68.5t17 88.5q0 73 -55.5 125t-137.5 52 t-141.5 -32t-110.5 -99zM287 154q0 58 45.5 104.5t116.5 46.5q65 0 108 -47t43 -104q0 -65 -43 -114.5t-108 -49.5q-72 0 -117 49t-45 115z" />
<glyph unicode="@" horiz-adv-x="2039" d="M117 461q0 186 70.5 352.5t192 287t293.5 191t367 70.5q249 0 449 -98.5t316 -282.5t116 -422q0 -85 -18.5 -164.5t-56.5 -150t-91.5 -124t-129 -85.5t-163.5 -35h-235v74q-104 -97 -254 -97q-206 0 -329.5 133t-123.5 351q0 204 149.5 343.5t379.5 139.5q114 0 225 -31 t188 -79v-615h41q86 0 142.5 93t56.5 247q0 119 -46.5 225t-130 186t-209.5 126.5t-276 46.5q-144 0 -272 -47.5t-223.5 -134t-151 -216t-55.5 -284.5q0 -195 94.5 -352t255 -243.5t352.5 -86.5q117 0 222 24l10 -219q-120 -26 -232 -26q-196 0 -367.5 68t-293.5 186.5 t-192 287t-70 361.5zM772 451q0 -119 67 -186.5t177 -67.5q60 0 116.5 27.5t94.5 68.5v385q-92 45 -180 45q-129 0 -202 -78.5t-73 -193.5z" />
<glyph unicode="A" horiz-adv-x="1464" d="M14 0l607 1438h221l606 -1438h-268l-150 367h-612l-150 -367h-254zM514 602h420l-209 510z" />
<glyph unicode="B" horiz-adv-x="1263" d="M199 2v1428q200 10 413 10q125 0 217.5 -27t147 -76t80.5 -112t26 -140q0 -230 -204 -325v-4q112 -28 181.5 -113t69.5 -221q0 -108 -40 -191t-112.5 -135t-168 -78t-211.5 -26q-259 0 -399 10zM451 238q96 -11 165 -11q128 0 195.5 53t67.5 154q0 90 -65 136t-185 46 h-178v-378zM451 836h170q93 0 153 48t60 142q0 86 -61 132t-165 46q-90 0 -157 -6v-362z" />
<glyph unicode="C" horiz-adv-x="1341" d="M92 717q0 155 48.5 289t139.5 234.5t231.5 158t313.5 57.5q136 0 250 -39t187 -106l-113 -187q-146 97 -324 97q-204 0 -335.5 -137.5t-131.5 -366.5q0 -224 138 -364t358 -140q192 0 340 115l96 -189q-68 -72 -194 -117t-265 -45q-217 0 -385 91.5t-261 260t-93 388.5z " />
<glyph unicode="D" horiz-adv-x="1517" d="M199 0v1434h26q41 0 191.5 3t204.5 3q167 0 303 -37.5t228 -102.5t154.5 -155.5t90.5 -194t28 -219.5q0 -122 -32.5 -231t-99.5 -201.5t-163 -159.5t-231 -105t-295 -38q-37 0 -171.5 2t-205.5 2h-28zM451 236q88 -5 161 -5q257 0 402 135t145 365q0 218 -144 345.5 t-399 127.5q-80 0 -165 -6v-962z" />
<glyph unicode="E" horiz-adv-x="1177" d="M199 0v1434h829v-236h-577v-356h516v-236h-516v-370h598v-236h-850z" />
<glyph unicode="F" horiz-adv-x="1099" d="M199 0v1434h819v-236h-567v-405h505v-236h-505v-557h-252z" />
<glyph unicode="G" horiz-adv-x="1488" d="M92 717q0 154 50.5 289t142 235t226.5 157.5t296 57.5q277 0 461 -145l-107 -201q-54 51 -141.5 81t-181.5 30q-212 0 -346 -135t-134 -369q0 -228 133.5 -366t352.5 -138q82 0 169 29.5t128 68.5v226h-346v235h581v-594q-92 -92 -244 -146.5t-292 -54.5q-348 0 -548 201 t-200 539z" />
<glyph unicode="H" horiz-adv-x="1554" d="M199 0v1434h252v-586h655v586h250v-1434h-250v612h-655v-612h-252z" />
<glyph unicode="I" horiz-adv-x="710" d="M229 0v1434h252v-1434h-252z" />
<glyph unicode="J" horiz-adv-x="798" d="M10 66l82 192q59 -45 127 -45q129 0 129 168v1053h252v-1096q0 -174 -87 -267.5t-259 -93.5q-77 0 -145.5 27t-98.5 62z" />
<glyph unicode="K" horiz-adv-x="1376" d="M199 0v1434h252v-680l565 680h303l-590 -668l627 -766h-320l-585 739v-739h-252z" />
<glyph unicode="L" horiz-adv-x="1120" d="M199 0v1434h252v-1198h645v-236h-897z" />
<glyph unicode="M" horiz-adv-x="1845" d="M199 0v1434h254l489 -670l467 670h238v-1434h-250v1036l-453 -637h-37l-456 631v-1030h-252z" />
<glyph unicode="N" horiz-adv-x="1622" d="M199 0v1434h200l789 -998v998h235v-1434h-200l-789 993v-993h-235z" />
<glyph unicode="O" horiz-adv-x="1677" d="M92 717q0 154 55 290.5t152.5 235.5t237 156t301.5 57q212 0 381.5 -91t267.5 -260t98 -388q0 -212 -97.5 -381.5t-268 -264t-381.5 -94.5q-212 0 -381.5 91t-267 260.5t-97.5 388.5zM358 717q0 -214 139 -359t341 -145q220 0 350.5 143t130.5 361q0 220 -138 362 t-343 142q-207 0 -343.5 -141.5t-136.5 -362.5z" />
<glyph unicode="P" horiz-adv-x="1253" d="M199 0v1434q38 0 196.5 2t210.5 2q123 0 219.5 -25.5t158.5 -68.5t102.5 -103t57.5 -125t17 -139q0 -93 -34.5 -176t-98.5 -148t-165.5 -103t-225.5 -38q-125 0 -186 6v-518h-252zM451 758q98 -10 178 -10q119 0 192.5 58t73.5 173q0 223 -264 223q-44 0 -180 -4v-440z " />
<glyph unicode="Q" horiz-adv-x="1677" d="M92 717q0 154 55 290.5t152.5 235.5t237 156t301.5 57q212 0 381.5 -91t267.5 -260t98 -388q0 -151 -51 -282.5t-145 -229.5l176 -205h-293l-60 68q-168 -91 -374 -91q-212 0 -381.5 91t-267 260.5t-97.5 388.5zM358 717q0 -214 139 -359t341 -145q117 0 215 45l-121 141 l164 148l127 -150q96 135 96 320q0 220 -138 362t-343 142q-207 0 -343.5 -141.5t-136.5 -362.5z" />
<glyph unicode="R" horiz-adv-x="1347" d="M199 0v1434q45 0 232.5 2t203.5 2q114 0 203.5 -22.5t148.5 -61.5t97 -96t54.5 -121.5t16.5 -141.5q0 -88 -25.5 -161t-68.5 -121.5t-88 -79t-94 -47.5l448 -586h-305l-395 537h-176v-537h-252zM451 772h163q116 0 195.5 58t79.5 163q0 209 -266 209q-36 0 -172 -4v-426z " />
<glyph unicode="S" horiz-adv-x="1132" d="M92 203l144 172q60 -78 150.5 -120t178.5 -42q92 0 150.5 44.5t58.5 123.5q0 50 -28 91t-73.5 68.5t-104 57t-119 54.5t-119 63t-104 82t-73.5 112t-28 152q0 167 121.5 281t324.5 114q130 0 237.5 -40.5t172.5 -112.5l-135 -189q-56 55 -114 81t-140 26 q-93 0 -147 -43.5t-54 -114.5q0 -60 36 -105.5t93 -76.5t126 -59.5t138.5 -64.5t126.5 -82t93 -120.5t36 -171.5q0 -179 -137.5 -292.5t-341.5 -113.5q-147 0 -283 61t-186 165z" />
<glyph unicode="T" horiz-adv-x="1222" d="M20 1198v236h1182v-236h-465v-1198h-252v1198h-465z" />
<glyph unicode="U" horiz-adv-x="1538" d="M178 608v826h252v-772q0 -209 89 -329t269 -120q320 0 320 432v789h250v-840q0 -128 -30.5 -232t-83.5 -175t-125.5 -119t-155.5 -69.5t-175 -21.5q-135 0 -246 40t-192.5 117.5t-126.5 198.5t-45 275z" />
<glyph unicode="V" horiz-adv-x="1343" d="M-6 1434h268l426 -1063l408 1063h252l-574 -1438h-190z" />
<glyph unicode="W" horiz-adv-x="2017" d="M10 1434h283l289 -1022l319 1022h250l328 -1024l286 1024h242l-410 -1434h-235l-346 1036l-340 -1036h-238z" />
<glyph unicode="X" horiz-adv-x="1370" d="M20 0l502 731l-479 703h295l352 -519l346 519h295l-483 -703l502 -731h-295l-371 539l-369 -539h-295z" />
<glyph unicode="Y" horiz-adv-x="1288" d="M10 1434h287l356 -600l353 600h272l-510 -836v-598h-252v598z" />
<glyph unicode="Z" horiz-adv-x="1314" d="M82 0v172l792 1026h-751v236h1089v-174l-794 -1024h815v-236h-1151z" />
<glyph unicode="[" horiz-adv-x="716" d="M123 -410v1741h563v-221h-328v-1300h328v-220h-563z" />
<glyph unicode="\" horiz-adv-x="735" d="M-61 1389l180 67l678 -1814l-185 -68z" />
<glyph unicode="]" horiz-adv-x="716" d="M31 -190h327v1300h-327v221h563v-1741h-563v220z" />
<glyph unicode="^" horiz-adv-x="1038" d="M61 922l379 528h162l375 -528h-256l-201 292l-205 -292h-254z" />
<glyph unicode="_" horiz-adv-x="704" d="M0 -174h705v-236h-705v236z" />
<glyph unicode="`" horiz-adv-x="663" d="M123 1409l143 180l275 -291l-115 -131z" />
<glyph unicode="a" horiz-adv-x="1251" d="M12 0l502 1077h223l502 -1077h-268l-101 221h-505l-101 -221h-252zM469 455h297l-148 329z" />
<glyph unicode="b" horiz-adv-x="1105" d="M160 2v1069q165 10 403 10q204 0 302 -73.5t98 -192.5q0 -86 -43 -152t-123 -98v-2q202 -37 202 -237q0 -163 -125 -248.5t-327 -85.5q-270 0 -387 10zM410 238q63 -11 157 -11q181 0 181 105q0 49 -44.5 73.5t-125.5 24.5h-168v-192zM410 651h155q65 0 106.5 24.5 t41.5 74.5q0 96 -154 96q-97 0 -149 -6v-189z" />
<glyph unicode="c" horiz-adv-x="1124" d="M72 535q0 113 38 211.5t110.5 176t190.5 122.5t267 45q114 0 211 -31t158 -80l-113 -188q-63 31 -119.5 47t-134.5 16q-154 0 -248 -83t-94 -236q0 -143 100.5 -232.5t268.5 -89.5q150 0 268 78l96 -189q-56 -55 -163 -90t-224 -35q-279 0 -445.5 152.5t-166.5 405.5z " />
<glyph unicode="d" horiz-adv-x="1273" d="M160 0v1075h24q31 0 166 2t178 2q176 0 307.5 -40t210.5 -112.5t117.5 -168t38.5 -213.5q0 -119 -43.5 -218.5t-127 -173.5t-215.5 -115.5t-300 -41.5q-28 0 -148 2t-182 2h-26zM410 236q56 -5 114 -5q195 0 303.5 80.5t108.5 233.5q0 148 -105 223.5t-305 75.5 q-77 0 -116 -4v-604z" />
<glyph unicode="e" horiz-adv-x="1019" d="M160 0v1075h735v-235h-485v-181h436v-235h-436v-188h503v-236h-753z" />
<glyph unicode="f" horiz-adv-x="950" d="M160 0v1075h721v-235h-471v-219h419v-236h-419v-385h-250z" />
<glyph unicode="g" horiz-adv-x="1247" d="M72 535q0 115 42.5 216t119.5 176.5t192 119t252 43.5q229 0 389 -111l-106 -197q-45 31 -114 51.5t-140 20.5q-165 0 -267 -80.5t-102 -238.5q0 -147 102.5 -234.5t272.5 -87.5q129 0 211 53v125h-269v221h504v-483q-77 -68 -205 -110t-245 -42q-299 0 -468 151.5 t-169 406.5z" />
<glyph unicode="h" horiz-adv-x="1329" d="M160 0v1075h250v-409h510v409h249v-1075h-249v430h-510v-430h-250z" />
<glyph unicode="i" horiz-adv-x="608" d="M178 0v1075h252v-1075h-252z" />
<glyph unicode="j" horiz-adv-x="688" d="M4 57l82 193q49 -33 100 -33q45 0 69 23t24 67v768h249v-811q0 -138 -78 -210t-227 -72q-72 0 -134 22.5t-85 52.5z" />
<glyph unicode="k" horiz-adv-x="1200" d="M160 0v1075h250v-487l415 487h326l-459 -495l492 -580h-340l-434 532v-532h-250z" />
<glyph unicode="l" horiz-adv-x="956" d="M160 0v1075h250v-825h508v-250h-758z" />
<glyph unicode="m" horiz-adv-x="1558" d="M160 0v1075h252l385 -448l364 448h238v-1075h-250v692l-352 -413h-35l-352 407v-686h-250z" />
<glyph unicode="n" horiz-adv-x="1357" d="M160 0v1075h200l603 -669v669h235v-1075h-201l-602 668v-668h-235z" />
<glyph unicode="o" horiz-adv-x="1349" d="M72 535q0 116 44 218t121.5 176.5t191 117.5t245.5 43q174 0 310.5 -66.5t215 -193.5t78.5 -295q0 -161 -78 -288.5t-216 -198.5t-310 -71q-173 0 -309 67t-214.5 194.5t-78.5 296.5zM338 535q0 -136 97.5 -229t238.5 -93q160 0 249 90.5t89 231.5q0 144 -96.5 231.5 t-241.5 87.5q-148 0 -242 -87t-94 -232z" />
<glyph unicode="p" horiz-adv-x="1067" d="M160 0v1075q30 0 169.5 2t186.5 2q131 0 226.5 -30t149.5 -83.5t78.5 -120t24.5 -147.5q0 -169 -118.5 -278t-323.5 -109q-72 0 -143 6v-317h-250zM410 555q86 -8 135 -8q83 0 133.5 38.5t50.5 112.5q0 146 -186 146q-51 0 -133 -4v-285z" />
<glyph unicode="q" horiz-adv-x="1349" d="M72 535q0 116 44 218t121.5 176.5t191 117.5t245.5 43q174 0 310.5 -66.5t215 -193.5t78.5 -295q0 -209 -129 -357l162 -178h-293l-43 45q-133 -68 -301 -68q-173 0 -309 67t-214.5 194.5t-78.5 296.5zM338 535q0 -136 97.5 -229t238.5 -93q70 0 129 18l-86 95l164 147 l92 -102q39 68 39 164q0 144 -96.5 231.5t-241.5 87.5q-148 0 -242 -87t-94 -232z" />
<glyph unicode="r" horiz-adv-x="1138" d="M160 0v1075q27 0 163 2t201 2q469 0 469 -362q0 -71 -18.5 -128.5t-49 -93.5t-60.5 -57.5t-64 -34.5l307 -403h-320l-243 342h-135v-342h-250zM410 578h131q83 0 134.5 36t51.5 101q0 52 -44 90.5t-144 38.5q-71 0 -129 -4v-262z" />
<glyph unicode="s" horiz-adv-x="1024" d="M55 164l144 170q52 -48 152 -84.5t186 -36.5q66 0 107.5 25.5t41.5 70.5q0 31 -32.5 55.5t-84.5 42t-114.5 36.5t-125 46t-114.5 62.5t-84.5 93.5t-32.5 133q0 65 24.5 119.5t75 98.5t137.5 69t204 25q101 0 223 -44t180 -106l-115 -186q-58 43 -146.5 71.5t-152.5 28.5 q-163 0 -163 -88q0 -29 32.5 -50.5t84 -38t114.5 -34t125.5 -45t114 -64t84 -97.5t32.5 -140q0 -142 -121 -231t-313 -89q-134 0 -268 52t-195 135z" />
<glyph unicode="t" horiz-adv-x="1030" d="M18 840v235h994v-235h-373v-840h-250v840h-371z" />
<glyph unicode="u" horiz-adv-x="1288" d="M141 453v622h252v-567q0 -134 63.5 -213.5t202.5 -79.5q125 0 180.5 72t55.5 207v581h252v-633q0 -96 -26.5 -174t-71.5 -131t-107.5 -89t-133 -52t-149.5 -16q-236 0 -377 122t-141 351z" />
<glyph unicode="v" horiz-adv-x="1126" d="M-12 1075h284l306 -733l292 733h269l-473 -1075h-193z" />
<glyph unicode="w" horiz-adv-x="1705" d="M4 1075h283l217 -700l239 700h252l248 -702l209 702h250l-338 -1075h-240l-262 684l-256 -684h-248z" />
<glyph unicode="x" horiz-adv-x="1153" d="M6 0l408 549l-389 526h311l246 -342l239 342h309l-391 -526l408 -549h-311l-263 356l-256 -356h-311z" />
<glyph unicode="y" horiz-adv-x="1105" d="M4 1075h303l254 -403l256 403h285l-426 -639v-436h-250v436z" />
<glyph unicode="z" horiz-adv-x="1110" d="M68 0v174l589 666h-555v235h922v-176l-590 -663h606v-236h-972z" />
<glyph unicode="{" horiz-adv-x="741" d="M41 358v205q31 0 60.5 10t58.5 33.5t47 70t18 111.5v230q0 162 73.5 237.5t248.5 75.5h153v-221h-94q-82 0 -113.5 -37t-31.5 -137v-240q0 -99 -42 -161.5t-112 -71.5q70 -8 112 -65t42 -169v-243q0 -95 35.5 -135.5t121.5 -40.5h82v-220h-168q-153 0 -230 70t-77 229 v269q0 58 -16.5 99.5t-45 62.5t-58.5 30t-64 8z" />
<glyph unicode="|" horiz-adv-x="696" d="M229 0v1434h236v-1434h-236z" />
<glyph unicode="}" horiz-adv-x="741" d="M41 -190h82q86 0 122 41t36 135v243q0 112 41.5 169t111.5 65q-70 9 -111.5 71.5t-41.5 161.5v240q0 100 -31.5 137t-114.5 37h-94v221h154q176 0 248.5 -75.5t72.5 -237.5v-230q0 -65 18 -111.5t47 -70t58.5 -33.5t60.5 -10v-205q-34 1 -64 -8t-58.5 -30t-45 -62.5 t-16.5 -99.5v-269q0 -159 -76.5 -229t-228.5 -70h-170v220z" />
<glyph unicode="~" d="M86 741q66 75 145 119.5t154 44.5q56 0 123 -21.5t118.5 -48t117 -48t118.5 -21.5q46 0 95.5 26t84.5 66l93 -162q-63 -60 -135.5 -97.5t-139.5 -37.5q-55 0 -121 21.5t-117.5 48t-113.5 48t-109 21.5q-101 0 -211 -110z" />
<glyph unicode="&#xa1;" horiz-adv-x="634" d="M162 780q0 65 42.5 114.5t106.5 49.5q73 0 118.5 -49t45.5 -115q0 -58 -45.5 -104.5t-118.5 -46.5q-63 0 -106 47t-43 104zM193 438h249v-938h-249v938z" />
<glyph unicode="&#xa2;" d="M178 461q0 172 99.5 302t261.5 167v225h235v-219q157 -25 252 -117l-111 -186q-93 90 -229 90q-103 0 -179.5 -72.5t-76.5 -189.5q0 -119 78.5 -191.5t187.5 -72.5q138 0 238 112l110 -172q-91 -122 -270 -151v-232h-235v240q-167 37 -264 161t-97 306z" />
<glyph unicode="&#xa3;" d="M63 174q81 97 193 137q94 124 96 232h-213v188h164q-7 15 -34 68.5t-38.5 80t-23.5 76.5t-12 99q0 169 129.5 282t332.5 113q253 0 402 -162l-129 -184q-62 57 -124 83.5t-138 26.5q-91 0 -149 -51t-58 -127q0 -55 20 -104t51.5 -104.5t45.5 -96.5h307v-188h-287 q-14 -107 -113 -221q26 -6 158 -50.5t203 -44.5q63 0 114 19.5t107 72.5l104 -184q-67 -68 -152 -105.5t-177 -37.5q-79 0 -233.5 53t-233.5 53q-105 0 -217 -112z" />
<glyph unicode="&#xa4;" d="M47 285l162 161q-70 113 -70 254q0 143 72 256l-158 162l144 144l159 -162q111 65 254 65q141 0 252 -65l166 164l143 -144l-161 -162q73 -118 73 -258q0 -142 -71 -254l157 -155l-145 -146l-158 158q-109 -67 -256 -67t-256 67l-161 -164zM358 700q0 -110 68.5 -185 t183.5 -75q119 0 185.5 74.5t66.5 185.5q0 117 -67.5 189t-184.5 72q-115 0 -183.5 -72.5t-68.5 -188.5z" />
<glyph unicode="&#xa5;" d="M23 1434h286l309 -600l308 600h272l-360 -646h247v-190h-352v-168h352v-190h-352v-240h-250v240h-348v190h348v168h-348v190h242z" />
<glyph unicode="&#xa6;" horiz-adv-x="696" d="M229 0v532h236v-532h-236zM229 901v533h236v-533h-236z" />
<glyph unicode="&#xa7;" horiz-adv-x="1073" d="M117 510q0 124 65.5 218.5t184.5 135.5q-67 42 -107.5 114t-40.5 163q0 124 93 208.5t257 84.5q95 0 170.5 -39.5t124.5 -104.5l-141 -157q-24 26 -40 40.5t-44 26.5t-61 12q-50 0 -86.5 -34.5t-36.5 -83.5q0 -122 147 -207q167 -20 259.5 -123t92.5 -254 q0 -124 -64 -219t-183 -135q64 -43 102.5 -113.5t38.5 -159.5q0 -125 -92.5 -209t-257.5 -84q-93 0 -168.5 40t-124.5 104l141 157q25 -27 40.5 -41t43 -27t59.5 -13q51 0 87 35t36 85q0 67 -36.5 114.5t-108.5 88.5q-166 20 -258 124t-92 253zM352 510q0 -69 50 -122.5 t135 -53.5q89 0 135.5 52t46.5 124q0 70 -48.5 123t-133.5 53t-135 -53t-50 -123z" />
<glyph unicode="&#xa8;" horiz-adv-x="866" d="M123 1321q0 56 38 89.5t95 33.5q46 0 82.5 -34.5t36.5 -88.5q0 -58 -36.5 -92.5t-82.5 -34.5q-58 0 -95.5 33.5t-37.5 93.5zM489 1321q0 55 38.5 89t93.5 34q48 0 85 -34t37 -89q0 -58 -36.5 -92.5t-85.5 -34.5q-55 0 -93.5 34t-38.5 93z" />
<glyph unicode="&#xa9;" horiz-adv-x="2084" d="M147 453q0 185 69 350t188 284.5t285.5 189t352.5 69.5t352 -69.5t284.5 -189t187.5 -284.5t69 -350q0 -248 -117 -453t-322 -323.5t-454 -118.5t-454.5 118.5t-323 323.5t-117.5 453zM352 451q0 -187 89 -344.5t248.5 -251t354.5 -93.5q193 0 351.5 93.5t247 251 t88.5 344.5q0 141 -52.5 268t-142.5 220t-218.5 147.5t-273.5 54.5q-147 0 -276 -54.5t-220 -147.5t-143.5 -220t-52.5 -268zM557 461q0 133 60 243.5t170 175t247 64.5q246 0 371 -125l-111 -186q-93 90 -229 90q-103 0 -179.5 -72.5t-76.5 -189.5q0 -119 78.5 -191.5 t187.5 -72.5q138 0 238 112l110 -172q-58 -77 -155 -118.5t-211 -41.5q-225 0 -362.5 133t-137.5 351z" />
<glyph unicode="&#xaa;" horiz-adv-x="911" d="M92 842q0 116 69 176.5t195 60.5q130 0 217 -43q-8 138 -149 138q-106 0 -176 -41l-82 137q126 78 299 78q131 0 222 -71.5t91 -207.5v-440h-205v88q-41 -48 -99 -73.5t-155 -25.5q-101 0 -164 65t-63 159zM311 864q0 -32 28.5 -51.5t84.5 -19.5q73 0 149 51v63 q-78 29 -145 29q-57 0 -87 -20t-30 -52z" />
<glyph unicode="&#xab;" horiz-adv-x="1148" d="M76 508v8l403 463l154 -137l-285 -330l283 -334l-160 -133zM506 508v8l403 463l154 -137l-285 -330l283 -334l-160 -133z" />
<glyph unicode="&#xac;" d="M104 635v205h1012v-473h-205v268h-807z" />
<glyph unicode="&#xad;" horiz-adv-x="770" d="M127 451v219h516v-219h-516z" />
<glyph unicode="&#xae;" horiz-adv-x="1357" d="M92 1018q0 160 78 294t214 212t298 78q159 0 293 -78t212.5 -212.5t78.5 -293.5q0 -162 -78.5 -298t-212.5 -214t-293 -78q-122 0 -231 46t-188 125t-125 188t-46 231zM281 1016q0 -164 116.5 -281t280.5 -117t280.5 117t116.5 281t-116.5 280.5t-280.5 116.5 t-280.5 -116.5t-116.5 -280.5zM453 737v574h239q118 0 176 -51t58 -140q0 -59 -32 -104.5t-77 -61.5l119 -217h-182l-88 181h-56v-181h-157zM610 1030h60q45 0 70.5 25.5t25.5 62.5q0 80 -96 80h-60v-168z" />
<glyph unicode="&#xaf;" horiz-adv-x="817" d="M123 1223v190h571v-190h-571z" />
<glyph unicode="&#xb0;" horiz-adv-x="870" d="M92 1163q0 148 99.5 247t240.5 99q145 0 245.5 -94t100.5 -239q0 -146 -101.5 -249.5t-244.5 -103.5q-141 0 -240.5 98t-99.5 242zM297 1167q0 -57 40.5 -98t96.5 -41q57 0 98 41t41 98t-41 97.5t-98 40.5q-56 0 -96.5 -40.5t-40.5 -97.5z" />
<glyph unicode="&#xb1;" d="M135 317v205h950v-205h-950zM135 823v205h363v371h221v-371h366v-205h-366v-211h-221v211h-363z" />
<glyph unicode="&#xb2;" horiz-adv-x="743" d="M61 717v149q193 115 264 171q109 88 109 151q0 37 -24 58.5t-64 21.5q-41 0 -72.5 -32t-37.5 -71l-170 60q17 101 96.5 159t204.5 58q137 0 211.5 -62.5t74.5 -165.5q0 -187 -325 -323h358v-174h-625z" />
<glyph unicode="&#xb3;" horiz-adv-x="739" d="M35 856l119 109q21 -38 69.5 -66.5t100.5 -28.5q62 0 93.5 20t31.5 52q0 29 -29.5 47.5t-91.5 18.5h-62v143h58q45 0 71.5 19.5t26.5 50.5q0 27 -24.5 43t-67.5 16q-106 0 -174 -84l-99 113q39 60 117 98.5t197 38.5q120 0 196 -49.5t76 -132.5q0 -65 -42.5 -109 t-115.5 -59v-2q87 -6 135 -53.5t48 -116.5q0 -99 -91 -159t-219 -60q-107 0 -194.5 38.5t-128.5 112.5z" />
<glyph unicode="&#xb4;" horiz-adv-x="663" d="M123 1298l272 291l146 -180l-305 -242z" />
<glyph unicode="&#xb6;" horiz-adv-x="1005" d="M76 985q0 205 127.5 327t326.5 122h424v-222h-192v-1196q0 -219 -97 -330.5t-286 -111.5q-79 0 -152.5 29t-113.5 71l92 170q67 -51 157 -51q91 0 127.5 62t36.5 170v514q-88 1 -168.5 31.5t-143.5 86t-100.5 141t-37.5 187.5z" />
<glyph unicode="&#xb7;" horiz-adv-x="434" d="M59 618q0 58 45.5 105t118.5 47q63 0 106.5 -47.5t43.5 -104.5q0 -65 -43 -114t-107 -49q-74 0 -119 48.5t-45 114.5z" />
<glyph unicode="&#xb8;" horiz-adv-x="774" d="M123 -340l70 111q69 -54 143 -54q35 0 57.5 14t22.5 38q0 57 -84 57h-13v174h119v-72q104 -6 158.5 -51t54.5 -123q0 -81 -73.5 -130.5t-208.5 -49.5q-60 0 -113 16t-76 30.5t-57 39.5z" />
<glyph unicode="&#xb9;" horiz-adv-x="550" d="M33 1278l231 154h148v-715h-205v479l-98 -57z" />
<glyph unicode="&#xba;" horiz-adv-x="1021" d="M106 983q0 164 113.5 264.5t290.5 100.5t290 -100.5t113 -264.5q0 -163 -113.5 -265t-289.5 -102t-290 102t-114 265zM328 983q0 -80 52.5 -128t129.5 -48q81 0 132.5 48t51.5 128q0 78 -52.5 126t-131.5 48q-78 0 -130 -48t-52 -126z" />
<glyph unicode="&#xbb;" horiz-adv-x="1148" d="M86 842l154 137l403 -463v-8l-395 -463l-160 133l283 334zM516 842l154 137l403 -463v-8l-395 -463l-160 133l283 334z" />
<glyph unicode="&#xbc;" horiz-adv-x="1419" d="M43 1278l231 154h148v-715h-205v479l-98 -57zM92 72l1034 1384l134 -100l-1033 -1379zM680 143v138l317 436h195l-303 -414h186v158h189v-158h114v-160h-114v-143h-189v143h-395z" />
<glyph unicode="&#xbd;" horiz-adv-x="1454" d="M43 1278l231 154h148v-715h-205v479l-98 -57zM72 72l1034 1384l133 -100l-1032 -1379zM748 0v150q192 114 261 169q111 88 111 152q0 37 -24 58.5t-64 21.5q-41 0 -72.5 -31.5t-37.5 -70.5l-170 59q17 101 96.5 159t204.5 58q137 0 211.5 -62t74.5 -165q0 -188 -325 -324 h358v-174h-624z" />
<glyph unicode="&#xbe;" horiz-adv-x="1542" d="M49 856l119 109q21 -38 69.5 -66.5t100.5 -28.5q62 0 93.5 20t31.5 52q0 29 -29.5 47.5t-91.5 18.5h-61v143h57q45 0 71.5 19.5t26.5 50.5q0 27 -24.5 43t-67.5 16q-106 0 -174 -84l-98 113q39 60 116.5 98.5t196.5 38.5q120 0 196 -49.5t76 -132.5q0 -65 -42 -109 t-115 -59v-2q87 -6 134.5 -53.5t47.5 -116.5q0 -99 -90.5 -159t-218.5 -60q-107 0 -195 38.5t-129 112.5zM236 72l1034 1384l133 -100l-1032 -1379zM803 143v138l317 436h195l-303 -414h186v158h188v-158h115v-160h-115v-143h-188v143h-395z" />
<glyph unicode="&#xbf;" horiz-adv-x="968" d="M51 -162q0 81 22.5 148t58.5 111.5t78.5 82.5t83.5 70t73 65t48 76.5t7 95.5l215 2q11 -65 2.5 -118t-30 -89.5t-52.5 -69.5t-65 -57t-68 -52.5t-60.5 -56.5t-43.5 -68.5t-17 -88.5q0 -73 55.5 -124.5t137.5 -51.5t141.5 32t110.5 99l139 -157q-58 -93 -165.5 -151 t-240.5 -58q-198 0 -314 103.5t-116 256.5zM369 780q0 65 43 114.5t108 49.5q72 0 117 -49t45 -115q0 -58 -45.5 -104.5t-116.5 -46.5q-65 0 -108 47t-43 104z" />
<glyph unicode="&#xc0;" horiz-adv-x="1464" d="M14 0l607 1438h221l606 -1438h-268l-150 367h-612l-150 -367h-254zM379 1663l88 203l438 -228l-65 -141zM514 602h420l-209 510z" />
<glyph unicode="&#xc1;" horiz-adv-x="1464" d="M14 0l607 1438h221l606 -1438h-268l-150 367h-612l-150 -367h-254zM514 602h420l-209 510zM557 1638l438 228l88 -203l-460 -166z" />
<glyph unicode="&#xc2;" horiz-adv-x="1464" d="M14 0l607 1438h221l606 -1438h-268l-150 367h-612l-150 -367h-254zM365 1622l358 229h8l367 -227l-92 -133l-279 145l-278 -145zM514 602h420l-209 510z" />
<glyph unicode="&#xc3;" horiz-adv-x="1464" d="M14 0l607 1438h221l606 -1438h-268l-150 367h-612l-150 -367h-254zM360 1692q44 51 106.5 80.5t123.5 29.5q63 0 151 -35.5t142 -35.5q95 0 155 65l64 -149q-84 -121 -236 -121q-50 0 -143.5 35.5t-153.5 35.5q-69 0 -135 -55zM514 602h420l-209 510z" />
<glyph unicode="&#xc4;" horiz-adv-x="1464" d="M14 0l607 1438h221l606 -1438h-268l-150 367h-612l-150 -367h-254zM342 1690q0 58 45.5 92.5t112.5 34.5q59 0 102 -35t43 -92q0 -63 -43 -99.5t-102 -36.5q-68 0 -113 36t-45 100zM514 602h420l-209 510zM817 1690q0 58 45.5 92.5t112.5 34.5q60 0 102.5 -34.5 t42.5 -92.5q0 -63 -42.5 -99.5t-102.5 -36.5q-67 0 -112.5 36t-45.5 100z" />
<glyph unicode="&#xc5;" horiz-adv-x="1464" d="M14 0l602 1427q-80 23 -127 76t-47 135q0 110 79.5 166t205.5 56q129 0 211 -56t82 -166q0 -80 -47 -134t-127 -77l602 -1427h-268l-150 367h-612l-150 -367h-254zM514 602h420l-209 510zM616 1638q0 -47 31.5 -71.5t81.5 -24.5q52 0 84.5 24.5t32.5 71.5t-32 70t-85 23 q-51 0 -82 -23t-31 -70z" />
<glyph unicode="&#xc6;" horiz-adv-x="1947" d="M-57 0l1030 1434h825v-236h-577v-356h516v-236h-516v-370h598v-236h-850v371h-477l-259 -371h-290zM657 606h312v447z" />
<glyph unicode="&#xc7;" horiz-adv-x="1341" d="M92 717q0 155 48.5 289t139.5 234.5t231.5 158t313.5 57.5q136 0 250 -39t187 -106l-113 -187q-146 97 -324 97q-204 0 -335.5 -137.5t-131.5 -366.5q0 -224 138 -364t358 -140q192 0 340 115l96 -189q-66 -71 -185.5 -115t-254.5 -47v-49q227 -11 227 -174 q0 -80 -72 -130t-200 -50q-167 0 -285 92l76 119q31 -26 74 -47t78 -21t57 14t22 38q0 57 -84 57h-12v158q-290 31 -464.5 228.5t-174.5 504.5z" />
<glyph unicode="&#xc8;" horiz-adv-x="1177" d="M199 0v1434h829v-236h-577v-356h516v-236h-516v-370h598v-236h-850zM281 1663l88 203l438 -228l-66 -141z" />
<glyph unicode="&#xc9;" horiz-adv-x="1177" d="M199 0v1434h829v-236h-577v-356h516v-236h-516v-370h598v-236h-850zM444 1638l439 228l88 -203l-461 -166z" />
<glyph unicode="&#xca;" horiz-adv-x="1177" d="M199 0v1434h829v-236h-577v-356h516v-236h-516v-370h598v-236h-850zM248 1622l358 229h8l367 -227l-92 -133l-279 145l-278 -145z" />
<glyph unicode="&#xcb;" horiz-adv-x="1177" d="M199 0v1434h829v-236h-577v-356h516v-236h-516v-370h598v-236h-850zM231 1690q0 58 45.5 92.5t112.5 34.5q59 0 102.5 -35t43.5 -92q0 -63 -43.5 -99.5t-102.5 -36.5q-67 0 -112.5 36t-45.5 100zM707 1690q0 58 45 92.5t112 34.5q60 0 103 -34.5t43 -92.5 q0 -63 -43 -99.5t-103 -36.5q-67 0 -112 36t-45 100z" />
<glyph unicode="&#xcc;" horiz-adv-x="710" d="M-16 1663l88 203l438 -228l-66 -141zM229 0v1434h252v-1434h-252z" />
<glyph unicode="&#xcd;" horiz-adv-x="710" d="M205 1638l438 228l88 -203l-461 -166zM229 0v1434h252v-1434h-252z" />
<glyph unicode="&#xce;" horiz-adv-x="710" d="M-12 1622l358 229h8l367 -227l-92 -133l-279 145l-278 -145zM229 0v1434h252v-1434h-252z" />
<glyph unicode="&#xcf;" horiz-adv-x="710" d="M-35 1690q0 58 45.5 92.5t112.5 34.5q59 0 102 -35t43 -92q0 -63 -43 -99.5t-102 -36.5q-68 0 -113 36t-45 100zM229 0v1434h252v-1434h-252zM440 1690q0 58 45.5 92.5t112.5 34.5q60 0 102.5 -34.5t42.5 -92.5q0 -63 -42.5 -99.5t-102.5 -36.5q-68 0 -113 36t-45 100z " />
<glyph unicode="&#xd0;" horiz-adv-x="1533" d="M20 608v221h195v605h27q40 0 190 3t205 3q167 0 303 -37.5t228.5 -102.5t155 -155.5t90.5 -194t28 -219.5q0 -122 -32.5 -231t-99.5 -201.5t-163 -159.5t-231 -105t-295 -38q-38 0 -172.5 2t-204.5 2h-29v608h-195zM465 236q87 -5 164 -5q257 0 402 135t145 365 q0 218 -144 345.5t-399 127.5q-83 0 -168 -6v-369h362v-221h-362v-372z" />
<glyph unicode="&#xd1;" horiz-adv-x="1622" d="M199 0v1434h200l789 -998v998h235v-1434h-200l-789 993v-993h-235zM455 1692q44 51 106.5 80.5t122.5 29.5q63 0 151 -35.5t142 -35.5q96 0 156 65l63 -149q-84 -121 -235 -121q-50 0 -143.5 35.5t-153.5 35.5q-70 0 -136 -55z" />
<glyph unicode="&#xd2;" horiz-adv-x="1677" d="M92 717q0 154 55 290.5t152.5 235.5t237 156t301.5 57q212 0 381.5 -91t267.5 -260t98 -388q0 -212 -97.5 -381.5t-268 -264t-381.5 -94.5q-212 0 -381.5 91t-267 260.5t-97.5 388.5zM358 717q0 -214 139 -359t341 -145q220 0 350.5 143t130.5 361q0 220 -138 362 t-343 142q-207 0 -343.5 -141.5t-136.5 -362.5zM526 1663l88 203l439 -228l-66 -141z" />
<glyph unicode="&#xd3;" horiz-adv-x="1677" d="M92 717q0 154 55 290.5t152.5 235.5t237 156t301.5 57q212 0 381.5 -91t267.5 -260t98 -388q0 -212 -97.5 -381.5t-268 -264t-381.5 -94.5q-212 0 -381.5 91t-267 260.5t-97.5 388.5zM358 717q0 -214 139 -359t341 -145q220 0 350.5 143t130.5 361q0 220 -138 362 t-343 142q-207 0 -343.5 -141.5t-136.5 -362.5zM680 1638l438 228l88 -203l-461 -166z" />
<glyph unicode="&#xd4;" horiz-adv-x="1677" d="M92 717q0 154 55 290.5t152.5 235.5t237 156t301.5 57q212 0 381.5 -91t267.5 -260t98 -388q0 -212 -97.5 -381.5t-268 -264t-381.5 -94.5q-212 0 -381.5 91t-267 260.5t-97.5 388.5zM358 717q0 -214 139 -359t341 -145q220 0 350.5 143t130.5 361q0 220 -138 362 t-343 142q-207 0 -343.5 -141.5t-136.5 -362.5zM477 1622l359 229h8l366 -227l-92 -133l-278 145l-279 -145z" />
<glyph unicode="&#xd5;" horiz-adv-x="1677" d="M92 717q0 154 55 290.5t152.5 235.5t237 156t301.5 57q212 0 381.5 -91t267.5 -260t98 -388q0 -212 -97.5 -381.5t-268 -264t-381.5 -94.5q-212 0 -381.5 91t-267 260.5t-97.5 388.5zM358 717q0 -214 139 -359t341 -145q220 0 350.5 143t130.5 361q0 220 -138 362 t-343 142q-207 0 -343.5 -141.5t-136.5 -362.5zM459 1692q44 51 106.5 80.5t122.5 29.5q63 0 151 -35.5t142 -35.5q96 0 156 65l63 -149q-84 -121 -235 -121q-50 0 -143.5 35.5t-153.5 35.5q-70 0 -136 -55z" />
<glyph unicode="&#xd6;" horiz-adv-x="1677" d="M92 717q0 154 55 290.5t152.5 235.5t237 156t301.5 57q212 0 381.5 -91t267.5 -260t98 -388q0 -212 -97.5 -381.5t-268 -264t-381.5 -94.5q-212 0 -381.5 91t-267 260.5t-97.5 388.5zM358 717q0 -214 139 -359t341 -145q220 0 350.5 143t130.5 361q0 220 -138 362 t-343 142q-207 0 -343.5 -141.5t-136.5 -362.5zM442 1690q0 58 45.5 92.5t112.5 34.5q59 0 102 -35t43 -92q0 -63 -43 -99.5t-102 -36.5q-68 0 -113 36t-45 100zM918 1690q0 58 45 92.5t112 34.5q60 0 103 -34.5t43 -92.5q0 -63 -43 -99.5t-103 -36.5q-67 0 -112 36t-45 100 z" />
<glyph unicode="&#xd7;" d="M201 473l264 264l-262 262l145 146l262 -262l262 262l146 -146l-262 -262l264 -264l-146 -145l-264 264l-264 -264z" />
<glyph unicode="&#xd8;" horiz-adv-x="1677" d="M92 717q0 154 55 290.5t152.5 235.5t237 156t301.5 57q257 0 454 -139l82 80l135 -137l-77 -76q153 -196 153 -467q0 -212 -97.5 -381.5t-268 -264t-381.5 -94.5q-282 0 -480 156l-86 -84l-137 139l88 86q-131 186 -131 443zM358 717q0 -138 60 -252l692 674 q-125 82 -272 82q-207 0 -343.5 -141.5t-136.5 -362.5zM545 315q124 -102 293 -102q220 0 350.5 143t130.5 361q0 154 -76 280z" />
<glyph unicode="&#xd9;" horiz-adv-x="1538" d="M178 608v826h252v-772q0 -209 89 -329t269 -120q320 0 320 432v789h250v-840q0 -128 -30.5 -232t-83.5 -175t-125.5 -119t-155.5 -69.5t-175 -21.5q-135 0 -246 40t-192.5 117.5t-126.5 198.5t-45 275zM430 1663l88 203l438 -228l-65 -141z" />
<glyph unicode="&#xda;" horiz-adv-x="1538" d="M178 608v826h252v-772q0 -209 89 -329t269 -120q320 0 320 432v789h250v-840q0 -128 -30.5 -232t-83.5 -175t-125.5 -119t-155.5 -69.5t-175 -21.5q-135 0 -246 40t-192.5 117.5t-126.5 198.5t-45 275zM604 1638l438 228l88 -203l-460 -166z" />
<glyph unicode="&#xdb;" horiz-adv-x="1538" d="M178 608v826h252v-772q0 -209 89 -329t269 -120q320 0 320 432v789h250v-840q0 -128 -30.5 -232t-83.5 -175t-125.5 -119t-155.5 -69.5t-175 -21.5q-135 0 -246 40t-192.5 117.5t-126.5 198.5t-45 275zM399 1622l359 229h8l367 -227l-93 -133l-278 145l-279 -145z" />
<glyph unicode="&#xdc;" horiz-adv-x="1538" d="M178 608v826h252v-772q0 -209 89 -329t269 -120q320 0 320 432v789h250v-840q0 -128 -30.5 -232t-83.5 -175t-125.5 -119t-155.5 -69.5t-175 -21.5q-135 0 -246 40t-192.5 117.5t-126.5 198.5t-45 275zM365 1690q0 58 45 92.5t112 34.5q59 0 102.5 -35t43.5 -92 q0 -63 -43.5 -99.5t-102.5 -36.5q-67 0 -112 36t-45 100zM840 1690q0 58 45 92.5t112 34.5q60 0 103 -34.5t43 -92.5q0 -63 -43 -99.5t-103 -36.5q-67 0 -112 36t-45 100z" />
<glyph unicode="&#xdd;" horiz-adv-x="1288" d="M10 1434h287l356 -600l353 600h272l-510 -836v-598h-252v598zM481 1638l439 228l88 -203l-461 -166z" />
<glyph unicode="&#xde;" horiz-adv-x="1253" d="M199 0v1434h252v-211q16 0 77.5 2t77.5 2q103 0 187.5 -17.5t144 -49.5t103.5 -74t70 -94.5t38 -107.5t12 -116q0 -93 -34.5 -176.5t-98.5 -148.5t-165.5 -103.5t-225.5 -38.5q-105 0 -186 8v-309h-252zM451 547q98 -10 178 -10q119 0 192.5 59t73.5 174q0 109 -73 165 t-212 56q-100 0 -159 -6v-438z" />
<glyph unicode="&#xdf;" horiz-adv-x="1128" d="M127 -2v1026q0 221 110 326.5t314 105.5q149 0 248.5 -82t99.5 -200q0 -57 -17 -101.5t-41.5 -72.5t-49 -53.5t-41.5 -58t-17 -71.5q0 -40 18.5 -72.5t48 -56.5t65 -47.5t71 -52t65 -63t48 -86.5t18.5 -117q0 -143 -92 -244t-234 -101q-100 0 -176.5 33.5t-122.5 87.5 l76 181q82 -82 166 -82q58 0 94.5 34.5t36.5 96.5q0 37 -18.5 70t-48 58t-65 50t-71 51.5t-65 55.5t-48 69.5t-18.5 87.5q0 59 17.5 106.5t42 77.5t49 56t42 55.5t17.5 62.5q0 46 -38 76.5t-95 30.5q-80 0 -117 -55.5t-37 -175.5v-1006h-235z" />
<glyph unicode="&#xe0;" horiz-adv-x="1251" d="M12 0l502 1077h223l502 -1077h-268l-101 221h-505l-101 -221h-252zM375 1409l143 180l275 -291l-115 -131zM469 455h297l-148 329z" />
<glyph unicode="&#xe1;" horiz-adv-x="1251" d="M12 0l502 1077h223l502 -1077h-268l-101 221h-505l-101 -221h-252zM467 1298l272 291l146 -180l-305 -242zM469 455h297l-148 329z" />
<glyph unicode="&#xe2;" horiz-adv-x="1251" d="M12 0l502 1077h223l502 -1077h-268l-101 221h-505l-101 -221h-252zM299 1286l324 248h8l321 -250l-110 -139l-217 164l-219 -160zM469 455h297l-148 329z" />
<glyph unicode="&#xe3;" horiz-adv-x="1251" d="M12 0l502 1077h223l502 -1077h-268l-101 221h-505l-101 -221h-252zM274 1307q111 139 248 139q40 0 81.5 -21t80.5 -42t74 -21q29 0 53.5 8.5t39 18.5t48.5 36l80 -118q-123 -136 -240 -136q-45 0 -119 43t-120 43q-42 0 -129 -57zM469 455h297l-148 329z" />
<glyph unicode="&#xe4;" horiz-adv-x="1251" d="M12 0l502 1077h223l502 -1077h-268l-101 221h-505l-101 -221h-252zM315 1321q0 56 38.5 89.5t95.5 33.5q46 0 82 -34.5t36 -88.5q0 -58 -36 -92.5t-82 -34.5q-58 0 -96 34t-38 93zM469 455h297l-148 329zM682 1321q0 55 38.5 89t92.5 34q48 0 85.5 -34t37.5 -89 q0 -58 -37 -92.5t-86 -34.5q-55 0 -93 34t-38 93z" />
<glyph unicode="&#xe5;" horiz-adv-x="1251" d="M12 0l502 1077h223l502 -1077h-268l-101 221h-505l-101 -221h-252zM365 1356q0 103 73.5 174.5t184.5 71.5q113 0 187.5 -71.5t74.5 -174.5q0 -102 -74.5 -173t-187.5 -71q-111 0 -184.5 71t-73.5 173zM469 455h297l-148 329zM516 1358q0 -50 31 -83.5t80 -33.5 q47 0 76.5 33.5t29.5 83.5q0 48 -30 81.5t-76 33.5q-49 0 -80 -33.5t-31 -81.5z" />
<glyph unicode="&#xe6;" horiz-adv-x="1628" d="M-61 0l350 434q1 3 514 641h700v-235h-454v-181h403v-235h-403v-188h473v-236h-723v219h-398l-172 -219h-290zM590 455h209v268z" />
<glyph unicode="&#xe7;" horiz-adv-x="1124" d="M72 535q0 113 38 211.5t110.5 176t190.5 122.5t267 45q114 0 211 -31t158 -80l-113 -188q-63 31 -119.5 47t-134.5 16q-154 0 -248 -83t-94 -236q0 -143 100.5 -232.5t268.5 -89.5q150 0 268 78l96 -189q-55 -53 -159 -88.5t-218 -36.5v-49q104 -6 158.5 -51t54.5 -123 q0 -81 -73.5 -130.5t-208.5 -49.5q-60 0 -113 16t-76 30.5t-57 39.5l70 111q69 -54 143 -54q35 0 57.5 14t22.5 38q0 57 -84 57h-13v158q-233 29 -368 176.5t-135 374.5z" />
<glyph unicode="&#xe8;" horiz-adv-x="1019" d="M160 0v1075h735v-235h-485v-181h436v-235h-436v-188h503v-236h-753zM289 1409l143 180l275 -291l-115 -131z" />
<glyph unicode="&#xe9;" horiz-adv-x="1019" d="M160 0v1075h735v-235h-485v-181h436v-235h-436v-188h503v-236h-753zM356 1298l273 291l145 -180l-305 -242z" />
<glyph unicode="&#xea;" horiz-adv-x="1019" d="M160 0v1075h735v-235h-485v-181h436v-235h-436v-188h503v-236h-753zM201 1286l323 248h8l322 -250l-111 -139l-217 164l-219 -160z" />
<glyph unicode="&#xeb;" horiz-adv-x="1019" d="M160 0v1075h735v-235h-485v-181h436v-235h-436v-188h503v-236h-753zM225 1321q0 56 38 89.5t95 33.5q46 0 82.5 -34.5t36.5 -88.5q0 -58 -36.5 -92.5t-82.5 -34.5q-58 0 -95.5 33.5t-37.5 93.5zM592 1321q0 55 38.5 89t92.5 34q48 0 85.5 -34t37.5 -89q0 -58 -37 -92.5 t-86 -34.5q-55 0 -93 34t-38 93z" />
<glyph unicode="&#xec;" horiz-adv-x="608" d="M53 1409l144 180l274 -291l-115 -131zM178 0v1075h252v-1075h-252z" />
<glyph unicode="&#xed;" horiz-adv-x="608" d="M172 1298l272 291l146 -180l-305 -242zM178 0v1075h252v-1075h-252z" />
<glyph unicode="&#xee;" horiz-adv-x="608" d="M-20 1286l323 248h8l322 -250l-111 -139l-217 164l-219 -160zM178 0v1075h252v-1075h-252z" />
<glyph unicode="&#xef;" horiz-adv-x="608" d="M-4 1321q0 56 38 89.5t95 33.5q46 0 82.5 -34.5t36.5 -88.5q0 -58 -36.5 -92.5t-82.5 -34.5q-58 0 -95.5 33.5t-37.5 93.5zM178 0v1075h252v-1075h-252zM362 1321q0 55 38.5 89t93.5 34q48 0 85 -34t37 -89q0 -58 -36.5 -92.5t-85.5 -34.5q-55 0 -93.5 34t-38.5 93z" />
<glyph unicode="&#xf0;" horiz-adv-x="1280" d="M18 434v219h146v422h24q27 0 170.5 2t208.5 2q162 0 287.5 -42.5t201 -116.5t114 -169t38.5 -206q0 -113 -43 -212t-122 -174.5t-201.5 -119t-272.5 -43.5q-58 0 -189.5 2t-186.5 2h-29v434h-146zM414 236q113 -5 135 -5q186 0 289.5 82t103.5 232q0 146 -98 222.5 t-271 76.5q-104 0 -159 -8v-183h291v-219h-291v-198z" />
<glyph unicode="&#xf1;" horiz-adv-x="1357" d="M160 0v1075h200l603 -669v669h235v-1075h-201l-602 668v-668h-235zM311 1307q111 139 248 139q49 0 122 -42t114 -42q29 0 53.5 8.5t39 18.5t48.5 36l80 -118q-123 -136 -240 -136q-45 0 -119 43t-120 43q-42 0 -129 -57z" />
<glyph unicode="&#xf2;" horiz-adv-x="1349" d="M72 535q0 116 44 218t121.5 176.5t191 117.5t245.5 43q174 0 310.5 -66.5t215 -193.5t78.5 -295q0 -161 -78 -288.5t-216 -198.5t-310 -71q-173 0 -309 67t-214.5 194.5t-78.5 296.5zM338 535q0 -136 97.5 -229t238.5 -93q160 0 249 90.5t89 231.5q0 144 -96.5 231.5 t-241.5 87.5q-148 0 -242 -87t-94 -232zM401 1409l144 180l274 -291l-114 -131z" />
<glyph unicode="&#xf3;" horiz-adv-x="1349" d="M72 535q0 116 44 218t121.5 176.5t191 117.5t245.5 43q174 0 310.5 -66.5t215 -193.5t78.5 -295q0 -161 -78 -288.5t-216 -198.5t-310 -71q-173 0 -309 67t-214.5 194.5t-78.5 296.5zM338 535q0 -136 97.5 -229t238.5 -93q160 0 249 90.5t89 231.5q0 144 -96.5 231.5 t-241.5 87.5q-148 0 -242 -87t-94 -232zM530 1298l273 291l145 -180l-305 -242z" />
<glyph unicode="&#xf4;" horiz-adv-x="1349" d="M72 535q0 116 44 218t121.5 176.5t191 117.5t245.5 43q174 0 310.5 -66.5t215 -193.5t78.5 -295q0 -161 -78 -288.5t-216 -198.5t-310 -71q-173 0 -309 67t-214.5 194.5t-78.5 296.5zM338 535q0 -136 97.5 -229t238.5 -93q160 0 249 90.5t89 231.5q0 144 -96.5 231.5 t-241.5 87.5q-148 0 -242 -87t-94 -232zM348 1286l324 248h8l321 -250l-110 -139l-217 164l-219 -160z" />
<glyph unicode="&#xf5;" horiz-adv-x="1349" d="M72 535q0 116 44 218t121.5 176.5t191 117.5t245.5 43q174 0 310.5 -66.5t215 -193.5t78.5 -295q0 -161 -78 -288.5t-216 -198.5t-310 -71q-173 0 -309 67t-214.5 194.5t-78.5 296.5zM324 1307q111 139 247 139q49 0 122 -42t114 -42q29 0 53.5 8.5t39 18.5t48.5 36 l80 -118q-123 -136 -240 -136q-45 0 -119 43t-120 43q-42 0 -129 -57zM338 535q0 -136 97.5 -229t238.5 -93q160 0 249 90.5t89 231.5q0 144 -96.5 231.5t-241.5 87.5q-148 0 -242 -87t-94 -232z" />
<glyph unicode="&#xf6;" horiz-adv-x="1349" d="M72 535q0 116 44 218t121.5 176.5t191 117.5t245.5 43q174 0 310.5 -66.5t215 -193.5t78.5 -295q0 -161 -78 -288.5t-216 -198.5t-310 -71q-173 0 -309 67t-214.5 194.5t-78.5 296.5zM338 535q0 -136 97.5 -229t238.5 -93q160 0 249 90.5t89 231.5q0 144 -96.5 231.5 t-241.5 87.5q-148 0 -242 -87t-94 -232zM365 1321q0 56 38 89.5t95 33.5q46 0 82 -34.5t36 -88.5q0 -58 -36 -92.5t-82 -34.5q-58 0 -95.5 33.5t-37.5 93.5zM731 1321q0 55 38.5 89t92.5 34q48 0 85.5 -34t37.5 -89q0 -58 -37 -92.5t-86 -34.5q-55 0 -93 34t-38 93z" />
<glyph unicode="&#xf7;" d="M135 635v205h950v-205h-950zM471 336q0 52 38 93.5t101 41.5q60 0 99 -42t39 -93q0 -58 -38 -100.5t-100 -42.5q-64 0 -101.5 42t-37.5 101zM471 1141q0 53 37.5 93t101.5 40q62 0 100 -40t38 -93q0 -57 -38 -100.5t-100 -43.5q-64 0 -101.5 43t-37.5 101z" />
<glyph unicode="&#xf8;" horiz-adv-x="1349" d="M72 535q0 116 44 218t121.5 176.5t191 117.5t245.5 43q196 0 352 -91l102 101l136 -139l-93 -91q107 -142 107 -335q0 -161 -78 -288.5t-216 -198.5t-310 -71q-189 0 -336 80l-98 -96l-136 139l84 82q-116 144 -116 353zM338 535q0 -94 43 -164l459 446q-73 37 -166 37 q-148 0 -242 -87t-94 -232zM528 242q69 -29 146 -29q160 0 249 90.5t89 231.5q0 82 -35 147z" />
<glyph unicode="&#xf9;" horiz-adv-x="1288" d="M141 453v622h252v-567q0 -134 63.5 -213.5t202.5 -79.5q125 0 180.5 72t55.5 207v581h252v-633q0 -96 -26.5 -174t-71.5 -131t-107.5 -89t-133 -52t-149.5 -16q-236 0 -377 122t-141 351zM360 1409l144 180l274 -291l-114 -131z" />
<glyph unicode="&#xfa;" horiz-adv-x="1288" d="M141 453v622h252v-567q0 -134 63.5 -213.5t202.5 -79.5q125 0 180.5 72t55.5 207v581h252v-633q0 -96 -26.5 -174t-71.5 -131t-107.5 -89t-133 -52t-149.5 -16q-236 0 -377 122t-141 351zM500 1298l272 291l146 -180l-306 -242z" />
<glyph unicode="&#xfb;" horiz-adv-x="1288" d="M141 453v622h252v-567q0 -134 63.5 -213.5t202.5 -79.5q125 0 180.5 72t55.5 207v581h252v-633q0 -96 -26.5 -174t-71.5 -131t-107.5 -89t-133 -52t-149.5 -16q-236 0 -377 122t-141 351zM317 1286l324 248h8l322 -250l-111 -139l-217 164l-219 -160z" />
<glyph unicode="&#xfc;" horiz-adv-x="1288" d="M141 453v622h252v-567q0 -134 63.5 -213.5t202.5 -79.5q125 0 180.5 72t55.5 207v581h252v-633q0 -96 -26.5 -174t-71.5 -131t-107.5 -89t-133 -52t-149.5 -16q-236 0 -377 122t-141 351zM334 1321q0 56 38 89.5t95 33.5q46 0 82.5 -34.5t36.5 -88.5q0 -58 -36.5 -92.5 t-82.5 -34.5q-58 0 -95.5 33.5t-37.5 93.5zM700 1321q0 55 38.5 89t92.5 34q48 0 85.5 -34t37.5 -89q0 -58 -37 -92.5t-86 -34.5q-55 0 -93 34t-38 93z" />
<glyph unicode="&#xfd;" horiz-adv-x="1105" d="M4 1075h303l254 -403l256 403h285l-426 -639v-436h-250v436zM391 1298l273 291l145 -180l-305 -242z" />
<glyph unicode="&#xfe;" horiz-adv-x="1067" d="M160 0v1075h250v-123q5 0 56.5 1t82.5 1q96 0 173 -22.5t127 -60t83.5 -88t48 -104.5t14.5 -112q0 -74 -27.5 -143t-80 -125.5t-137.5 -90.5t-191 -34q-86 0 -149 8v-182h-250zM410 418q57 -8 122 -8q93 0 145 45t52 114q0 64 -46 107t-142 43q-102 0 -131 -4v-297z" />
<glyph unicode="&#xff;" horiz-adv-x="1105" d="M4 1075h303l254 -403l256 403h285l-426 -639v-436h-250v436zM244 1321q0 56 38 89.5t95 33.5q46 0 82.5 -34.5t36.5 -88.5q0 -58 -36.5 -92.5t-82.5 -34.5q-58 0 -95.5 33.5t-37.5 93.5zM610 1321q0 55 38.5 89t92.5 34q48 0 85.5 -34t37.5 -89q0 -58 -37 -92.5 t-86 -34.5q-55 0 -93 34t-38 93z" />
<glyph unicode="&#x2c6;" horiz-adv-x="899" d="M123 1286l323 248h9l321 -250l-110 -139l-217 164l-220 -160z" />
<glyph unicode="&#x2da;" horiz-adv-x="765" d="M123 1337q0 103 73.5 174.5t184.5 71.5q113 0 187.5 -71.5t74.5 -174.5q0 -102 -74.5 -172.5t-187.5 -70.5q-111 0 -184.5 70.5t-73.5 172.5zM274 1339q0 -50 31 -83t80 -33q47 0 77 33t30 83q0 48 -30.5 81.5t-76.5 33.5q-49 0 -80 -33.5t-31 -81.5z" />
<glyph unicode="&#x2dc;" horiz-adv-x="950" d="M123 1307q111 139 248 139q40 0 81.5 -21t80 -42t73.5 -21q29 0 53.5 8.5t40 19t48.5 35.5l79 -118q-123 -136 -239 -136q-45 0 -119.5 43t-120.5 43q-42 0 -129 -57z" />
<glyph unicode="&#x401;" horiz-adv-x="1177" d="M199 0v1434h829v-236h-577v-356h516v-236h-516v-370h598v-236h-850zM244 1690q0 58 45 92.5t112 34.5q59 0 102.5 -35t43.5 -92q0 -63 -43.5 -99.5t-102.5 -36.5q-67 0 -112 36t-45 100zM719 1690q0 58 45.5 92.5t112.5 34.5q60 0 102.5 -34.5t42.5 -92.5 q0 -63 -42.5 -99.5t-102.5 -36.5q-67 0 -112.5 36t-45.5 100z" />
<glyph unicode="&#x402;" horiz-adv-x="1564" d="M20 1198v236h1182v-236h-465v-414q136 82 305 82q74 0 136.5 -13.5t118 -46t93.5 -83t60.5 -128.5t22.5 -179q0 -218 -97.5 -328.5t-269.5 -110.5q-77 0 -146.5 28t-97.5 61l84 192q59 -45 127 -45q71 0 110.5 48.5t39.5 150.5q0 115 -58.5 167t-169.5 52 q-133 0 -258 -76v-555h-252v1198h-465z" />
<glyph unicode="&#x403;" horiz-adv-x="1038" d="M199 0v1434h809v-236h-557v-1198h-252zM516 1638l438 228l88 -203l-460 -166z" />
<glyph unicode="&#x404;" horiz-adv-x="1378" d="M92 717q0 216 92 384.5t256 261.5t373 93q156 0 284.5 -44.5t209.5 -113.5l-113 -188q-146 111 -336 111q-202 0 -334.5 -98t-169.5 -275h641v-236h-645q16 -98 64.5 -175.5t118.5 -125.5t155 -73t180 -25q202 0 363 125l92 -211q-78 -67 -204 -108.5t-271 -41.5 q-346 0 -551 199.5t-205 540.5z" />
<glyph unicode="&#x405;" horiz-adv-x="1132" d="M92 203l144 172q60 -78 150.5 -120t178.5 -42q92 0 150.5 44.5t58.5 123.5q0 50 -28 91t-73.5 68.5t-104 57t-119 54.5t-119 63t-104 82t-73.5 112t-28 152q0 167 121.5 281t324.5 114q130 0 237.5 -40.5t172.5 -112.5l-135 -189q-56 55 -114 81t-140 26 q-93 0 -147 -43.5t-54 -114.5q0 -60 36 -105.5t93 -76.5t126 -59.5t138.5 -64.5t126.5 -82t93 -120.5t36 -171.5q0 -179 -137.5 -292.5t-341.5 -113.5q-147 0 -283 61t-186 165z" />
<glyph unicode="&#x406;" horiz-adv-x="710" d="M229 0v1434h252v-1434h-252z" />
<glyph unicode="&#x407;" horiz-adv-x="710" d="M53 1690q0 57 39 92t96 35q53 0 91 -35t38 -92q0 -63 -37.5 -99.5t-91.5 -36.5q-58 0 -96.5 36t-38.5 100zM229 0v1434h252v-1434h-252zM395 1690q0 57 39.5 92t97.5 35q52 0 89.5 -35.5t37.5 -91.5q0 -63 -37.5 -99.5t-89.5 -36.5q-59 0 -98 36t-39 100z" />
<glyph unicode="&#x408;" horiz-adv-x="798" d="M10 66l82 192q59 -45 127 -45q129 0 129 168v1053h252v-1096q0 -174 -87 -267.5t-259 -93.5q-77 0 -145.5 27t-98.5 62z" />
<glyph unicode="&#x409;" horiz-adv-x="2070" d="M45 0l6 250q19 0 38 -1.5t39.5 9.5t40.5 26t40.5 49.5t39 79t36.5 114.5t33 156.5t29 204.5t24 259l20 287h903v-492q79 10 158 10q260 0 393 -123t133 -340q0 -231 -152.5 -362t-426.5 -131q-75 0 -198 2t-157 2v1198h-417l-29 -270q-25 -246 -63.5 -420.5t-85.5 -279 t-112 -159.5t-133 -68.5t-159 -0.5zM1294 238q11 -1 57.5 -4t75.5 -3q139 0 212 63.5t73 188.5q0 114 -73 174t-207 60q-46 0 -138 -10v-469z" />
<glyph unicode="&#x40a;" horiz-adv-x="2113" d="M199 0v1434h252v-537h634v537h250v-527q88 8 160 8q260 0 393 -119t133 -325q0 -219 -153 -347t-426 -128q-75 0 -198 2t-157 2h-2v662h-634v-662h-252zM1335 238q13 -1 60 -4t75 -3q139 0 212 59.5t73 174.5q0 104 -73.5 159.5t-206.5 55.5q-69 0 -140 -10v-432z" />
<glyph unicode="&#x40b;" horiz-adv-x="1566" d="M20 1198v236h1182v-236h-465v-414q130 82 307 82q68 0 128.5 -14.5t116.5 -48.5t97 -85.5t65 -130t24 -177.5v-410h-250v336q0 161 -65.5 228t-180.5 67q-122 0 -242 -78v-553h-252v1198h-465z" />
<glyph unicode="&#x40c;" horiz-adv-x="1376" d="M199 0v1434h252v-680l565 680h303l-590 -668l627 -766h-320l-585 739v-739h-252zM608 1638l439 228l88 -203l-461 -166z" />
<glyph unicode="&#x40e;" horiz-adv-x="1398" d="M25 1434h284l469 -801l342 801h254l-487 -1100q-76 -170 -167.5 -252t-221.5 -82q-54 0 -110.5 16.5t-86.5 40.5l88 213q49 -34 107 -34q93 0 141 100l20 49zM319 1782h236q24 -119 174 -119q153 0 164 119h235q-4 -131 -116.5 -212t-282.5 -81q-182 0 -290.5 80 t-119.5 213z" />
<glyph unicode="&#x40f;" horiz-adv-x="1519" d="M199 0v1434h252v-1198h618v1198h252v-1434h-444v-313h-236v313h-442z" />
<glyph unicode="&#x410;" horiz-adv-x="1464" d="M14 0l607 1438h221l606 -1438h-268l-150 367h-612l-150 -367h-254zM514 602h420l-209 510z" />
<glyph unicode="&#x411;" horiz-adv-x="1257" d="M199 0v1434h837v-236h-585v-319q83 12 192 12q223 0 352 -116.5t129 -315.5q0 -223 -144.5 -345t-408.5 -122q-93 0 -216.5 4t-155.5 4zM451 236q128 -9 159 -9q134 0 199 56.5t65 156.5q0 98 -62.5 156.5t-188.5 58.5q-77 0 -172 -12v-407z" />
<glyph unicode="&#x412;" horiz-adv-x="1263" d="M199 2v1428q200 10 413 10q125 0 217.5 -27t147 -76t80.5 -112t26 -140q0 -230 -204 -325v-4q112 -28 181.5 -113t69.5 -221q0 -108 -40 -191t-112.5 -135t-168 -78t-211.5 -26q-259 0 -399 10zM451 238q96 -11 165 -11q128 0 195.5 53t67.5 154q0 90 -65 136t-185 46 h-178v-378zM451 836h170q93 0 153 48t60 142q0 86 -61 132t-165 46q-90 0 -157 -6v-362z" />
<glyph unicode="&#x413;" horiz-adv-x="1038" d="M199 0v1434h809v-236h-557v-1198h-252z" />
<glyph unicode="&#x414;" horiz-adv-x="1548" d="M25 236h153q26 32 57 101t66 178.5t62 276.5t36 355l15 287h889v-1198h194v-492h-235v256h-1002v-256h-235v492zM455 236h598v962h-396l-22 -250q-18 -251 -75.5 -452.5t-104.5 -259.5z" />
<glyph unicode="&#x415;" horiz-adv-x="1177" d="M199 0v1434h829v-236h-577v-356h516v-236h-516v-370h598v-236h-850z" />
<glyph unicode="&#x416;" horiz-adv-x="1953" d="M20 0l562 748l-539 686h289l520 -684v684h250v-684l518 684h291l-539 -684l561 -750h-291l-540 743v-743h-250v743l-543 -743h-289z" />
<glyph unicode="&#x417;" horiz-adv-x="1198" d="M72 219l137 170q68 -77 162 -126.5t180 -49.5q111 0 187.5 54.5t76.5 158.5q0 87 -65.5 137.5t-188.5 50.5h-147v236h139q84 0 145.5 51.5t61.5 136.5q0 89 -58 136t-151 47q-173 0 -291 -156l-145 168q72 101 196 162t269 61q194 0 312 -103.5t118 -289.5 q0 -89 -49 -174t-144 -141v-7q124 -31 186 -121t62 -219q0 -127 -72 -225.5t-185 -148.5t-245 -50q-120 0 -222.5 38t-164.5 89.5t-104 114.5z" />
<glyph unicode="&#x418;" horiz-adv-x="1622" d="M199 0v1434h252v-1020l751 1020h221v-1434h-252v1018l-751 -1018h-221z" />
<glyph unicode="&#x419;" horiz-adv-x="1622" d="M199 0v1434h252v-1020l751 1020h221v-1434h-252v1018l-751 -1018h-221zM426 1782h236q24 -119 174 -119q152 0 163 119h236q-4 -131 -116.5 -212t-282.5 -81q-182 0 -290.5 80t-119.5 213z" />
<glyph unicode="&#x41a;" horiz-adv-x="1376" d="M199 0v1434h252v-680l565 680h303l-590 -668l627 -766h-320l-585 739v-739h-252z" />
<glyph unicode="&#x41b;" horiz-adv-x="1492" d="M45 0l6 250q19 0 38 -1.5t39.5 9.5t40.5 26t40.5 49.5t39 79t36.5 114.5t33 156.5t29 204.5t24 259l20 287h903v-1434h-250v1198h-417l-29 -270q-25 -246 -63.5 -420.5t-85.5 -279t-112 -159.5t-133 -68.5t-159 -0.5z" />
<glyph unicode="&#x41c;" horiz-adv-x="1845" d="M199 0v1434h254l489 -670l467 670h238v-1434h-250v1036l-453 -637h-37l-456 631v-1030h-252z" />
<glyph unicode="&#x41d;" horiz-adv-x="1554" d="M199 0v1434h252v-586h655v586h250v-1434h-250v612h-655v-612h-252z" />
<glyph unicode="&#x41e;" horiz-adv-x="1677" d="M92 717q0 154 55 290.5t152.5 235.5t237 156t301.5 57q212 0 381.5 -91t267.5 -260t98 -388q0 -212 -97.5 -381.5t-268 -264t-381.5 -94.5q-212 0 -381.5 91t-267 260.5t-97.5 388.5zM358 717q0 -214 139 -359t341 -145q220 0 350.5 143t130.5 361q0 220 -138 362 t-343 142q-207 0 -343.5 -141.5t-136.5 -362.5z" />
<glyph unicode="&#x41f;" horiz-adv-x="1540" d="M199 0v1434h1142v-1434h-251v1198h-639v-1198h-252z" />
<glyph unicode="&#x420;" horiz-adv-x="1253" d="M199 0v1434q38 0 196.5 2t210.5 2q123 0 219.5 -25.5t158.5 -68.5t102.5 -103t57.5 -125t17 -139q0 -93 -34.5 -176t-98.5 -148t-165.5 -103t-225.5 -38q-125 0 -186 6v-518h-252zM451 758q98 -10 178 -10q119 0 192.5 58t73.5 173q0 223 -264 223q-44 0 -180 -4v-440z " />
<glyph unicode="&#x421;" horiz-adv-x="1341" d="M92 717q0 155 48.5 289t139.5 234.5t231.5 158t313.5 57.5q136 0 250 -39t187 -106l-113 -187q-146 97 -324 97q-204 0 -335.5 -137.5t-131.5 -366.5q0 -224 138 -364t358 -140q192 0 340 115l96 -189q-68 -72 -194 -117t-265 -45q-217 0 -385 91.5t-261 260t-93 388.5z " />
<glyph unicode="&#x422;" horiz-adv-x="1222" d="M20 1198v236h1182v-236h-465v-1198h-252v1198h-465z" />
<glyph unicode="&#x423;" horiz-adv-x="1398" d="M25 1434h284l469 -801l342 801h254l-487 -1100q-76 -170 -167.5 -252t-221.5 -82q-54 0 -110.5 16.5t-86.5 40.5l88 213q49 -34 107 -34q93 0 141 100l20 49z" />
<glyph unicode="&#x424;" horiz-adv-x="1718" d="M72 737q0 263 180 410.5t481 152.5v150h252v-150q299 -5 480.5 -154.5t181.5 -408.5q0 -176 -84.5 -304t-233 -193t-344.5 -66v-190h-252v190q-302 0 -481.5 148t-179.5 415zM338 737q0 -160 102.5 -244.5t292.5 -86.5v663q-192 -1 -293.5 -91t-101.5 -241zM985 406 q395 3 395 331q0 150 -100 239.5t-295 92.5v-663z" />
<glyph unicode="&#x425;" horiz-adv-x="1370" d="M20 0l502 731l-479 703h295l352 -519l346 519h295l-483 -703l502 -731h-295l-371 539l-369 -539h-295z" />
<glyph unicode="&#x426;" horiz-adv-x="1576" d="M199 0v1434h252v-1198h628v1198h252v-1198h195v-492h-236v256h-1091z" />
<glyph unicode="&#x427;" horiz-adv-x="1366" d="M137 948v486h252v-414q0 -295 252 -295q139 0 274 92v617h252v-1434h-252v588q-58 -42 -146.5 -70.5t-195.5 -28.5q-86 0 -160.5 24.5t-138 76t-100.5 143.5t-37 215z" />
<glyph unicode="&#x428;" horiz-adv-x="2041" d="M199 0v1434h252v-1198h444v1198h252v-1198h444v1198h252v-1434h-1644z" />
<glyph unicode="&#x429;" horiz-adv-x="2088" d="M199 0v1434h252v-1198h444v1198h252v-1198h444v1198h252v-1198h195v-492h-236v256h-1603z" />
<glyph unicode="&#x42a;" horiz-adv-x="1378" d="M14 1198v236h566v-492q82 10 165 10q271 0 406 -122.5t135 -340.5q0 -230 -156 -361.5t-440 -131.5q-74 0 -199 2t-161 2v1198h-316zM580 238q11 0 61.5 -3.5t79.5 -3.5q143 0 221 62t78 190q0 118 -79 176t-216 58q-50 0 -145 -10v-469z" />
<glyph unicode="&#x42b;" horiz-adv-x="1769" d="M199 0v1434h252v-492q79 10 159 10q259 0 392 -123t133 -340q0 -229 -153.5 -361t-426.5 -132q-74 0 -197 2t-159 2zM451 238q11 0 58.5 -3.5t76.5 -3.5q139 0 210.5 63.5t71.5 188.5q0 114 -72.5 174t-205.5 60q-44 0 -139 -10v-469zM1321 0v1434h250v-1434h-250z" />
<glyph unicode="&#x42c;" horiz-adv-x="1247" d="M199 0v1434h252v-492q79 10 163 10q271 0 406 -122.5t135 -340.5q0 -230 -155.5 -361.5t-438.5 -131.5q-75 0 -201 2t-161 2zM451 238q9 0 59.5 -3.5t79.5 -3.5q143 0 221 62t78 190q0 118 -79 176t-216 58q-48 0 -143 -10v-469z" />
<glyph unicode="&#x42d;" horiz-adv-x="1378" d="M55 127l109 211q161 -125 368 -125q125 0 228 44t175 135.5t93 219.5h-645v236h639q-36 178 -173.5 275.5t-342.5 97.5q-190 0 -336 -111l-98 188q81 70 209 114t284 44q157 0 290.5 -53t228.5 -148t148.5 -233t53.5 -303q0 -338 -203 -540t-546 -202q-145 0 -275 41.5 t-207 108.5z" />
<glyph unicode="&#x42e;" horiz-adv-x="2213" d="M199 0v1434h252v-586h243q41 268 231 438t470 170q158 0 293 -53t230.5 -148.5t149.5 -234t54 -303.5q0 -213 -92.5 -381.5t-258.5 -263.5t-376 -95q-182 0 -334 77.5t-250.5 222.5t-120.5 335h-239v-612h-252zM950 717q0 -214 131.5 -359t321.5 -145q146 0 250 68 t153 180t49 256q0 223 -125 363.5t-327 140.5q-195 0 -324 -141.5t-129 -362.5z" />
<glyph unicode="&#x42f;" horiz-adv-x="1294" d="M35 0l366 547q-110 56 -180.5 156.5t-70.5 240.5q0 102 34 189.5t103 157t184.5 109.5t267.5 40q47 0 181.5 -3t175.5 -3v-1434h-250v496h-207l-322 -496h-282zM416 961q0 -91 58.5 -152.5t141.5 -77.5h230v467q-105 6 -158 6q-123 0 -197.5 -67.5t-74.5 -175.5z" />
<glyph unicode="&#x430;" horiz-adv-x="1251" d="M12 0l502 1077h223l502 -1077h-268l-101 221h-505l-101 -221h-252zM469 455h297l-148 329z" />
<glyph unicode="&#x431;" horiz-adv-x="1103" d="M160 0v1075h762v-235h-512v-164q52 8 176 8q194 0 302.5 -85.5t108.5 -246.5q0 -360 -467 -360q-85 0 -215 4t-155 4zM410 231q94 -4 147 -4q103 0 147 28t44 85q0 56 -45.5 83.5t-147.5 27.5q-94 0 -145 -9v-211z" />
<glyph unicode="&#x432;" horiz-adv-x="1105" d="M160 2v1069q165 10 403 10q204 0 302 -73.5t98 -192.5q0 -86 -43 -152t-123 -98v-2q202 -37 202 -237q0 -163 -125 -248.5t-327 -85.5q-270 0 -387 10zM410 238q63 -11 157 -11q181 0 181 105q0 49 -44.5 73.5t-125.5 24.5h-168v-192zM410 651h155q65 0 106.5 24.5 t41.5 74.5q0 96 -154 96q-97 0 -149 -6v-189z" />
<glyph unicode="&#x433;" horiz-adv-x="903" d="M160 0v1075h712v-235h-462v-840h-250z" />
<glyph unicode="&#x434;" horiz-adv-x="1306" d="M18 -184v420h129q50 57 108 225.5t71 398.5l10 215h770v-839h164v-420h-236v184h-780v-184h-236zM424 236h430v604h-274l-21 -154q-17 -165 -57.5 -288t-77.5 -162z" />
<glyph unicode="&#x435;" horiz-adv-x="1019" d="M160 0v1075h735v-235h-485v-181h436v-235h-436v-188h503v-236h-753z" />
<glyph unicode="&#x436;" horiz-adv-x="1675" d="M16 0l441 561l-422 514h303l375 -485v485h252v-485l374 485h303l-421 -510l440 -565h-303l-393 530v-530h-252v530l-394 -530h-303z" />
<glyph unicode="&#x437;" horiz-adv-x="1056" d="M53 172l137 170q133 -129 318 -129q92 0 141 28t49 81q0 106 -194 106h-160v236h152q66 0 111.5 25.5t45.5 68.5q0 96 -147 96q-178 0 -270 -111l-146 170q64 80 173.5 128.5t250.5 48.5q169 0 279 -80.5t110 -223.5q0 -75 -35 -135.5t-104 -91.5v-6q93 -21 139.5 -90 t46.5 -166q0 -148 -122 -234t-322 -86q-161 0 -279 59t-174 136z" />
<glyph unicode="&#x438;" horiz-adv-x="1357" d="M160 0v1075h250v-676l569 676h219v-1075h-250v676l-569 -676h-219z" />
<glyph unicode="&#x439;" horiz-adv-x="1357" d="M160 0v1075h250v-676l569 676h219v-1075h-250v676l-569 -676h-219zM340 1434h219q0 -109 123 -109q113 0 113 109h221q0 -132 -89.5 -207.5t-244.5 -75.5q-169 0 -255.5 73.5t-86.5 209.5z" />
<glyph unicode="&#x43a;" horiz-adv-x="1200" d="M160 0v1075h250v-487l415 487h326l-459 -495l492 -580h-340l-434 532v-532h-250z" />
<glyph unicode="&#x43b;" horiz-adv-x="1255" d="M35 0l4 242q18 -6 37 -2.5t37.5 9t37 26t35.5 48.5t33.5 77t30.5 111.5t26 151.5t21 197l18 215h781v-1075h-252v840h-299l-25 -203q-19 -167 -49 -285.5t-72 -192.5t-96.5 -114t-121 -48.5t-146.5 3.5z" />
<glyph unicode="&#x43c;" horiz-adv-x="1558" d="M160 0v1075h252l385 -448l364 448h238v-1075h-250v692l-352 -413h-35l-352 407v-686h-250z" />
<glyph unicode="&#x43d;" horiz-adv-x="1329" d="M160 0v1075h250v-409h510v409h249v-1075h-249v430h-510v-430h-250z" />
<glyph unicode="&#x43e;" horiz-adv-x="1349" d="M72 535q0 116 44 218t121.5 176.5t191 117.5t245.5 43q174 0 310.5 -66.5t215 -193.5t78.5 -295q0 -161 -78 -288.5t-216 -198.5t-310 -71q-173 0 -309 67t-214.5 194.5t-78.5 296.5zM338 535q0 -136 97.5 -229t238.5 -93q160 0 249 90.5t89 231.5q0 144 -96.5 231.5 t-241.5 87.5q-148 0 -242 -87t-94 -232z" />
<glyph unicode="&#x43f;" horiz-adv-x="1329" d="M160 0v1075h1009v-1075h-249v840h-510v-840h-250z" />
<glyph unicode="&#x440;" horiz-adv-x="1067" d="M160 0v1075q30 0 169.5 2t186.5 2q131 0 226.5 -30t149.5 -83.5t78.5 -120t24.5 -147.5q0 -169 -118.5 -278t-323.5 -109q-72 0 -143 6v-317h-250zM410 555q86 -8 135 -8q83 0 133.5 38.5t50.5 112.5q0 146 -186 146q-51 0 -133 -4v-285z" />
<glyph unicode="&#x441;" horiz-adv-x="1124" d="M72 535q0 113 38 211.5t110.5 176t190.5 122.5t267 45q114 0 211 -31t158 -80l-113 -188q-63 31 -119.5 47t-134.5 16q-154 0 -248 -83t-94 -236q0 -143 100.5 -232.5t268.5 -89.5q150 0 268 78l96 -189q-56 -55 -163 -90t-224 -35q-279 0 -445.5 152.5t-166.5 405.5z " />
<glyph unicode="&#x442;" horiz-adv-x="1030" d="M18 840v235h994v-235h-373v-840h-250v840h-371z" />
<glyph unicode="&#x443;" horiz-adv-x="1161" d="M18 1075h316l311 -502l244 502h258l-406 -813q-62 -129 -146 -195.5t-200 -66.5q-92 0 -159 47l88 213q44 -24 84 -24q58 0 92 61l18 29z" />
<glyph unicode="&#x444;" horiz-adv-x="1443" d="M53 553q0 207 148.5 326.5t392.5 124.5v83h252v-83q247 -5 395 -121t148 -330q0 -211 -148 -330t-395 -121v-114h-252v114q-247 3 -394 122t-147 329zM319 553q0 -95 71 -156.5t204 -64.5v442q-132 -3 -203.5 -70t-71.5 -151zM846 332q140 3 208 62.5t68 158.5 q0 85 -69.5 151.5t-206.5 69.5v-442z" />
<glyph unicode="&#x445;" horiz-adv-x="1153" d="M6 0l408 549l-389 526h311l246 -342l239 342h309l-391 -526l408 -549h-311l-263 356l-256 -356h-311z" />
<glyph unicode="&#x446;" horiz-adv-x="1345" d="M160 0v1075h250v-839h485v839h252v-839h162v-420h-234v184h-915z" />
<glyph unicode="&#x447;" horiz-adv-x="1179" d="M119 690v385h250v-295q0 -198 184 -198q126 0 217 57v436h250v-1075h-250v412q-100 -66 -270 -66q-70 0 -133.5 17.5t-121 55.5t-92 107.5t-34.5 163.5z" />
<glyph unicode="&#x448;" horiz-adv-x="1714" d="M160 0v1075h250v-839h321v839h252v-839h322v839h249v-1075h-1394z" />
<glyph unicode="&#x449;" horiz-adv-x="1755" d="M160 0v1075h250v-839h321v839h252v-839h322v839h249v-839h164v-420h-235v184h-1323z" />
<glyph unicode="&#x44a;" horiz-adv-x="1157" d="M14 840v235h500v-334q55 7 119 7q227 0 339.5 -97t112.5 -268q0 -176 -131.5 -281.5t-373.5 -105.5q-67 0 -177.5 2t-140.5 2v840h-248zM514 236q44 -5 113 -5q88 0 140 35.5t52 110.5q0 135 -209 135q-38 0 -96 -6v-270z" />
<glyph unicode="&#x44b;" horiz-adv-x="1507" d="M160 0v1075h250v-334q55 7 116 7q217 0 328 -97t111 -268q0 -175 -130.5 -281t-361.5 -106q-67 0 -175.5 2t-137.5 2zM410 236q44 -5 94 -5q194 0 194 146q0 67 -51 101t-141 34q-57 0 -96 -4v-272zM1096 0v1075h252v-1075h-252z" />
<glyph unicode="&#x44c;" horiz-adv-x="1054" d="M160 0v1075h250v-334q55 7 118 7q227 0 341 -97t114 -268q0 -176 -134 -281.5t-376 -105.5q-66 0 -175 2t-138 2zM410 236q88 -5 94 -5q213 0 213 146q0 135 -209 135q-20 0 -98 -4v-272z" />
<glyph unicode="&#x44d;" horiz-adv-x="1150" d="M39 94l106 211q133 -88 328 -88q285 0 342 213h-500v236h492q-68 192 -342 192q-199 0 -320 -78l-96 189q71 53 180.5 89t245.5 36q264 0 434 -154t170 -403q0 -258 -172 -406.5t-465 -148.5q-123 0 -233 32t-170 80z" />
<glyph unicode="&#x44e;" horiz-adv-x="1796" d="M160 0v1075h250v-409h170q38 192 185 310t374 118q271 0 428 -149t157 -406q0 -249 -158.5 -403t-426.5 -154q-223 0 -375.5 119.5t-185.5 328.5h-168v-430h-250zM836 539q0 -140 86 -231t225 -91q151 0 231 90t80 232q0 145 -84.5 232t-226.5 87q-139 0 -225 -87.5 t-86 -231.5z" />
<glyph unicode="&#x44f;" horiz-adv-x="1144" d="M23 0l278 383q-182 104 -182 301q0 79 28.5 148t85 126t154 90t223.5 33q77 0 212 -3t163 -3v-1075h-252v328h-188l-226 -328h-296zM385 700q0 -55 40.5 -91t98.5 -46h209v277q-69 6 -147 6q-95 0 -148 -39.5t-53 -106.5z" />
<glyph unicode="&#x451;" horiz-adv-x="1019" d="M160 0v1075h735v-235h-485v-181h436v-235h-436v-188h503v-236h-753zM221 1321q0 56 38 89.5t95 33.5q46 0 82.5 -34.5t36.5 -88.5q0 -58 -36.5 -92.5t-82.5 -34.5q-58 0 -95.5 33.5t-37.5 93.5zM588 1321q0 55 38.5 89t92.5 34q48 0 85.5 -34t37.5 -89q0 -58 -37 -92.5 t-86 -34.5q-55 0 -93 34t-38 93z" />
<glyph unicode="&#x452;" horiz-adv-x="1314" d="M18 840v235h994v-235h-373v-219q114 43 242 43q77 0 141 -18.5t114.5 -57t78.5 -105t28 -155.5q0 -173 -82.5 -259.5t-232.5 -86.5q-69 0 -131 23t-86 52l82 193q53 -33 102 -33q47 0 71.5 23t24.5 77q0 111 -157 111q-41 0 -81 -9t-59.5 -17.5t-54.5 -24.5v-377h-250 v840h-371z" />
<glyph unicode="&#x453;" horiz-adv-x="903" d="M160 0v1075h712v-235h-462v-840h-250zM360 1298l273 291l145 -180l-305 -242z" />
<glyph unicode="&#x454;" horiz-adv-x="1150" d="M72 539q0 248 170.5 401.5t435.5 153.5q136 0 244.5 -36t179.5 -89l-111 -189q-58 37 -144.5 57.5t-160.5 20.5q-155 0 -239 -49.5t-111 -149.5h502v-235h-498q34 -107 130 -157t235 -50q184 0 317 88l90 -211q-60 -48 -168.5 -80t-232.5 -32q-295 0 -467 148.5 t-172 408.5z" />
<glyph unicode="&#x455;" horiz-adv-x="1024" d="M55 164l144 170q52 -48 152 -84.5t186 -36.5q66 0 107.5 25.5t41.5 70.5q0 31 -32.5 55.5t-84.5 42t-114.5 36.5t-125 46t-114.5 62.5t-84.5 93.5t-32.5 133q0 65 24.5 119.5t75 98.5t137.5 69t204 25q101 0 223 -44t180 -106l-115 -186q-58 43 -146.5 71.5t-152.5 28.5 q-163 0 -163 -88q0 -29 32.5 -50.5t84 -38t114.5 -34t125.5 -45t114 -64t84 -97.5t32.5 -140q0 -142 -121 -231t-313 -89q-134 0 -268 52t-195 135z" />
<glyph unicode="&#x456;" horiz-adv-x="608" d="M178 0v1075h252v-1075h-252z" />
<glyph unicode="&#x457;" horiz-adv-x="659" d="M59 1321q0 52 34.5 83.5t86.5 31.5q44 0 77.5 -32.5t33.5 -82.5q0 -56 -33.5 -89.5t-77.5 -33.5q-53 0 -87 33t-34 90zM205 0v1075h252v-1075h-252zM371 1321q0 51 35 83t86 32q45 0 77.5 -32t32.5 -83q0 -56 -32.5 -89.5t-77.5 -33.5q-51 0 -86 33t-35 90z" />
<glyph unicode="&#x458;" horiz-adv-x="688" d="M4 57l82 193q49 -33 100 -33q45 0 69 23t24 67v768h249v-811q0 -138 -78 -210t-227 -72q-72 0 -134 22.5t-85 52.5z" />
<glyph unicode="&#x459;" horiz-adv-x="1720" d="M35 0l4 250q18 -5 37 -2t37.5 8t37 24.5t35.5 47t33.5 75.5t30.5 110t26 150.5t21 196.5l18 215h781v-334q52 7 114 7q217 0 328 -97t111 -268q0 -177 -130 -282t-362 -105q-67 0 -175.5 2t-137.5 2v840h-293l-29 -203q-21 -167 -52 -285.5t-73 -193t-96 -113.5t-120 -48 t-146 3zM1096 238q54 -7 90 -7q196 0 196 146q0 67 -51 101t-143 34q-36 0 -92 -6v-268z" />
<glyph unicode="&#x45a;" horiz-adv-x="1779" d="M160 0v1075h250v-375h493v375h250v-364q47 4 117 4q215 0 326.5 -93.5t111.5 -252.5q0 -167 -130.5 -270t-360.5 -103q-51 0 -142 2t-123 2h-49v465h-493v-465h-250zM1153 238q58 -7 92 -7q95 0 146 33.5t51 95.5q0 58 -52.5 89.5t-142.5 31.5q-35 0 -94 -6v-237z" />
<glyph unicode="&#x45b;" horiz-adv-x="1314" d="M18 840v235h994v-235h-373v-238q99 47 238 47q56 0 106 -10t98.5 -35t83.5 -63t56.5 -98t21.5 -136v-307h-252v231q0 101 -44.5 142t-123.5 41q-106 0 -184 -43v-371h-250v840h-371z" />
<glyph unicode="&#x45c;" horiz-adv-x="1200" d="M160 0v1075h250v-487l415 487h326l-459 -495l492 -580h-340l-434 532v-532h-250zM432 1298l273 291l145 -180l-305 -242z" />
<glyph unicode="&#x45e;" horiz-adv-x="1161" d="M18 1075h316l311 -502l244 502h258l-406 -813q-62 -129 -146 -195.5t-200 -66.5q-92 0 -159 47l88 213q44 -24 84 -24q58 0 92 61l18 29zM250 1434h219q0 -109 123 -109q113 0 113 109h221q0 -132 -89.5 -207.5t-244.5 -75.5q-169 0 -255.5 73.5t-86.5 209.5z" />
<glyph unicode="&#x45f;" horiz-adv-x="1312" d="M160 0v1075h250v-839h493v839h250v-1075h-379v-231h-235v231h-379z" />
<glyph unicode="&#x462;" horiz-adv-x="1327" d="M31 1034v236h248v164h249v-164h303v-236h-303v-153q82 10 166 10q541 0 541 -432q0 -226 -153.5 -344.5t-442.5 -118.5q-74 0 -199 2t-161 2v1034h-248zM528 238q11 0 62 -3.5t80 -3.5q149 0 224 48.5t75 173.5q0 114 -75 158t-220 44q-51 0 -146 -10v-407z" />
<glyph unicode="&#x463;" horiz-adv-x="1079" d="M14 768v205h170v102h252v-102h252v-205h-252v-88q47 6 117 6q231 0 343 -83.5t112 -250.5q0 -172 -130.5 -264t-377.5 -92q-67 0 -176.5 2t-139.5 2v768h-170zM436 219q17 0 47 -2t45 -2q213 0 213 131q0 119 -209 119q-12 0 -43.5 -1t-52.5 -1v-244z" />
<glyph unicode="&#x472;" horiz-adv-x="1677" d="M92 717q0 154 55 290.5t152.5 235.5t237 156t301.5 57q212 0 381.5 -91t267.5 -260t98 -388q0 -212 -97.5 -381.5t-268 -264t-381.5 -94.5q-212 0 -381.5 91t-267 260.5t-97.5 388.5zM369 829q132 84 254 84q64 0 129 -23.5t110 -51t107 -51t123 -23.5q50 0 110.5 25 t102.5 59q-40 168 -168 270.5t-299 102.5q-178 0 -306.5 -107.5t-162.5 -284.5zM373 584q40 -165 168.5 -268t296.5 -103q193 0 318 111.5t155 291.5q-129 -73 -238 -73q-63 0 -126 23.5t-106.5 52t-102.5 52t-115 23.5q-64 0 -131.5 -33t-118.5 -77z" />
<glyph unicode="&#x473;" horiz-adv-x="1349" d="M72 535q0 116 44 218t121.5 176.5t191 117.5t245.5 43q174 0 310.5 -66.5t215 -193.5t78.5 -295q0 -161 -78 -288.5t-216 -198.5t-310 -71q-173 0 -309 67t-214.5 194.5t-78.5 296.5zM348 449q29 -105 118.5 -170.5t207.5 -65.5q104 0 180 40.5t115 111.5 q-55 -25 -103 -25q-54 0 -109.5 26t-93 57t-83.5 57t-84 26q-82 0 -148 -57zM379 698q66 29 119 29q58 0 116 -26t96.5 -57t86.5 -57t90 -26q62 0 117 43q-23 115 -113.5 182.5t-216.5 67.5q-99 0 -176.5 -41t-118.5 -115z" />
<glyph unicode="&#x474;" horiz-adv-x="1353" d="M-6 1434h268l424 -1061l266 774q27 79 54 132.5t63.5 95t81.5 59.5t105.5 18t138.5 -20l-33 -220q-30 10 -53 11t-42 -8.5t-32.5 -23t-28.5 -42t-26 -55t-27 -72.5l-379 -1026h-190z" />
<glyph unicode="&#x475;" horiz-adv-x="1122" d="M-12 1075h284l306 -733l178 489q61 174 145.5 228t251.5 16v-205q-67 12 -112 -21t-83 -124l-292 -725h-193z" />
<glyph unicode="&#x490;" horiz-adv-x="1038" d="M199 0v1434h573v239h236v-475h-557v-1198h-252z" />
<glyph unicode="&#x491;" horiz-adv-x="919" d="M160 0v1075h493v168h236v-403h-479v-840h-250z" />
<glyph unicode="&#x2000;" horiz-adv-x="933" />
<glyph unicode="&#x2001;" horiz-adv-x="1866" />
<glyph unicode="&#x2002;" horiz-adv-x="933" />
<glyph unicode="&#x2003;" horiz-adv-x="1866" />
<glyph unicode="&#x2004;" horiz-adv-x="622" />
<glyph unicode="&#x2005;" horiz-adv-x="466" />
<glyph unicode="&#x2006;" horiz-adv-x="311" />
<glyph unicode="&#x2007;" horiz-adv-x="311" />
<glyph unicode="&#x2008;" horiz-adv-x="233" />
<glyph unicode="&#x2009;" horiz-adv-x="373" />
<glyph unicode="&#x200a;" horiz-adv-x="103" />
<glyph unicode="&#x2010;" horiz-adv-x="770" d="M127 451v219h516v-219h-516z" />
<glyph unicode="&#x2011;" horiz-adv-x="770" d="M127 451v219h516v-219h-516z" />
<glyph unicode="&#x2012;" horiz-adv-x="1226" d="M174 623v204h879v-204h-879z" />
<glyph unicode="&#x2013;" horiz-adv-x="1226" d="M174 451v204h879v-204h-879z" />
<glyph unicode="&#x2014;" horiz-adv-x="1667" d="M174 451v204h1319v-204h-1319z" />
<glyph unicode="&#x2015;" horiz-adv-x="1667" d="M174 451v204h1319v-204h-1319z" />
<glyph unicode="&#x2018;" horiz-adv-x="493" d="M96 1202q0 68 19 127t51 102t65 72.5t70 50.5l109 -100q-44 -36 -68.5 -90t-24.5 -111q0 -79 48 -127l-199 -114q-32 33 -51 85.5t-19 104.5z" />
<glyph unicode="&#x2019;" horiz-adv-x="493" d="M84 1104q44 36 68 89t24 110q0 80 -47 127l199 116q32 -33 50.5 -85.5t18.5 -104.5q0 -89 -34.5 -164.5t-77 -117.5t-92.5 -70z" />
<glyph unicode="&#x201a;" horiz-adv-x="493" d="M84 -258q44 36 68 89t24 110q0 80 -47 127l199 116q32 -33 50.5 -85.5t18.5 -104.5q0 -89 -34.5 -164.5t-77 -117.5t-92.5 -70z" />
<glyph unicode="&#x201c;" horiz-adv-x="827" d="M96 1202q0 68 19 127t51 102t65 72.5t70 50.5l109 -100q-44 -36 -68.5 -90t-24.5 -111q0 -79 48 -127l-199 -114q-32 33 -51 85.5t-19 104.5zM428 1202q0 68 19 127t51 102t65 72.5t70 50.5l108 -100q-44 -36 -68 -89.5t-24 -111.5q0 -80 47 -127l-198 -114 q-32 33 -51 85.5t-19 104.5z" />
<glyph unicode="&#x201d;" horiz-adv-x="827" d="M84 1104q44 36 68 89t24 110q0 80 -47 127l199 116q32 -33 50.5 -85.5t18.5 -104.5q0 -89 -34.5 -164.5t-77 -117.5t-92.5 -70zM416 1104q44 36 68 89t24 110q0 80 -47 127l198 116q32 -33 51 -85.5t19 -104.5q0 -68 -19 -127.5t-51 -102.5t-65.5 -72.5t-69.5 -49.5z" />
<glyph unicode="&#x201e;" horiz-adv-x="827" d="M84 -258q44 36 68 89t24 110q0 80 -47 127l199 116q32 -33 50.5 -85.5t18.5 -104.5q0 -89 -34.5 -164.5t-77 -117.5t-92.5 -70zM416 -258q44 36 68 89t24 110q0 80 -47 127l198 116q32 -33 51 -85.5t19 -104.5q0 -68 -19 -127.5t-51 -102.5t-65.5 -72.5t-69.5 -49.5z" />
<glyph unicode="&#x2020;" horiz-adv-x="1005" d="M82 809v205h311v420h219v-420h312v-205h-312v-1014h-219v1014h-311z" />
<glyph unicode="&#x2021;" horiz-adv-x="1005" d="M82 276v205h311v328h-311v205h311v420h219v-420h312v-205h-312v-328h312v-205h-312v-481h-219v481h-311z" />
<glyph unicode="&#x2022;" horiz-adv-x="583" d="M51 541q0 99 70.5 170t169.5 71t170 -71t71 -170q0 -97 -71.5 -168.5t-169.5 -71.5t-169 71.5t-71 168.5z" />
<glyph unicode="&#x2026;" horiz-adv-x="1767" d="M113 154q0 58 45 104.5t118 46.5q63 0 106.5 -47t43.5 -104q0 -65 -43 -114.5t-107 -49.5q-73 0 -118 49t-45 115zM727 154q0 58 45.5 104.5t118.5 46.5q63 0 106 -47t43 -104q0 -65 -42.5 -114.5t-106.5 -49.5q-73 0 -118.5 49t-45.5 115zM1341 154q0 58 45.5 104.5 t118.5 46.5q63 0 106.5 -47t43.5 -104q0 -65 -43 -114.5t-107 -49.5q-73 0 -118.5 49t-45.5 115z" />
<glyph unicode="&#x202f;" horiz-adv-x="373" />
<glyph unicode="&#x2030;" horiz-adv-x="2754" d="M76 1087q0 164 113 264.5t290 100.5t290.5 -100.5t113.5 -264.5q0 -163 -114 -264.5t-290 -101.5t-289.5 101.5t-113.5 264.5zM297 1087q0 -80 52.5 -128t129.5 -48q81 0 133 48t52 128q0 78 -53 126.5t-132 48.5q-78 0 -130 -48.5t-52 -126.5zM348 72l1034 1384 l134 -100l-1033 -1379zM981 346q0 164 113 264.5t290 100.5t290.5 -100.5t113.5 -264.5q0 -163 -114 -264.5t-290 -101.5t-289.5 101.5t-113.5 264.5zM1202 346q0 -80 52.5 -128t129.5 -48q81 0 133 48t52 128q0 78 -52.5 126t-132.5 48q-78 0 -130 -48t-52 -126zM1870 346 q0 164 113 264.5t290 100.5t290.5 -100.5t113.5 -264.5q0 -163 -114 -264.5t-290 -101.5t-289.5 101.5t-113.5 264.5zM2091 346q0 -80 52.5 -128t129.5 -48q81 0 133 48t52 128q0 78 -52.5 126t-132.5 48q-78 0 -130 -48t-52 -126z" />
<glyph unicode="&#x2039;" horiz-adv-x="718" d="M76 508v8l403 463l154 -137l-285 -330l283 -334l-160 -133z" />
<glyph unicode="&#x203a;" horiz-adv-x="718" d="M86 842l154 137l403 -463v-8l-395 -463l-160 133l283 334z" />
<glyph unicode="&#x2044;" horiz-adv-x="430" d="M-369 72l1035 1384l133 -100l-1032 -1379z" />
<glyph unicode="&#x205f;" horiz-adv-x="466" />
<glyph unicode="&#x20ac;" d="M37 813l72 191h153q71 206 243.5 329t418.5 123q75 0 150 -16t120 -41l-88 -217q-73 39 -184 39q-118 0 -217 -56t-158 -161h512l-72 -191h-500q-6 -47 -6 -96t4 -72h455l-63 -190h-334q60 -115 167.5 -178.5t243.5 -63.5q112 0 179 31l38 -228q-92 -39 -237 -39 q-247 0 -428 127.5t-252 350.5h-215l72 190h106q-2 23 -2 72q0 30 4 96h-182z" />
<glyph unicode="&#x2122;" horiz-adv-x="1771" d="M35 1221v213h661v-213h-219v-433h-221v433h-221zM776 788v646h199l244 -222l231 222h192v-646h-223v367l-205 -199h-4l-213 199v-367h-221z" />
<glyph unicode="&#xe000;" horiz-adv-x="1075" d="M0 0v1075h1075v-1075h-1075z" />
</font>
</defs>
</svg>
